{
.appVersion = "983";
DisplayStrings = (
"n/quoteright est past"
);
copyright = "Copyright 2017 The Barlow Project Authors (https://github.com/jpt/barlow)";
customParameters = (
{
name = "Use Typo Metrics";
value = 1;
},
{
name = licenseURL;
value = "http://scripts.sil.org/OFL";
},
{
name = license;
value = "This Font Software is licensed under the SIL Open Font License, Version 1.1. This license is available with a FAQ at: http://scripts.sil.org/OFL";
},
{
name = versionString;
value = "Development Version";
},
{
name = fsType;
value = (
);
},
{
name = vendorID;
value = TRBY;
}
);
date = "2017-01-19 02:17:38 +0000";
designer = "Jeremy Tribby";
designerURL = "https://tribby.com/";
familyName = Barlow;
fontMaster = (
{
alignmentZones = (
"{800, 16}",
"{700, 9}",
"{500, 9}",
"{0, -8}",
"{-200, -16}"
);
ascender = 800;
capHeight = 700;
customParameters = (
{
name = typoAscender;
value = 1000;
},
{
name = typoDescender;
value = -200;
},
{
name = winAscent;
value = 958;
},
{
name = winDescent;
value = 211;
},
{
name = hheaAscender;
value = 1000;
},
{
name = hheaDescender;
value = -200;
}
);
descender = -200;
horizontalStems = (
22,
22
);
id = "262880E7-CFE1-4BDA-902E-E24798F3240A";
userData = {
GSCornerRadius = 12;
GSOffsetHorizontal = 11;
GSOffsetMakeStroke = 1;
GSOffsetVertical = 11;
noodleExtremesAndInflections = 1;
noodleRemoveOverlap = 1;
noodleThickness = "22.0";
};
verticalStems = (
21,
21
);
weight = Light;
weightValue = 23;
widthValue = 5;
xHeight = 500;
},
{
alignmentZones = (
"{800, 16}",
"{700, 9}",
"{520, 9}",
"{0, -13}",
"{-200, -8}"
);
ascender = 800;
capHeight = 700;
customParameters = (
{
name = typoAscender;
value = 1000;
},
{
name = typoDescender;
value = -200;
},
{
name = winAscent;
value = 958;
},
{
name = winDescent;
value = 211;
},
{
name = hheaAscender;
value = 1000;
},
{
name = hheaDescender;
value = -200;
}
);
descender = -200;
horizontalStems = (
188,
188
);
id = "FFFA8D72-12AC-4CE0-B2CA-57A29829F4DA";
userData = {
GSCornerRadius = 8;

glyphs = (
{
glyphname = A;
lastChange = "2017-03-24 06:11:58 +0000";
layers = (
{
anchors = (
{
name = top;
position = "{249, 700}";
}
);
hints = (
{
origin = "{0, 6}";
target = "{0, 0}";
},
{
origin = "{0, 2}";
target = "{0, 3}";
},
{
origin = "{0, 5}";
target = "{0, 4}";
},
{
horizontal = 1;
origin = "{1, 0}";
target = "{1, 1}";
}
);
layerId = "262880E7-CFE1-4BDA-902E-E24798F3240A";
paths = (
{
closed = 1;
nodes = (
"49 0 LINE",
"249 671 LINE",
"451 0 LINE",
"473 0 LINE",
"260 700 LINE",
"238 700 LINE",
"27 0 LINE"
);
},
{
closed = 1;
nodes = (
"416 155 LINE",
"416 176 LINE",
"87 176 LINE",
"87 155 LINE"
);
}
);
width = 500;
},
{
anchors = (
{
name = top;
position = "{260, 700}";
}
);
layerId = "4E2227F3-52E4-4048-A8EE-327B486EF0A4";
paths = (
{
closed = 1;
nodes = (
"194 0 LINE",
"264 458 LINE",
"321 0 LINE",
"513 0 LINE",
"365 700 LINE",
"155 700 LINE",
"6 0 LINE"
);
},
{
closed = 1;
nodes = (
"393 95 LINE",
"393 239 LINE",
"123 239 LINE",
"123 95 LINE"
);
}
);
width = 519;
},
{
anchors = (
{
name = top;
position = "{302, 713}";
}
);
layerId = "FFFA8D72-12AC-4CE0-B2CA-57A29829F4DA";
paths = (
{
closed = 1;
nodes = (
"197 0 LINE",
"304 488 LINE",
"411 0 LINE",
"599 0 LINE",
"409 700 LINE",
"199 700 LINE",
"9 0 LINE"
);
},
{
closed = 1;
nodes = (
"470 95 LINE",
"470 239 LINE",
"135 239 LINE",
"135 95 LINE"
);
}
);
width = 608;
},
{
anchors = (
{
name = top;
position = "{187, 700}";
}
);
layerId = "DCBE1F7B-116A-43E0-B7B4-8657BA77D8B5";
paths = (
{
closed = 1;
nodes = (
"40 0 LINE",
"187 662 LINE",
"335 0 LINE",
"357 0 LINE",
"198 700 LINE",
"175 700 LINE",
"18 0 LINE"
);
},
{
closed = 1;
nodes = (
"312 155 LINE",
"312 176 LINE",
"66 176 LINE",
"66 155 LINE"
);
}
);
width = 375;
}
);
leftKerningGroup = A;
rightKerningGroup = A;
unicode = 0041;
},
{
glyphname = B;
lastChange = "2017-03-24 06:11:58 +0000";
layers = (
{
hints = (
{
horizontal = 1;
origin = "{2, 0}";
target = "{0, 8}";
},
{
horizontal = 1;
origin = "{1, 7}";
target = "{0, 0}";
},
{
origin = "{1, 7}";
target = "{0, 0}";
},
{
origin = "{0, 4}";
target = "{1, 3}";
},
{
origin = "{2, 4}";
target = "{3, 3}";
},
{
horizontal = 1;
origin = "{3, 0}";
target = "{2, 7}";
}
);
layerId = "262880E7-CFE1-4BDA-902E-E24798F3240A";
paths = (
{
closed = 1;
nodes = (
"130 679 LINE",
"310 679 LINE SMOOTH",
"410 679 OFFCURVE",
"476 617 OFFCURVE",
"476 523 CURVE SMOOTH",
"476 433 OFFCURVE",
"410 373 OFFCURVE",
"310 373 CURVE SMOOTH",
"130 373 LINE"
);
},
{
closed = 1;
nodes = (
"311 352 LINE SMOOTH",
"423 352 OFFCURVE",
"498 420 OFFCURVE",
"498 523 CURVE SMOOTH",
"498 629 OFFCURVE",
"423 700 OFFCURVE",
"310 700 CURVE SMOOTH",
"108 700 LINE",
"108 352 LINE"
);
},
{
closed = 1;
nodes = (
"130 352 LINE",
"310 352 LINE SMOOTH",
"414 352 OFFCURVE",
"483 286 OFFCURVE",
"483 186 CURVE SMOOTH",
"483 88 OFFCURVE",
"416 22 OFFCURVE",
"316 22 CURVE SMOOTH",
"130 22 LINE"
);
},
{
closed = 1;
nodes = (
"316 0 LINE SMOOTH",
"430 0 OFFCURVE",
"505 74 OFFCURVE",
"505 186 CURVE SMOOTH",
"505 298 OFFCURVE",
"428 373 OFFCURVE",
"311 373 CURVE SMOOTH",
"108 373 LINE",
"108 0 LINE"
);
}
);
width = 577;
},
{
layerId = "4E2227F3-52E4-4048-A8EE-327B486EF0A4";
paths = (
{
closed = 1;
nodes = (
"212 539 LINE",
"223 539 LINE",
"253 539 OFFCURVE",
"268 520 OFFCURVE",
"268 483 CURVE SMOOTH",
"268 447 OFFCURVE",
"253 427 OFFCURVE",
"223 427 CURVE",
"212 427 LINE"
);
},
{
closed = 1;
nodes = (
"189 319 LINE SMOOTH",
"364 319 OFFCURVE",
"452 369 OFFCURVE",
"452 503 CURVE SMOOTH",
"452 640 OFFCURVE",
"359 700 OFFCURVE",
"220 700 CURVE",
"24 700 LINE",
"24 319 LINE"
);
},
{
closed = 1;
nodes = (
"212 293 LINE",
"236 293 LINE SMOOTH",
"261 293 OFFCURVE",
"278 266 OFFCURVE",
"278 225 CURVE SMOOTH",
"278 182 OFFCURVE",
"260 161 OFFCURVE",
"235 161 CURVE SMOOTH",
"212 161 LINE"
);
},
{
closed = 1;
nodes = (
"250 0 LINE SMOOTH",
"369 0 OFFCURVE",
"468 65 OFFCURVE",
"466 201 CURVE SMOOTH",
"463 368 OFFCURVE",
"318 418 OFFCURVE",
"187 418 CURVE",
"24 418 LINE",
"24 0 LINE"
);
}
);
width = 482;
},
{
layerId = "FFFA8D72-12AC-4CE0-B2CA-57A29829F4DA";
paths = (
{
closed = 1;
nodes = (
"224 539 LINE",
"284 539 LINE",
"329 539 OFFCURVE",
"357 516 OFFCURVE",
"357 484 CURVE SMOOTH",
"357 451 OFFCURVE",
"327 429 OFFCURVE",
"284 429 CURVE",
"224 429 LINE"
);
},
{
closed = 1;
nodes = (
"238 323 LINE SMOOTH",
"423 321 OFFCURVE",
"541 360 OFFCURVE",
"541 502 CURVE SMOOTH",
"541 650 OFFCURVE",
"447 700 OFFCURVE",
"284 700 CURVE",
"36 700 LINE",
"36 325 LINE"
);
},
{
closed = 1;
nodes = (
"224 276 LINE",
"294 276 LINE SMOOTH",
"333 276 OFFCURVE",
"364 253 OFFCURVE",
"364 220 CURVE SMOOTH",
"364 189 OFFCURVE",
"337 161 OFFCURVE",
"293 161 CURVE SMOOTH",
"224 161 LINE"
);
},
{
closed = 1;
nodes = (
"293 0 LINE SMOOTH",
"435 0 OFFCURVE",
"552 55 OFFCURVE",
"552 200 CURVE SMOOTH",
"552 376 OFFCURVE",
"374 403 OFFCURVE",
"236 403 CURVE",
"36 401 LINE",
"36 0 LINE"
);
}
);
width = 576;
},
{
layerId = "DCBE1F7B-116A-43E0-B7B4-8657BA77D8B5";
paths = (
{
closed = 1;
nodes = (
"94 679 LINE",
"208 679 LINE SMOOTH",
"297 679 OFFCURVE",
"350 621 OFFCURVE",
"350 523 CURVE SMOOTH",
"350 429 OFFCURVE",
"297 373 OFFCURVE",
"208 373 CURVE SMOOTH",
"94 373 LINE"
);
},
{
closed = 1;
nodes = (
"207 352 LINE SMOOTH",
"311 352 OFFCURVE",
"372 415 OFFCURVE",
"372 523 CURVE SMOOTH",
"372 635 OFFCURVE",
"311 700 OFFCURVE",
"208 700 CURVE SMOOTH",
"72 700 LINE",
"72 352 LINE"
);
},
{
closed = 1;
nodes = (
"94 352 LINE",
"208 352 LINE SMOOTH",
"298 352 OFFCURVE",
"351 291 OFFCURVE",
"351 186 CURVE SMOOTH",
"351 83 OFFCURVE",
"298 22 OFFCURVE",
"208 22 CURVE SMOOTH",
"94 22 LINE"
);
},
{
closed = 1;
nodes = (
"209 0 LINE SMOOTH",
"312 0 OFFCURVE",
"373 69 OFFCURVE",
"373 186 CURVE SMOOTH",
"373 304 OFFCURVE",
"312 373 OFFCURVE",
"207 373 CURVE SMOOTH",
"72 373 LINE",
"72 0 LINE"
);
}
);
width = 421;
}
);
leftKerningGroup = H;
rightKerningGroup = B;
unicode = 0042;
},
{
glyphname = C;
lastChange = "2017-03-24 06:12:18 +0000";
layers = (
{
anchors = (
{
name = top;
position = "{270, 708}";
}
);
hints = (
{
origin = "{0, 27}";
target = "{0, 12}";
},
{
origin = "{0, 5}";
target = "{0, 2}";
},
{
horizontal = 1;
origin = "{0, 31}";
target = "{0, 8}";
},
{
horizontal = 1;
origin = "{0, 24}";
target = "{0, 15}";
}
);
layerId = "262880E7-CFE1-4BDA-902E-E24798F3240A";
paths = (
{
closed = 1;
nodes = (
"388 -9 OFFCURVE",
"467 66 OFFCURVE",
"467 178 CURVE SMOOTH",
"467 187 LINE",
"445 188 LINE",
"445 176 LINE SMOOTH",
"445 78 OFFCURVE",
"375 12 OFFCURVE",
"270 12 CURVE SMOOTH",
"164 12 OFFCURVE",
"94 78 OFFCURVE",
"94 176 CURVE SMOOTH",
"94 524 LINE SMOOTH",
"94 622 OFFCURVE",
"164 687 OFFCURVE",
"270 687 CURVE SMOOTH",
"375 687 OFFCURVE",
"445 622 OFFCURVE",
"445 524 CURVE SMOOTH",
"445 511 LINE",
"467 512 LINE",
"467 523 LINE SMOOTH",
"467 634 OFFCURVE",
"388 708 OFFCURVE",
"270 708 CURVE SMOOTH",
"151 708 OFFCURVE",
"72 634 OFFCURVE",
"72 523 CURVE SMOOTH",
"72 178 LINE SMOOTH",
"72 66 OFFCURVE",
"151 -9 OFFCURVE",
"270 -9 CURVE SMOOTH"
);
}
);
width = 512;
},
{
anchors = (
{
name = top;
position = "{235, 708}";
}
);
layerId = "4E2227F3-52E4-4048-A8EE-327B486EF0A4";
paths = (
{
closed = 1;
nodes = (
"366 -8 OFFCURVE",
"454 75 OFFCURVE",
"454 205 CURVE SMOOTH",
"454 224 LINE",
"266 231 LINE",
"266 189 LINE SMOOTH",
"266 167 OFFCURVE",
"254 153 OFFCURVE",
"235 153 CURVE SMOOTH",
"216 153 OFFCURVE",
"204 167 OFFCURVE",
"204 189 CURVE SMOOTH",
"204 510 LINE SMOOTH",
"204 532 OFFCURVE",
"216 547 OFFCURVE",
"235 547 CURVE SMOOTH",
"254 547 OFFCURVE",
"266 532 OFFCURVE",
"266 510 CURVE SMOOTH",
"266 470 LINE",
"454 477 LINE",
"454 497 LINE SMOOTH",
"454 627 OFFCURVE",
"366 708 OFFCURVE",
"235 708 CURVE SMOOTH",
"103 708 OFFCURVE",
"16 627 OFFCURVE",
"16 497 CURVE SMOOTH",
"16 205 LINE SMOOTH",
"16 75 OFFCURVE",
"103 -8 OFFCURVE",
"235 -8 CURVE SMOOTH"
);
}
);
width = 464;
},
{
anchors = (
{
name = top;
position = "{280, 708}";
}
);
layerId = "FFFA8D72-12AC-4CE0-B2CA-57A29829F4DA";
paths = (
{
closed = 1;
nodes = (
"434 -8 OFFCURVE",
"536 79 OFFCURVE",
"536 215 CURVE SMOOTH",
"536 224 LINE",
"348 234 LINE",
"348 222 LINE SMOOTH",
"348 181 OFFCURVE",
"321 153 OFFCURVE",
"280 153 CURVE SMOOTH",
"239 153 OFFCURVE",
"212 181 OFFCURVE",
"212 222 CURVE SMOOTH",
"212 477 LINE SMOOTH",
"212 519 OFFCURVE",
"239 547 OFFCURVE",
"280 547 CURVE SMOOTH",
"321 547 OFFCURVE",
"348 519 OFFCURVE",
"348 477 CURVE SMOOTH",
"348 465 LINE",
"536 477 LINE",
"536 487 LINE SMOOTH",
"536 623 OFFCURVE",
"434 708 OFFCURVE",
"280 708 CURVE SMOOTH",
"126 708 OFFCURVE",
"24 617 OFFCURVE",
"24 472 CURVE SMOOTH",
"24 230 LINE SMOOTH",
"24 85 OFFCURVE",
"126 -8 OFFCURVE",
"280 -8 CURVE SMOOTH"
);
}
);
width = 551;
},
{
anchors = (
{
name = top;
position = "{197, 708}";
}
);
layerId = "DCBE1F7B-116A-43E0-B7B4-8657BA77D8B5";
paths = (
{
closed = 1;
nodes = (
"288 -8 OFFCURVE",
"348 54 OFFCURVE",
"348 148 CURVE SMOOTH",
"348 177 LINE",
"325 178 LINE",
"325 147 LINE SMOOTH",
"325 67 OFFCURVE",
"274 13 OFFCURVE",
"197 13 CURVE SMOOTH",
"121 13 OFFCURVE",
"70 67 OFFCURVE",
"70 147 CURVE SMOOTH",
"70 554 LINE SMOOTH",
"70 634 OFFCURVE",
"121 687 OFFCURVE",
"197 687 CURVE SMOOTH",
"274 687 OFFCURVE",
"325 634 OFFCURVE",
"325 554 CURVE SMOOTH",
"325 521 LINE",
"348 522 LINE",
"348 553 LINE SMOOTH",
"348 647 OFFCURVE",
"288 708 OFFCURVE",
"197 708 CURVE SMOOTH",
"108 708 OFFCURVE",
"48 647 OFFCURVE",
"48 553 CURVE SMOOTH",
"48 148 LINE SMOOTH",
"48 54 OFFCURVE",
"108 -8 OFFCURVE",
"197 -8 CURVE SMOOTH"
);
}
);
width = 378;
}
);
leftKerningGroup = O;
rightKerningGroup = O;
unicode = 0043;
},
{
glyphname = D;
lastChange = "2017-03-24 06:11:58 +0000";
layers = (
{
hints = (
{
horizontal = 1;
origin = "{0, 7}";
target = "{1, 1}";
},
{
origin = "{0, 8}";
target = "{1, 0}";
},
{
horizontal = 1;
origin = "{0, 9}";
target = "{1, 9}";
},
{
origin = "{1, 5}";
target = "{0, 3}";
}
);
layerId = "262880E7-CFE1-4BDA-902E-E24798F3240A";
paths = (
{
closed = 1;
nodes = (
"298 0 LINE SMOOTH",
"417 0 OFFCURVE",
"490 68 OFFCURVE",
"490 180 CURVE SMOOTH",
"490 520 LINE SMOOTH",
"490 632 OFFCURVE",
"417 700 OFFCURVE",
"298 700 CURVE SMOOTH",
"108 700 LINE",
"108 0 LINE"
);
},
{
closed = 1;
nodes = (
"130 679 LINE",
"300 679 LINE SMOOTH",
"404 679 OFFCURVE",
"468 619 OFFCURVE",
"468 520 CURVE SMOOTH",
"468 179 LINE SMOOTH",
"468 81 OFFCURVE",
"404 21 OFFCURVE",
"300 21 CURVE SMOOTH",
"130 21 LINE"
);
}
);
width = 553;
},
{
layerId = "4E2227F3-52E4-4048-A8EE-327B486EF0A4";
paths = (
{
closed = 1;
nodes = (
"236 0 LINE SMOOTH",
"370 0 OFFCURVE",
"459 80 OFFCURVE",
"459 200 CURVE SMOOTH",
"459 500 LINE SMOOTH",
"459 620 OFFCURVE",
"370 700 OFFCURVE",
"236 700 CURVE SMOOTH",
"24 700 LINE",
"24 0 LINE"
);
},
{
closed = 1;
nodes = (
"212 539 LINE",
"231 539 LINE SMOOTH",
"255 539 OFFCURVE",
"271 519 OFFCURVE",
"271 488 CURVE",
"271 213 LINE",
"269 183 OFFCURVE",
"253 163 OFFCURVE",
"232 162 CURVE SMOOTH",
"212 161 LINE"
);
}
);
width = 473;
},
{
layerId = "FFFA8D72-12AC-4CE0-B2CA-57A29829F4DA";
paths = (
{
closed = 1;
nodes = (
"278 0 LINE SMOOTH",
"447 0 OFFCURVE",
"542 74 OFFCURVE",
"542 205 CURVE SMOOTH",
"542 495 LINE SMOOTH",
"542 626 OFFCURVE",
"447 700 OFFCURVE",
"278 700 CURVE SMOOTH",
"36 700 LINE",
"36 0 LINE"
);
},
{
closed = 1;
nodes = (
"224 539 LINE",
"284 539 LINE SMOOTH",
"329 539 OFFCURVE",
"354 512 OFFCURVE",
"354 463 CURVE",
"354 237 LINE",
"352 189 OFFCURVE",
"327 161 OFFCURVE",
"285 161 CURVE SMOOTH",
"224 161 LINE"
);
}
);
width = 563;
},
{
layerId = "DCBE1F7B-116A-43E0-B7B4-8657BA77D8B5";
paths = (
{
closed = 1;
nodes = (
"216 0 LINE SMOOTH",
"306 0 OFFCURVE",
"362 68 OFFCURVE",
"362 180 CURVE SMOOTH",
"362 520 LINE SMOOTH",
"362 632 OFFCURVE",
"306 700 OFFCURVE",
"216 700 CURVE SMOOTH",
"72 700 LINE",
"72 0 LINE"
);
},
{
closed = 1;
nodes = (
"94 679 LINE",
"217 679 LINE SMOOTH",
"293 679 OFFCURVE",
"339 619 OFFCURVE",
"339 520 CURVE SMOOTH",
"339 179 LINE SMOOTH",
"339 81 OFFCURVE",
"292 21 OFFCURVE",
"217 21 CURVE SMOOTH",
"94 21 LINE"
);
}
);
width = 404;
}
);
leftKerningGroup = H;
rightKerningGroup = B;
unicode = 0044;
},
{
glyphname = E;
lastChange = "2017-03-24 06:11:58 +0000";
layers = (
{
anchors = (
{
name = top;
position = "{293, 710}";
}
);
hints = (
{
horizontal = 1;
origin = "{1, 0}";
target = "{1, 1}";
},
{
horizontal = 1;
origin = "{0, 0}";
target = "{0, 1}";
},
{
origin = "{0, 7}";
target = "{0, 2}";
},
{
horizontal = 1;
origin = "{0, 5}";
target = "{0, 4}";
}
);
layerId = "262880E7-CFE1-4BDA-902E-E24798F3240A";
paths = (
{
closed = 1;
nodes = (
"479 0 LINE",
"479 21 LINE",
"130 21 LINE",
"130 679 LINE",
"479 679 LINE",
"479 700 LINE",
"108 700 LINE",
"108 0 LINE"
);
},
{
closed = 1;
nodes = (
"370 340 LINE",
"370 361 LINE",
"119 361 LINE",
"119 340 LINE"
);
}
);
width = 533;
},
{
anchors = (
{
name = top;
position = "{224, 713}";
}
);
layerId = "4E2227F3-52E4-4048-A8EE-327B486EF0A4";
paths = (
{
closed = 1;
nodes = (
"424 0 LINE",
"424 161 LINE",
"212 161 LINE",
"212 539 LINE",
"424 539 LINE",
"424 700 LINE",
"24 700 LINE",
"24 0 LINE"
);
},
{
closed = 1;
nodes = (
"332 270 LINE",
"332 431 LINE",
"100 431 LINE",
"100 270 LINE"
);
}
);
width = 436;
},
{
anchors = (
{
name = top;
position = "{273, 713}";
}
);
layerId = "FFFA8D72-12AC-4CE0-B2CA-57A29829F4DA";
paths = (
{
closed = 1;
nodes = (
"506 0 LINE",
"506 161 LINE",
"224 161 LINE",
"224 539 LINE",
"506 539 LINE",
"506 700 LINE",
"36 700 LINE",
"36 0 LINE"
);
},
{
closed = 1;
nodes = (
"392 275 LINE",
"392 435 LINE",
"112 435 LINE",
"112 275 LINE"
);
}
);
width = 524;
},
{
anchors = (
{
name = top;
position = "{213, 710}";
}
);
layerId = "DCBE1F7B-116A-43E0-B7B4-8657BA77D8B5";
paths = (
{
closed = 1;
nodes = (
"354 0 LINE",
"354 21 LINE",
"94 21 LINE",
"94 679 LINE",
"354 679 LINE",
"354 700 LINE",
"72 700 LINE",
"72 0 LINE"
);
},
{
closed = 1;
nodes = (
"271 340 LINE",
"271 361 LINE",
"83 361 LINE",
"83 340 LINE"
);
}
);
width = 390;
}
);
leftKerningGroup = H;
unicode = 0045;
},
{
glyphname = F;
lastChange = "2017-03-24 06:11:58 +0000";
layers = (
{
hints = (
{
horizontal = 1;
origin = "{0, 3}";
target = "{0, 2}";
},
{
horizontal = 1;
origin = "{1, 0}";
target = "{1, 1}";
},
{
origin = "{0, 5}";
target = "{0, 0}";
}
);
layerId = "262880E7-CFE1-4BDA-902E-E24798F3240A";
paths = (
{
closed = 1;
nodes = (
"130 0 LINE",
"130 679 LINE",
"478 679 LINE",
"478 700 LINE",
"108 700 LINE",
"108 0 LINE"
);
},
{
closed = 1;
nodes = (
"369 340 LINE",
"369 361 LINE",
"119 361 LINE",
"119 340 LINE"
);
}
);
width = 505;
},
{
layerId = "4E2227F3-52E4-4048-A8EE-327B486EF0A4";
paths = (
{
closed = 1;
nodes = (
"212 0 LINE",
"212 539 LINE",
"424 539 LINE",
"424 700 LINE",
"24 700 LINE",
"24 0 LINE"
);
},
{
closed = 1;
nodes = (
"332 270 LINE",
"332 431 LINE",
"100 431 LINE",
"100 270 LINE"
);
}
);
width = 430;
},
{
layerId = "FFFA8D72-12AC-4CE0-B2CA-57A29829F4DA";
paths = (
{
closed = 1;
nodes = (
"224 0 LINE",
"224 539 LINE",
"505 539 LINE",
"505 700 LINE",
"36 700 LINE",
"36 0 LINE"
);
},
{
closed = 1;
nodes = (
"392 275 LINE",
"392 435 LINE",
"112 435 LINE",
"112 275 LINE"
);
}
);
width = 514;
},
{
layerId = "DCBE1F7B-116A-43E0-B7B4-8657BA77D8B5";
paths = (
{
closed = 1;
nodes = (
"94 0 LINE",
"94 679 LINE",
"352 679 LINE",
"352 700 LINE",
"72 700 LINE",
"72 0 LINE"
);
},
{
closed = 1;
nodes = (
"270 340 LINE",
"270 361 LINE",
"83 361 LINE",
"83 340 LINE"
);
}
);
width = 370;
}
);
leftKerningGroup = H;
rightKerningGroup = F;
unicode = 0046;
},
{
glyphname = G;
lastChange = "2017-03-24 06:11:58 +0000";
layers = (
{
hints = (
{
origin = "{0, 29}";
target = "{0, 14}";
},
{
horizontal = 1;
origin = "{0, 26}";
target = "{0, 17}";
},
{
origin = "{0, 21}";
target = "{0, 22}";
},
{
horizontal = 1;
origin = "{0, 5}";
target = "{0, 4}";
},
{
horizontal = 1;
origin = "{0, 33}";
target = "{0, 10}";
}
);
layerId = "262880E7-CFE1-4BDA-902E-E24798F3240A";
paths = (
{
closed = 1;
nodes = (
"406 -8 OFFCURVE",
"484 64 OFFCURVE",
"484 174 CURVE SMOOTH",
"484 337 LINE",
"297 337 LINE",
"297 316 LINE",
"462 316 LINE",
"462 173 LINE SMOOTH",
"462 77 OFFCURVE",
"393 13 OFFCURVE",
"288 13 CURVE SMOOTH",
"182 13 OFFCURVE",
"112 77 OFFCURVE",
"112 173 CURVE SMOOTH",
"112 527 LINE SMOOTH",
"112 623 OFFCURVE",
"182 687 OFFCURVE",
"288 687 CURVE SMOOTH",
"393 687 OFFCURVE",
"462 623 OFFCURVE",
"462 527 CURVE SMOOTH",
"462 500 LINE",
"484 500 LINE",
"484 526 LINE SMOOTH",
"484 636 OFFCURVE",
"406 708 OFFCURVE",
"288 708 CURVE SMOOTH",
"169 708 OFFCURVE",
"90 636 OFFCURVE",
"90 526 CURVE SMOOTH",
"90 174 LINE SMOOTH",
"90 64 OFFCURVE",
"169 -8 OFFCURVE",
"288 -8 CURVE SMOOTH"
);
}
);
width = 556;
},
{
layerId = "4E2227F3-52E4-4048-A8EE-327B486EF0A4";
paths = (
{
closed = 1;
nodes = (
"370 -8 OFFCURVE",
"458 72 OFFCURVE",
"458 196 CURVE SMOOTH",
"458 395 LINE",
"241 395 LINE",
"241 250 LINE",
"270 250 LINE",
"270 195 LINE SMOOTH",
"270 170 OFFCURVE",
"258 153 OFFCURVE",
"239 153 CURVE SMOOTH",
"220 153 OFFCURVE",
"208 170 OFFCURVE",
"208 195 CURVE SMOOTH",
"208 505 LINE SMOOTH",
"208 530 OFFCURVE",
"220 547 OFFCURVE",
"239 547 CURVE SMOOTH",
"258 547 OFFCURVE",
"270 530 OFFCURVE",
"270 505 CURVE SMOOTH",
"270 455 LINE",
"458 455 LINE",
"458 503 LINE SMOOTH",
"458 628 OFFCURVE",
"370 708 OFFCURVE",
"239 708 CURVE SMOOTH",
"107 708 OFFCURVE",
"20 629 OFFCURVE",
"20 505 CURVE SMOOTH",
"20 196 LINE SMOOTH",
"20 72 OFFCURVE",
"107 -8 OFFCURVE",
"239 -8 CURVE SMOOTH"
);
}
);
width = 474;
},
{
layerId = "FFFA8D72-12AC-4CE0-B2CA-57A29829F4DA";
paths = (
{
closed = 1;
nodes = (
"439 -8 OFFCURVE",
"541 88 OFFCURVE",
"541 236 CURVE SMOOTH",
"541 391 LINE",
"290 391 LINE",
"290 246 LINE",
"354 246 LINE",
"354 230 LINE SMOOTH",
"354 184 OFFCURVE",
"327 153 OFFCURVE",
"286 153 CURVE SMOOTH",
"245 153 OFFCURVE",
"218 184 OFFCURVE",
"218 230 CURVE SMOOTH",
"218 470 LINE SMOOTH",
"218 516 OFFCURVE",
"245 547 OFFCURVE",
"286 547 CURVE SMOOTH",
"327 547 OFFCURVE",
"354 516 OFFCURVE",
"354 470 CURVE SMOOTH",
"354 447 LINE",
"541 447 LINE",
"541 463 LINE SMOOTH",
"541 612 OFFCURVE",
"439 708 OFFCURVE",
"286 708 CURVE SMOOTH",
"132 708 OFFCURVE",
"30 613 OFFCURVE",
"30 465 CURVE SMOOTH",
"30 236 LINE SMOOTH",
"30 88 OFFCURVE",
"132 -8 OFFCURVE",
"286 -8 CURVE SMOOTH"
);
}
);
width = 565;
},
{
layerId = "DCBE1F7B-116A-43E0-B7B4-8657BA77D8B5";
paths = (
{
closed = 1;
nodes = (
"299 -8 OFFCURVE",
"359 52 OFFCURVE",
"359 144 CURVE SMOOTH",
"359 332 LINE",
"216 332 LINE",
"216 311 LINE",
"337 311 LINE",
"337 143 LINE SMOOTH",
"337 65 OFFCURVE",
"286 13 OFFCURVE",
"209 13 CURVE SMOOTH",
"133 13 OFFCURVE",
"82 65 OFFCURVE",
"82 143 CURVE SMOOTH",
"82 557 LINE SMOOTH",
"82 635 OFFCURVE",
"133 687 OFFCURVE",
"209 687 CURVE SMOOTH",
"286 687 OFFCURVE",
"337 635 OFFCURVE",
"337 557 CURVE SMOOTH",
"337 500 LINE",
"359 500 LINE",
"359 556 LINE SMOOTH",
"359 648 OFFCURVE",
"299 708 OFFCURVE",
"209 708 CURVE SMOOTH",
"120 708 OFFCURVE",
"60 648 OFFCURVE",
"60 556 CURVE SMOOTH",
"60 144 LINE SMOOTH",
"60 52 OFFCURVE",
"120 -8 OFFCURVE",
"209 -8 CURVE SMOOTH"
);
}
);
width = 407;
}
);
leftKerningGroup = O;
rightKerningGroup = G;
unicode = 0047;
},
{
glyphname = H;
lastChange = "2017-03-24 06:11:58 +0000";
layers = (
{
hints = (
{
origin = "{1, 2}";
target = "{1, 1}";
},
{
origin = "{0, 2}";
target = "{0, 1}";
},
{
horizontal = 1;
origin = "{2, 0}";
target = "{2, 1}";
}
);
layerId = "262880E7-CFE1-4BDA-902E-E24798F3240A";
paths = (
{
closed = 1;
nodes = (
"480 0 LINE",
"480 700 LINE",
"458 700 LINE",
"458 0 LINE"
);
},
{
closed = 1;
nodes = (
"130 0 LINE",
"130 700 LINE",
"108 700 LINE",
"108 0 LINE"
);
},
{
closed = 1;
nodes = (
"463 340 LINE",
"463 361 LINE",
"125 361 LINE",
"125 340 LINE"
);
}
);
width = 588;
},
{
layerId = "4E2227F3-52E4-4048-A8EE-327B486EF0A4";
paths = (
{
closed = 1;
nodes = (
"457 0 LINE",
"457 700 LINE",
"269 700 LINE",
"269 0 LINE"
);
},
{
closed = 1;
nodes = (
"212 0 LINE",
"212 700 LINE",
"24 700 LINE",
"24 0 LINE"
);
},
{
closed = 1;
nodes = (
"359 270 LINE",
"359 431 LINE",
"124 431 LINE",
"124 270 LINE"
);
}
);
width = 481;
},
{
layerId = "FFFA8D72-12AC-4CE0-B2CA-57A29829F4DA";
paths = (
{
closed = 1;
nodes = (
"538 0 LINE",
"538 700 LINE",
"350 700 LINE",
"350 0 LINE"
);
},
{
closed = 1;
nodes = (
"224 0 LINE",
"224 700 LINE",
"36 700 LINE",
"36 0 LINE"
);
},
{
closed = 1;
nodes = (
"439 274 LINE",
"439 435 LINE",
"137 435 LINE",
"137 274 LINE"
);
}
);
width = 574;
},
{
layerId = "DCBE1F7B-116A-43E0-B7B4-8657BA77D8B5";
paths = (
{
closed = 1;
nodes = (
"355 0 LINE",
"355 700 LINE",
"333 700 LINE",
"333 0 LINE"
);
},
{
closed = 1;
nodes = (
"94 0 LINE",
"94 700 LINE",
"72 700 LINE",
"72 0 LINE"
);
},
{
closed = 1;
nodes = (
"340 340 LINE",
"340 361 LINE",
"88 361 LINE",
"88 340 LINE"
);
}
);
width = 427;
}
);
unicode = 0048;
},
{
glyphname = I;
lastChange = "2017-03-24 06:12:26 +0000";
layers = (
{
anchors = (
{
name = top;
position = "{119, 710}";
}
);
hints = (
{
origin = "{0, 2}";
target = "{0, 1}";
}
);
layerId = "262880E7-CFE1-4BDA-902E-E24798F3240A";
paths = (
{
closed = 1;
nodes = (
"130 0 LINE",
"130 700 LINE",
"108 700 LINE",
"108 0 LINE"
);
}
);
width = 238;
},
{
anchors = (
{
name = top;
position = "{118, 713}";
}
);
layerId = "4E2227F3-52E4-4048-A8EE-327B486EF0A4";
paths = (
{
closed = 1;
nodes = (
"212 0 LINE",
"212 700 LINE",
"24 700 LINE",
"24 0 LINE"
);
}
);
width = 236;
},
{
anchors = (
{
name = top;
position = "{130, 713}";
}
);
layerId = "FFFA8D72-12AC-4CE0-B2CA-57A29829F4DA";
paths = (
{
closed = 1;
nodes = (
"224 0 LINE",
"224 700 LINE",
"36 700 LINE",
"36 0 LINE"
);
}
);
width = 260;
},
{
anchors = (
{
name = top;
position = "{83, 710}";
}
);
layerId = "DCBE1F7B-116A-43E0-B7B4-8657BA77D8B5";
paths = (
{
closed = 1;
nodes = (
"94 0 LINE",
"94 700 LINE",
"72 700 LINE",
"72 0 LINE"
);
}
);
width = 166;
}
);
unicode = 0049;
},
{
glyphname = J;
lastChange = "2017-03-24 06:11:58 +0000";
layers = (
{
hints = (
{
origin = "{0, 5}";
target = "{0, 2}";
},
{
horizontal = 1;
origin = "{0, 17}";
target = "{0, 8}";
},
{
origin = "{0, 13}";
target = "{0, 12}";
}
);
layerId = "262880E7-CFE1-4BDA-902E-E24798F3240A";
paths = (
{
closed = 1;
nodes = (
"331 -8 OFFCURVE",
"407 62 OFFCURVE",
"407 168 CURVE SMOOTH",
"407 700 LINE",
"385 700 LINE",
"385 167 LINE SMOOTH",
"385 75 OFFCURVE",
"317 13 OFFCURVE",
"217 13 CURVE SMOOTH",
"116 13 OFFCURVE",
"49 75 OFFCURVE",
"49 167 CURVE SMOOTH",
"49 251 LINE",
"27 251 LINE",
"27 168 LINE SMOOTH",
"27 62 OFFCURVE",
"102 -8 OFFCURVE",
"217 -8 CURVE SMOOTH"
);
}
);
width = 515;
},
{
layerId = "4E2227F3-52E4-4048-A8EE-327B486EF0A4";
paths = (
{
closed = 1;
nodes = (
"354 -8 OFFCURVE",
"442 72 OFFCURVE",
"442 192 CURVE SMOOTH",
"442 700 LINE",
"254 700 LINE",
"254 190 LINE SMOOTH",
"254 168 OFFCURVE",
"241 153 OFFCURVE",
"223 153 CURVE SMOOTH",
"206 153 OFFCURVE",
"194 168 OFFCURVE",
"194 190 CURVE SMOOTH",
"194 265 LINE",
"6 265 LINE",
"6 192 LINE SMOOTH",
"6 72 OFFCURVE",
"93 -8 OFFCURVE",
"223 -8 CURVE SMOOTH"
);
}
);
width = 466;
},
{
layerId = "FFFA8D72-12AC-4CE0-B2CA-57A29829F4DA";
paths = (
{
closed = 1;
nodes = (
"413 -8 OFFCURVE",
"515 80 OFFCURVE",
"515 212 CURVE SMOOTH",
"515 700 LINE",
"328 700 LINE",
"328 213 LINE SMOOTH",
"328 177 OFFCURVE",
"301 153 OFFCURVE",
"261 153 CURVE SMOOTH",
"223 153 OFFCURVE",
"197 177 OFFCURVE",
"197 213 CURVE SMOOTH",
"197 280 LINE",
"9 280 LINE",
"9 212 LINE SMOOTH",
"9 80 OFFCURVE",
"110 -8 OFFCURVE",
"261 -8 CURVE SMOOTH"
);
}
);
width = 551;
},
{
layerId = "DCBE1F7B-116A-43E0-B7B4-8657BA77D8B5";
paths = (
{
closed = 1;
nodes = (
"248 -8 OFFCURVE",
"306 54 OFFCURVE",
"306 148 CURVE SMOOTH",
"306 700 LINE",
"284 700 LINE",
"284 147 LINE SMOOTH",
"284 67 OFFCURVE",
"235 13 OFFCURVE",
"162 13 CURVE SMOOTH",
"89 13 OFFCURVE",
"40 67 OFFCURVE",
"40 147 CURVE SMOOTH",
"40 251 LINE",
"18 251 LINE",
"18 148 LINE SMOOTH",
"18 54 OFFCURVE",
"76 -8 OFFCURVE",
"162 -8 CURVE SMOOTH"
);
}
);
width = 378;
}
);
leftKerningGroup = J;
rightKerningGroup = U;
unicode = 004A;
},
{
glyphname = K;
lastChange = "2017-03-24 06:11:58 +0000";
layers = (
{
hints = (
{
origin = "{0, 7}";
target = "{0, 6}";
},
{
origin = "{0, 3}";
target = "{0, 4}";
},
{
origin = "{0, 11}";
target = "{0, 0}";
}
);
layerId = "262880E7-CFE1-4BDA-902E-E24798F3240A";
paths = (
{
closed = 1;
nodes = (
"130 0 LINE",
"130 275 LINE",
"252 408 LINE",
"506 0 LINE",
"534 0 LINE",
"267 427 LINE",
"510 700 LINE",
"482 700 LINE",
"130 306 LINE",
"130 700 LINE",
"108 700 LINE",
"108 0 LINE"
);
}
);
width = 561;
},
{
layerId = "4E2227F3-52E4-4048-A8EE-327B486EF0A4";
paths = (
{
closed = 1;
nodes = (
"212 0 LINE",
"212 163 LINE",
"235 224 LINE",
"311 0 LINE",
"509 0 LINE",
"366 402 LINE",
"506 700 LINE",
"308 700 LINE",
"212 470 LINE",
"212 700 LINE",
"24 700 LINE",
"24 0 LINE"
);
}
);
width = 515;
},
{
layerId = "FFFA8D72-12AC-4CE0-B2CA-57A29829F4DA";
paths = (
{
closed = 1;
nodes = (
"224 0 LINE",
"224 191 LINE",
"272 264 LINE",
"397 0 LINE",
"598 0 LINE",
"403 392 LINE",
"592 700 LINE",
"393 700 LINE",
"224 444 LINE",
"224 700 LINE",
"36 700 LINE",
"36 0 LINE"
);
}
);
width = 607;
},
{
layerId = "DCBE1F7B-116A-43E0-B7B4-8657BA77D8B5";
paths = (
{
closed = 1;
nodes = (
"94 0 LINE",
"94 274 LINE",
"182 406 LINE",
"358 0 LINE",
"385 0 LINE",
"198 427 LINE",
"368 700 LINE",
"340 700 LINE",
"94 308 LINE",
"94 700 LINE",
"72 700 LINE",
"72 0 LINE"
);
}
);
width = 403;
}
);
rightKerningGroup = K;
unicode = 004B;
},
{
glyphname = L;
lastChange = "2017-03-24 06:11:58 +0000";
layers = (
{
hints = (
{
horizontal = 1;
origin = "{0, 0}";
target = "{0, 1}";
},
{
origin = "{0, 4}";
target = "{0, 3}";
}
);
layerId = "262880E7-CFE1-4BDA-902E-E24798F3240A";
paths = (
{
closed = 1;
nodes = (
"473 0 LINE",
"473 21 LINE",
"130 21 LINE",
"130 700 LINE",
"108 700 LINE",
"108 0 LINE"
);
}
);
width = 482;
},
{
layerId = "4E2227F3-52E4-4048-A8EE-327B486EF0A4";
paths = (
{
closed = 1;
nodes = (
"433 0 LINE",
"433 161 LINE",
"212 161 LINE",
"212 700 LINE",
"24 700 LINE",
"24 0 LINE"
);
}
);
width = 435;
},
{
layerId = "FFFA8D72-12AC-4CE0-B2CA-57A29829F4DA";
paths = (
{
closed = 1;
nodes = (
"513 0 LINE",
"513 161 LINE",
"224 161 LINE",
"224 700 LINE",
"36 700 LINE",
"36 0 LINE"
);
}
);
width = 516;
},
{
layerId = "DCBE1F7B-116A-43E0-B7B4-8657BA77D8B5";
paths = (
{
closed = 1;
nodes = (
"349 0 LINE",
"349 21 LINE",
"94 21 LINE",
"94 700 LINE",
"72 700 LINE",
"72 0 LINE"
);
}
);
width = 355;
}
);
rightKerningGroup = L;
unicode = 004C;
},
{
color = 3;
glyphname = M;
lastChange = "2017-03-24 06:13:37 +0000";
layers = (
{
hints = (
{
origin = "{0, 2}";
target = "{0, 3}";
},
{
origin = "{0, 11}";
target = "{0, 10}";
},
{
origin = "{0, 8}";
target = "{0, 7}";
}
);
layerId = "262880E7-CFE1-4BDA-902E-E24798F3240A";
paths = (
{
closed = 1;
nodes = (
"130 0 LINE",
"130 654 LINE",
"311 329 LINE",
"329 329 LINE",
"508 654 LINE",
"508 0 LINE",
"530 0 LINE",
"530 700 LINE",
"508 700 LINE",
"318 358 LINE",
"130 700 LINE",
"108 700 LINE",
"108 0 LINE"
);
}
);
width = 638;
},
{
layerId = "4E2227F3-52E4-4048-A8EE-327B486EF0A4";
paths = (
{
closed = 1;
nodes = (
"212 0 LINE",
"212 439 LINE",
"271 310 LINE",
"272 310 LINE",
"332 436 LINE",
"332 0 LINE",
"520 0 LINE",
"520 700 LINE",
"337 700 LINE",
"272 560 LINE",
"207 700 LINE",
"24 700 LINE",
"24 0 LINE"
);
}
);
width = 544;
},
{
associatedMasterId = "4E2227F3-52E4-4048-A8EE-327B486EF0A4";
layerId = "C618EEF0-F381-433B-B25F-2EDAE517ED4C";
name = "{100,3}";
paths = (
{
closed = 1;
nodes = (
"150 0 LINE",
"150 490 LINE",
"247 280 LINE",
"256 280 LINE",
"353 488 LINE",
"353 0 LINE",
"452 0 LINE",
"452 700 LINE",
"355 700 LINE",
"251 452 LINE",
"147 700 LINE",
"50 700 LINE",
"50 0 LINE"
);
}
);
width = 501;
},
{
layerId = "FFFA8D72-12AC-4CE0-B2CA-57A29829F4DA";
paths = (
{
closed = 1;
nodes = (
"224 0 LINE",
"224 414 LINE",
"294 292 LINE",
"374 292 LINE",
"444 414 LINE",
"444 0 LINE",
"632 0 LINE",
"632 700 LINE",
"449 700 LINE",
"334 512 LINE",
"219 700 LINE",
"36 700 LINE",
"36 0 LINE"
);
}
);
width = 668;
},
{
layerId = "DCBE1F7B-116A-43E0-B7B4-8657BA77D8B5";
paths = (
{
closed = 1;
nodes = (
"94 0 LINE",
"94 651 LINE",
"224 330 LINE",
"242 330 LINE",
"370 651 LINE",
"370 0 LINE",
"392 0 LINE",
"392 700 LINE",
"370 700 LINE",
"231 358 LINE",
"94 700 LINE",
"72 700 LINE",
"72 0 LINE"
);
}
);
width = 464;
},
{
associatedMasterId = "4E2227F3-52E4-4048-A8EE-327B486EF0A4";
layerId = "B75973C7-2F91-404C-BACF-1A0B6CD40DCC";
name = "{100,5}";
paths = (
{
closed = 1;
nodes = (
"174 0 LINE",
"174 518 LINE",
"297 288 LINE",
"351 288 LINE",
"474 518 LINE",
"474 0 LINE",
"573 0 LINE",
"573 700 LINE",
"478 700 LINE",
"323 414 LINE",
"169 700 LINE",
"74 700 LINE",
"74 0 LINE"
);
}
);
width = 647;
}
);
unicode = 004D;
},
{
color = 3;
glyphname = N;
lastChange = "2017-03-24 06:13:37 +0000";
layers = (
{
anchors = (
{
name = top;
position = "{305, 710}";
}
);
hints = (
{
origin = "{0, 9}";
target = "{0, 0}";
},
{
origin = "{0, 2}";
target = "{0, 3}";
}
);
layerId = "262880E7-CFE1-4BDA-902E-E24798F3240A";
paths = (
{
closed = 1;
nodes = (
"130 0 LINE",
"130 651 LINE",
"476 0 LINE",
"498 0 LINE",
"498 700 LINE",
"476 700 LINE",
"476 49 LINE",
"130 700 LINE",
"108 700 LINE",
"108 0 LINE"
);
}
);
width = 606;
},
{
anchors = (
{
name = top;
position = "{268, 713}";
}
);
layerId = "4E2227F3-52E4-4048-A8EE-327B486EF0A4";
paths = (
{
closed = 1;
nodes = (
"210 0 LINE",
"208 346 LINE",
"294 0 LINE",
"500 0 LINE",
"500 700 LINE",
"314 700 LINE",
"315 356 LINE",
"228 700 LINE",
"24 700 LINE",
"24 0 LINE"
);
}
);
width = 524;
},
{
anchors = (
{
name = top;
position = "{293, 713}";
}
);
layerId = "FFFA8D72-12AC-4CE0-B2CA-57A29829F4DA";
paths = (
{
closed = 1;
nodes = (
"222 0 LINE",
"220 357 LINE",
"396 0 LINE",
"572 0 LINE",
"572 700 LINE",
"386 700 LINE",
"387 350 LINE",
"212 700 LINE",
"36 700 LINE",
"36 0 LINE"
);
}
);
width = 608;
},
{
anchors = (
{
name = top;
position = "{221, 710}";
}
);
layerId = "DCBE1F7B-116A-43E0-B7B4-8657BA77D8B5";
paths = (
{
closed = 1;
nodes = (
"94 0 LINE",
"94 648 LINE",
"346 0 LINE",
"369 0 LINE",
"369 700 LINE",
"347 700 LINE",
"347 52 LINE",
"94 700 LINE",
"72 700 LINE",
"72 0 LINE"
);
}
);
width = 441;
},
{
anchors = (
{
name = top;
position = "{305, 711}";
}
);
associatedMasterId = "4E2227F3-52E4-4048-A8EE-327B486EF0A4";
layerId = "AF700569-CAED-4344-924C-FF7EDA896D2F";
name = "{100,5}";
paths = (
{
closed = 1;
nodes = (
"173 0 LINE",
"172 490 LINE",
"433 0 LINE",
"529 0 LINE",
"529 700 LINE",
"430 700 LINE",
"431 207 LINE",
"170 700 LINE",
"74 700 LINE",
"74 0 LINE"
);
}
);
width = 603;
},
{
anchors = (
{
name = top;
position = "{241, 711}";
}
);
associatedMasterId = "4E2227F3-52E4-4048-A8EE-327B486EF0A4";
layerId = "42C43E0D-C6E2-494E-A0C1-A4C56C6C4E84";
name = "{100,3}";
paths = (
{
closed = 1;
nodes = (
"149 0 LINE",
"148 467 LINE",
"325 0 LINE",
"431 0 LINE",
"431 700 LINE",
"332 700 LINE",
"333 234 LINE",
"154 700 LINE",
"50 700 LINE",
"50 0 LINE"
);
}
);
width = 481;
}
);
leftKerningGroup = H;
rightKerningGroup = H;
unicode = 004E;
},
{
glyphname = O;
lastChange = "2017-03-24 06:11:59 +0000";
layers = (
{
anchors = (
{
name = top;
position = "{254, 708}";
}
);
hints = (
{
origin = "{0, 9}";
target = "{1, 3}";
},
{
horizontal = 1;
origin = "{0, 6}";
target = "{1, 6}";
},
{
origin = "{1, 9}";
target = "{0, 3}";
},
{
horizontal = 1;
origin = "{0, 13}";
target = "{1, 13}";
}
);
layerId = "262880E7-CFE1-4BDA-902E-E24798F3240A";
paths = (
{
closed = 1;
nodes = (
"375 -7 OFFCURVE",
"456 77 OFFCURVE",
"456 190 CURVE SMOOTH",
"456 509 LINE SMOOTH",
"456 623 OFFCURVE",
"375 708 OFFCURVE",
"254 708 CURVE SMOOTH",
"133 708 OFFCURVE",
"54 623 OFFCURVE",
"54 509 CURVE SMOOTH",
"54 190 LINE SMOOTH",
"54 77 OFFCURVE",
"133 -7 OFFCURVE",
"254 -7 CURVE SMOOTH"
);
},
{
closed = 1;
nodes = (
"147 13 OFFCURVE",
"76 89 OFFCURVE",
"76 189 CURVE SMOOTH",
"76 510 LINE SMOOTH",
"76 610 OFFCURVE",
"147 687 OFFCURVE",
"254 687 CURVE SMOOTH",
"362 687 OFFCURVE",
"434 610 OFFCURVE",
"434 510 CURVE SMOOTH",
"434 189 LINE SMOOTH",
"434 89 OFFCURVE",
"362 13 OFFCURVE",
"254 13 CURVE SMOOTH"
);
}
);
width = 510;
},
{
anchors = (
{
name = top;
position = "{234, 708}";
}
);
layerId = "4E2227F3-52E4-4048-A8EE-327B486EF0A4";
paths = (
{
closed = 1;
nodes = (
"368 -8 OFFCURVE",
"456 75 OFFCURVE",
"456 206 CURVE SMOOTH",
"456 494 LINE SMOOTH",
"456 625 OFFCURVE",
"368 708 OFFCURVE",
"234 708 CURVE SMOOTH",
"99 708 OFFCURVE",
"12 625 OFFCURVE",
"12 494 CURVE SMOOTH",
"12 206 LINE SMOOTH",
"12 75 OFFCURVE",
"99 -8 OFFCURVE",
"234 -8 CURVE SMOOTH"
);
},
{
closed = 1;
nodes = (
"212 153 OFFCURVE",
"200 171 OFFCURVE",
"200 198 CURVE SMOOTH",
"200 502 LINE SMOOTH",
"200 529 OFFCURVE",
"212 547 OFFCURVE",
"234 547 CURVE SMOOTH",
"256 547 OFFCURVE",
"268 529 OFFCURVE",
"268 502 CURVE SMOOTH",
"268 198 LINE SMOOTH",
"268 171 OFFCURVE",
"256 153 OFFCURVE",
"234 153 CURVE SMOOTH"
);
}
);
width = 468;
},
{
anchors = (
{
name = top;
position = "{278, 708}";
}
);
guideLines = (
{
position = "{278, 613}";
},
{
position = "{275, 360}";
},
{
position = "{278, 87}";
}
);
layerId = "FFFA8D72-12AC-4CE0-B2CA-57A29829F4DA";
paths = (
{
closed = 1;
nodes = (
"436 -12 OFFCURVE",
"539 87 OFFCURVE",
"539 236 CURVE SMOOTH",
"539 464 LINE SMOOTH",
"539 613 OFFCURVE",
"436 708 OFFCURVE",
"278 708 CURVE SMOOTH",
"120 708 OFFCURVE",
"18 613 OFFCURVE",
"18 464 CURVE SMOOTH",
"18 236 LINE SMOOTH",
"18 87 OFFCURVE",
"120 -12 OFFCURVE",
"278 -12 CURVE SMOOTH"
);
},
{
closed = 1;
nodes = (
"233 149 OFFCURVE",
"206 180 OFFCURVE",
"206 230 CURVE SMOOTH",
"206 466 LINE SMOOTH",
"206 516 OFFCURVE",
"233 547 OFFCURVE",
"278 547 CURVE SMOOTH",
"323 547 OFFCURVE",
"351 516 OFFCURVE",
"351 466 CURVE SMOOTH",
"351 230 LINE SMOOTH",
"351 180 OFFCURVE",
"323 149 OFFCURVE",
"278 149 CURVE SMOOTH"
);
}
);
width = 557;
},
{
anchors = (
{
name = top;
position = "{187, 699}";
}
);
layerId = "DCBE1F7B-116A-43E0-B7B4-8657BA77D8B5";
paths = (
{
closed = 1;
nodes = (
"277 -8 OFFCURVE",
"340 56 OFFCURVE",
"340 150 CURVE SMOOTH",
"340 549 LINE SMOOTH",
"340 643 OFFCURVE",
"277 708 OFFCURVE",
"187 708 CURVE SMOOTH",
"98 708 OFFCURVE",
"36 643 OFFCURVE",
"36 549 CURVE SMOOTH",
"36 150 LINE SMOOTH",
"36 56 OFFCURVE",
"98 -8 OFFCURVE",
"187 -8 CURVE SMOOTH"
);
},
{
closed = 1;
nodes = (
"111 13 OFFCURVE",
"58 69 OFFCURVE",
"58 149 CURVE SMOOTH",
"58 550 LINE SMOOTH",
"58 631 OFFCURVE",
"111 687 OFFCURVE",
"187 687 CURVE SMOOTH",
"264 687 OFFCURVE",
"318 631 OFFCURVE",
"318 550 CURVE SMOOTH",
"318 149 LINE SMOOTH",
"318 69 OFFCURVE",
"264 13 OFFCURVE",
"187 13 CURVE SMOOTH"
);
}
);
width = 376;
}
);
leftKerningGroup = O;
rightKerningGroup = C;
unicode = 004F;
},
{
color = 3;
glyphname = Oslash;
lastChange = "2017-03-24 06:13:37 +0000";
layers = (
{
components = (
{
name = O;
transform = "{1, 0, 0, 1, 13, 0}";
}
);
layerId = "262880E7-CFE1-4BDA-902E-E24798F3240A";
paths = (
{
closed = 1;
nodes = (
"96 -21 LINE",
"116 -30 LINE",
"443 730 LINE",
"423 739 LINE"
);
}
);
width = 536;
},
{
components = (
{
name = O;
}
);
layerId = "FFFA8D72-12AC-4CE0-B2CA-57A29829F4DA";
paths = (
{
closed = 1;
nodes = (
"63 10 LINE",
"121 -30 LINE",
"497 690 LINE",
"439 730 LINE"
);
}
);
width = 549;
},
{
components = (
{
name = O;
transform = "{1, 0, 0, 1, 18, 0}";
}
);
layerId = "DCBE1F7B-116A-43E0-B7B4-8657BA77D8B5";
paths = (
{
closed = 1;
nodes = (
"44 -21 LINE",
"64 -30 LINE",
"365 730 LINE",
"345 739 LINE"
);
}
);
width = 412;
},
{
components = (
{
name = O;
}
);
layerId = "4E2227F3-52E4-4048-A8EE-327B486EF0A4";
paths = (
{
closed = 1;
nodes = (
"39 0 LINE",
"101 -30 LINE",
"432 700 LINE",
"369 730 LINE"
);
}
);
width = 462;
},
{
associatedMasterId = "FFFA8D72-12AC-4CE0-B2CA-57A29829F4DA";
components = (
{
name = O;
transform = "{1, 0, 0, 1, 17, 0}";
}
);
layerId = "160CDC3E-1151-4942-8EC5-A5A167ED0AB4";
name = "{100,3}";
paths = (
{
closed = 1;
nodes = (
"46 -16 LINE",
"103 -44 LINE",
"431 721 LINE",
"373 748 LINE"
);
}
);
width = 587;
},
{
associatedMasterId = "FFFA8D72-12AC-4CE0-B2CA-57A29829F4DA";
components = (
{
name = O;
transform = "{1, 0, 0, 1, 26, 0}";
}
);
layerId = "ED17B6D4-A8AE-40B6-9381-1DD3D326EE5F";
name = "{100,5}";
paths = (
{
closed = 1;
nodes = (
"78 -11 LINE",
"133 -44 LINE",
"518 715 LINE",
"463 749 LINE"
);
}
);
width = 605;
}
);
unicode = 00D8;
},
{
glyphname = P;
lastChange = "2017-03-24 06:11:59 +0000";
layers = (
{
hints = (
{
horizontal = 1;
origin = "{0, 17}";
target = "{0, 2}";
},
{
origin = "{0, 5}";
target = "{0, 14}";
},
{
horizontal = 1;
origin = "{0, 11}";
target = "{0, 8}";
},
{
origin = "{0, 18}";
target = "{0, 1}";
}
);
layerId = "262880E7-CFE1-4BDA-902E-E24798F3240A";
paths = (
{
closed = 1;
nodes = (
"130 0 LINE",
"130 681 LINE",
"318 681 LINE SMOOTH",
"410 681 OFFCURVE",
"472 617 OFFCURVE",
"472 520 CURVE SMOOTH",
"472 425 OFFCURVE",
"410 361 OFFCURVE",
"318 361 CURVE SMOOTH",
"125 361 LINE",
"125 340 LINE",
"316 340 LINE SMOOTH",
"423 340 OFFCURVE",
"494 411 OFFCURVE",
"494 520 CURVE SMOOTH",
"494 629 OFFCURVE",
"423 702 OFFCURVE",
"316 702 CURVE SMOOTH",
"108 702 LINE",
"108 0 LINE"
);
}
);
width = 575;
},
{
layerId = "4E2227F3-52E4-4048-A8EE-327B486EF0A4";
paths = (
{
closed = 1;
nodes = (
"212 0 LINE",
"212 539 LINE",
"231 539 LINE SMOOTH",
"260 539 OFFCURVE",
"281 517 OFFCURVE",
"281 471 CURVE SMOOTH",
"281 426 OFFCURVE",
"260 405 OFFCURVE",
"231 405 CURVE SMOOTH",
"196 405 LINE",
"196 260 LINE",
"274 260 LINE SMOOTH",
"390 260 OFFCURVE",
"469 345 OFFCURVE",
"469 475 CURVE SMOOTH",
"469 608 OFFCURVE",
"386 700 OFFCURVE",
"264 700 CURVE SMOOTH",
"24 700 LINE",
"24 0 LINE"
);
}
);
width = 487;
},
{
layerId = "FFFA8D72-12AC-4CE0-B2CA-57A29829F4DA";
paths = (
{
closed = 1;
nodes = (
"224 0 LINE",
"224 539 LINE",
"283 539 LINE SMOOTH",
"331 539 OFFCURVE",
"365 517 OFFCURVE",
"365 471 CURVE SMOOTH",
"365 426 OFFCURVE",
"331 405 OFFCURVE",
"283 405 CURVE SMOOTH",
"207 405 LINE",
"207 255 LINE",
"305 255 LINE SMOOTH",
"441 255 OFFCURVE",
"552 342 OFFCURVE",
"552 475 CURVE SMOOTH",
"552 608 OFFCURVE",
"456 700 OFFCURVE",
"314 700 CURVE SMOOTH",
"36 700 LINE",
"36 0 LINE"
);
}
);
width = 579;
},
{
layerId = "DCBE1F7B-116A-43E0-B7B4-8657BA77D8B5";
paths = (
{
closed = 1;
nodes = (
"94 0 LINE",
"94 681 LINE",
"220 681 LINE SMOOTH",
"294 681 OFFCURVE",
"343 617 OFFCURVE",
"343 520 CURVE SMOOTH",
"343 425 OFFCURVE",
"294 361 OFFCURVE",
"220 361 CURVE SMOOTH",
"90 361 LINE",
"90 340 LINE",
"220 340 LINE SMOOTH",
"307 340 OFFCURVE",
"365 412 OFFCURVE",
"365 520 CURVE SMOOTH",
"365 629 OFFCURVE",
"307 702 OFFCURVE",
"220 702 CURVE SMOOTH",
"72 702 LINE",
"72 0 LINE"
);
}
);
width = 419;
}
);
leftKerningGroup = H;
rightKerningGroup = P;
unicode = 0050;
},
{
glyphname = Q;
lastChange = "2017-03-24 06:12:27 +0000";
layers = (
{
hints = (
{
horizontal = 1;
origin = "{2, 6}";
target = "{1, 6}";
},
{
origin = "{2, 9}";
target = "{1, 3}";
},
{
origin = "{1, 9}";
target = "{2, 3}";
},
{
horizontal = 1;
origin = "{2, 13}";
target = "{1, 13}";
}
);
layerId = "262880E7-CFE1-4BDA-902E-E24798F3240A";
paths = (
{
closed = 1;
nodes = (
"257 -127 LINE",
"257 0 LINE",
"235 0 LINE",
"235 -127 LINE"
);
},
{
closed = 1;
nodes = (
"143 13 OFFCURVE",
"76 80 OFFCURVE",
"76 180 CURVE SMOOTH",
"76 520 LINE SMOOTH",
"76 620 OFFCURVE",
"143 687 OFFCURVE",
"246 687 CURVE SMOOTH",
"348 687 OFFCURVE",
"416 620 OFFCURVE",
"416 520 CURVE SMOOTH",
"416 180 LINE SMOOTH",
"416 80 OFFCURVE",
"348 13 OFFCURVE",
"246 13 CURVE SMOOTH"
);
},
{
closed = 1;
nodes = (
"361 -8 OFFCURVE",
"438 67 OFFCURVE",
"438 181 CURVE SMOOTH",
"438 519 LINE SMOOTH",
"438 633 OFFCURVE",
"361 708 OFFCURVE",
"246 708 CURVE SMOOTH",
"130 708 OFFCURVE",
"54 633 OFFCURVE",
"54 519 CURVE SMOOTH",
"54 181 LINE SMOOTH",
"54 67 OFFCURVE",
"130 -8 OFFCURVE",
"246 -8 CURVE SMOOTH"
);
}
);
width = 510;
},
{
layerId = "4E2227F3-52E4-4048-A8EE-327B486EF0A4";
paths = (
{
closed = 1;
nodes = (
"322 -87 LINE",
"322 113 LINE",
"134 113 LINE",
"134 -87 LINE"
);
},
{
closed = 1;
nodes = (
"211 153 OFFCURVE",
"200 170 OFFCURVE",
"200 195 CURVE SMOOTH",
"200 505 LINE SMOOTH",
"200 530 OFFCURVE",
"211 547 OFFCURVE",
"228 547 CURVE SMOOTH",
"246 547 OFFCURVE",
"257 530 OFFCURVE",
"257 505 CURVE SMOOTH",
"257 195 LINE SMOOTH",
"257 170 OFFCURVE",
"246 153 OFFCURVE",
"228 153 CURVE SMOOTH"
);
},
{
closed = 1;
nodes = (
"359 -8 OFFCURVE",
"445 81 OFFCURVE",
"445 215 CURVE SMOOTH",
"445 485 LINE SMOOTH",
"445 619 OFFCURVE",
"359 708 OFFCURVE",
"228 708 CURVE SMOOTH",
"98 708 OFFCURVE",
"12 619 OFFCURVE",
"12 485 CURVE SMOOTH",
"12 215 LINE SMOOTH",
"12 81 OFFCURVE",
"98 -8 OFFCURVE",
"228 -8 CURVE SMOOTH"
);
}
);
width = 468;
},
{
layerId = "FFFA8D72-12AC-4CE0-B2CA-57A29829F4DA";
paths = (
{
closed = 1;
nodes = (
"365 -87 LINE",
"365 113 LINE",
"177 113 LINE",
"177 -87 LINE"
);
},
{
closed = 1;
nodes = (
"232 153 OFFCURVE",
"206 184 OFFCURVE",
"206 230 CURVE SMOOTH",
"206 470 LINE SMOOTH",
"206 516 OFFCURVE",
"232 547 OFFCURVE",
"270 547 CURVE SMOOTH",
"309 547 OFFCURVE",
"335 516 OFFCURVE",
"335 470 CURVE SMOOTH",
"335 230 LINE SMOOTH",
"335 184 OFFCURVE",
"309 153 OFFCURVE",
"270 153 CURVE SMOOTH"
);
},
{
closed = 1;
nodes = (
"421 -8 OFFCURVE",
"523 85 OFFCURVE",
"523 225 CURVE SMOOTH",
"523 460 LINE SMOOTH",
"523 612 OFFCURVE",
"421 708 OFFCURVE",
"270 708 CURVE SMOOTH",
"119 708 OFFCURVE",
"18 612 OFFCURVE",
"18 460 CURVE SMOOTH",
"18 225 LINE SMOOTH",
"18 85 OFFCURVE",
"119 -8 OFFCURVE",
"270 -8 CURVE SMOOTH"
);
}
);
width = 557;
},
{
layerId = "DCBE1F7B-116A-43E0-B7B4-8657BA77D8B5";
paths = (
{
closed = 1;
nodes = (
"193 -127 LINE",
"193 0 LINE",
"170 0 LINE",
"170 -127 LINE"
);
},
{
closed = 1;
nodes = (
"109 13 OFFCURVE",
"58 69 OFFCURVE",
"58 150 CURVE SMOOTH",
"58 550 LINE SMOOTH",
"58 631 OFFCURVE",
"109 687 OFFCURVE",
"182 687 CURVE SMOOTH",
"255 687 OFFCURVE",
"305 631 OFFCURVE",
"305 550 CURVE SMOOTH",
"305 150 LINE SMOOTH",
"305 69 OFFCURVE",
"255 13 OFFCURVE",
"182 13 CURVE SMOOTH"
);
},
{
closed = 1;
nodes = (
"268 -8 OFFCURVE",
"327 57 OFFCURVE",
"327 151 CURVE SMOOTH",
"327 549 LINE SMOOTH",
"327 643 OFFCURVE",
"268 708 OFFCURVE",
"182 708 CURVE SMOOTH",
"96 708 OFFCURVE",
"36 643 OFFCURVE",
"36 549 CURVE SMOOTH",
"36 151 LINE SMOOTH",
"36 57 OFFCURVE",
"96 -8 OFFCURVE",
"182 -8 CURVE SMOOTH"
);
}
);
width = 376;
}
);
leftKerningGroup = C;
unicode = 0051;
},
{
glyphname = R;
lastChange = "2017-03-24 06:11:59 +0000";
layers = (
{
hints = (
{
horizontal = 1;
origin = "{0, 18}";
target = "{0, 1}";
},
{
horizontal = 1;
origin = "{0, 10}";
target = "{0, 9}";
},
{
origin = "{0, 19}";
target = "{0, 0}";
},
{
place = "{458, 0}";
},
{
place = "{445, 0}";
}
);
layerId = "262880E7-CFE1-4BDA-902E-E24798F3240A";
paths = (
{
closed = 1;
nodes = (
"130 0 LINE",
"130 681 LINE",
"318 681 LINE SMOOTH",
"410 681 OFFCURVE",
"472 617 OFFCURVE",
"472 522 CURVE SMOOTH",
"472 429 OFFCURVE",
"410 365 OFFCURVE",
"318 365 CURVE SMOOTH",
"125 365 LINE",
"125 344 LINE",
"316 344 LINE SMOOTH",
"423 344 OFFCURVE",
"494 415 OFFCURVE",
"494 522 CURVE SMOOTH",
"494 629 OFFCURVE",
"423 702 OFFCURVE",
"316 702 CURVE SMOOTH",
"108 702 LINE",
"108 0 LINE"
);
},
{
closed = 1;
nodes = (
"507 0 LINE",
"334 355 LINE",
"316 347 LINE",
"486 0 LINE"
);
}
);
width = 561;
},
{
layerId = "4E2227F3-52E4-4048-A8EE-327B486EF0A4";
paths = (
{
closed = 1;
nodes = (
"212 0 LINE",
"212 539 LINE",
"231 539 LINE SMOOTH",
"260 539 OFFCURVE",
"281 518 OFFCURVE",
"281 475 CURVE SMOOTH",
"281 434 OFFCURVE",
"260 412 OFFCURVE",
"231 412 CURVE SMOOTH",
"196 412 LINE",
"196 269 LINE",
"274 269 LINE SMOOTH",
"390 269 OFFCURVE",
"469 352 OFFCURVE",
"469 477 CURVE SMOOTH",
"469 608 OFFCURVE",
"386 700 OFFCURVE",
"264 700 CURVE SMOOTH",
"24 700 LINE",
"24 0 LINE"
);
},
{
closed = 1;
nodes = (
"478 0 LINE",
"379 349 LINE",
"200 349 LINE",
"284 0 LINE"
);
}
);
width = 490;
},
{
layerId = "FFFA8D72-12AC-4CE0-B2CA-57A29829F4DA";
paths = (
{
closed = 1;
nodes = (
"224 0 LINE",
"224 539 LINE",
"293 539 LINE SMOOTH",
"336 539 OFFCURVE",
"365 513 OFFCURVE",
"365 475 CURVE SMOOTH",
"365 437 OFFCURVE",
"336 412 OFFCURVE",
"293 412 CURVE SMOOTH",
"207 412 LINE",
"207 269 LINE",
"324 269 LINE SMOOTH",
"461 269 OFFCURVE",
"552 352 OFFCURVE",
"552 477 CURVE SMOOTH",
"552 611 OFFCURVE",
"461 700 OFFCURVE",
"324 700 CURVE SMOOTH",
"36 700 LINE",
"36 0 LINE"
);
},
{
closed = 1;
nodes = (
"562 0 LINE",
"425 349 LINE",
"240 349 LINE",
"362 0 LINE"
);
}
);
width = 580;
},
{
layerId = "DCBE1F7B-116A-43E0-B7B4-8657BA77D8B5";
paths = (
{
closed = 1;
nodes = (
"94 0 LINE",
"94 681 LINE",
"220 681 LINE SMOOTH",
"294 681 OFFCURVE",
"343 617 OFFCURVE",
"343 522 CURVE SMOOTH",
"343 428 OFFCURVE",
"294 365 OFFCURVE",
"220 365 CURVE SMOOTH",
"90 365 LINE",
"90 344 LINE",
"220 344 LINE SMOOTH",
"307 344 OFFCURVE",
"365 415 OFFCURVE",
"365 522 CURVE SMOOTH",
"365 630 OFFCURVE",
"307 702 OFFCURVE",
"220 702 CURVE SMOOTH",
"72 702 LINE",
"72 0 LINE"
);
},
{
closed = 1;
nodes = (
"370 0 LINE",
"239 353 LINE",
"220 345 LINE",
"348 0 LINE"
);
}
);
width = 406;
}
);
rightKerningGroup = R;
unicode = 0052;
},
{
glyphname = S;
lastChange = "2017-03-24 06:11:59 +0000";
layers = (
{
anchors = (
{
name = top;
position = "{258, 708}";
}
);
hints = (
{
horizontal = 1;
origin = "{0, 20}";
target = "{0, 11}";
},
{
origin = "{0, 23}";
target = "{0, 8}";
},
{
origin = "{0, 29}";
target = "{0, 2}";
},
{
origin = "{0, 14}";
target = "{0, 17}";
},
{
horizontal = 1;
origin = "{0, 41}";
target = "{0, 32}";
},
{
origin = "{0, 37}";
target = "{0, 36}";
}
);
layerId = "262880E7-CFE1-4BDA-902E-E24798F3240A";
paths = (
{
closed = 1;
nodes = (
"385 -8 OFFCURVE",
"468 61 OFFCURVE",
"468 161 CURVE SMOOTH",
"468 257 OFFCURVE",
"392 301 OFFCURVE",
"271 371 CURVE SMOOTH",
"164 433 OFFCURVE",
"98 456 OFFCURVE",
"98 549 CURVE SMOOTH",
"98 639 OFFCURVE",
"162 687 OFFCURVE",
"258 687 CURVE SMOOTH",
"368 687 OFFCURVE",
"439 625 OFFCURVE",
"439 533 CURVE SMOOTH",
"439 500 LINE",
"461 500 LINE",
"461 535 LINE SMOOTH",
"461 639 OFFCURVE",
"383 708 OFFCURVE",
"261 708 CURVE SMOOTH",
"150 708 OFFCURVE",
"77 652 OFFCURVE",
"77 548 CURVE SMOOTH",
"77 444 OFFCURVE",
"150 412 OFFCURVE",
"256 351 CURVE SMOOTH",
"397 270 OFFCURVE",
"446 231 OFFCURVE",
"446 159 CURVE SMOOTH",
"446 71 OFFCURVE",
"373 13 OFFCURVE",
"265 13 CURVE SMOOTH",
"154 13 OFFCURVE",
"83 74 OFFCURVE",
"83 166 CURVE SMOOTH",
"83 210 LINE",
"63 210 LINE",
"63 164 LINE SMOOTH",
"63 60 OFFCURVE",
"142 -8 OFFCURVE",
"263 -8 CURVE SMOOTH"
);
}
);
width = 540;
},
{
anchors = (
{
name = top;
position = "{227, 708}";
}
);
layerId = "4E2227F3-52E4-4048-A8EE-327B486EF0A4";
paths = (
{
closed = 1;
nodes = (
"358 -8 OFFCURVE",
"445 70 OFFCURVE",
"445 187 CURVE SMOOTH",
"445 287 OFFCURVE",
"384 338 OFFCURVE",
"279 412 CURVE SMOOTH",
"216 457 OFFCURVE",
"199 479 OFFCURVE",
"199 509 CURVE SMOOTH",
"199 533 OFFCURVE",
"210 547 OFFCURVE",
"227 547 CURVE SMOOTH",
"244 547 OFFCURVE",
"256 533 OFFCURVE",
"256 513 CURVE SMOOTH",
"256 472 LINE",
"441 472 LINE",
"441 509 LINE SMOOTH",
"441 628 OFFCURVE",
"356 708 OFFCURVE",
"227 708 CURVE SMOOTH",
"99 708 OFFCURVE",
"14 628 OFFCURVE",
"14 510 CURVE SMOOTH",
"14 387 OFFCURVE",
"105 322 OFFCURVE",
"177 272 CURVE SMOOTH",
"247 224 OFFCURVE",
"260 206 OFFCURVE",
"260 185 CURVE SMOOTH",
"260 166 OFFCURVE",
"248 153 OFFCURVE",
"232 153 CURVE SMOOTH",
"216 153 OFFCURVE",
"204 167 OFFCURVE",
"204 189 CURVE SMOOTH",
"204 229 LINE",
"18 229 LINE",
"18 180 LINE SMOOTH",
"18 70 OFFCURVE",
"102 -8 OFFCURVE",
"231 -8 CURVE SMOOTH"
);
}
);
width = 461;
},
{
anchors = (
{
name = top;
position = "{262, 708}";
}
);
layerId = "FFFA8D72-12AC-4CE0-B2CA-57A29829F4DA";
paths = (
{
closed = 1;
nodes = (
"399 -8 OFFCURVE",
"509 54 OFFCURVE",
"509 195 CURVE SMOOTH",
"509 259 OFFCURVE",
"486 340 OFFCURVE",
"327 418 CURVE SMOOTH",
"255 453 OFFCURVE",
"206 465 OFFCURVE",
"206 503 CURVE SMOOTH",
"206 529 OFFCURVE",
"228 547 OFFCURVE",
"262 547 CURVE SMOOTH",
"301 547 OFFCURVE",
"320 524 OFFCURVE",
"320 488 CURVE SMOOTH",
"320 466 LINE",
"505 466 LINE",
"505 509 LINE SMOOTH",
"505 628 OFFCURVE",
"407 708 OFFCURVE",
"263 708 CURVE SMOOTH",
"118 708 OFFCURVE",
"21 628 OFFCURVE",
"21 499 CURVE SMOOTH",
"21 394 OFFCURVE",
"85 346 OFFCURVE",
"184 300 CURVE SMOOTH",
"286 253 OFFCURVE",
"324 234 OFFCURVE",
"324 199 CURVE SMOOTH",
"324 171 OFFCURVE",
"301 153 OFFCURVE",
"269 153 CURVE SMOOTH",
"232 153 OFFCURVE",
"211 177 OFFCURVE",
"211 210 CURVE SMOOTH",
"211 236 LINE",
"22 236 LINE",
"25 180 LINE SMOOTH",
"31 69 OFFCURVE",
"117 -8 OFFCURVE",
"266 -8 CURVE SMOOTH"
);
}
);
width = 533;
},
{
anchors = (
{
name = top;
position = "{183, 708}";
}
);
layerId = "DCBE1F7B-116A-43E0-B7B4-8657BA77D8B5";
paths = (
{
closed = 1;
nodes = (
"275 -8 OFFCURVE",
"337 60 OFFCURVE",
"337 166 CURVE SMOOTH",
"337 257 OFFCURVE",
"292 294 OFFCURVE",
"192 369 CURVE SMOOTH",
"105 434 OFFCURVE",
"64 469 OFFCURVE",
"64 549 CURVE SMOOTH",
"64 640 OFFCURVE",
"116 688 OFFCURVE",
"183 688 CURVE SMOOTH",
"258 688 OFFCURVE",
"309 627 OFFCURVE",
"309 534 CURVE SMOOTH",
"309 500 LINE",
"331 500 LINE",
"331 535 LINE SMOOTH",
"331 639 OFFCURVE",
"272 708 OFFCURVE",
"183 708 CURVE SMOOTH",
"103 708 OFFCURVE",
"42 652 OFFCURVE",
"42 551 CURVE SMOOTH",
"42 453 OFFCURVE",
"98 409 OFFCURVE",
"180 347 CURVE SMOOTH",
"258 288 OFFCURVE",
"315 250 OFFCURVE",
"315 159 CURVE SMOOTH",
"315 70 OFFCURVE",
"260 12 OFFCURVE",
"188 12 CURVE SMOOTH",
"115 12 OFFCURVE",
"63 72 OFFCURVE",
"63 165 CURVE SMOOTH",
"63 192 LINE",
"42 192 LINE",
"42 164 LINE SMOOTH",
"42 60 OFFCURVE",
"103 -8 OFFCURVE",
"189 -8 CURVE SMOOTH"
);
}
);
width = 385;
}
);
leftKerningGroup = S;
rightKerningGroup = S;
unicode = 0053;
},
{
glyphname = T;
lastChange = "2017-03-24 06:11:59 +0000";
layers = (
{
hints = (
{
horizontal = 1;
origin = "{1, 2}";
target = "{1, 3}";
},
{
origin = "{0, 3}";
target = "{0, 0}";
}
);
layerId = "262880E7-CFE1-4BDA-902E-E24798F3240A";
paths = (
{
closed = 1;
nodes = (
"238 0 LINE",
"238 689 LINE",
"216 689 LINE",
"216 0 LINE"
);
},
{
closed = 1;
nodes = (
"437 679 LINE",
"437 700 LINE",
"27 700 LINE",
"27 679 LINE"
);
}
);
width = 464;
},
{
layerId = "4E2227F3-52E4-4048-A8EE-327B486EF0A4";
paths = (
{
closed = 1;
nodes = (
"330 0 LINE",
"330 689 LINE",
"142 689 LINE",
"142 0 LINE"
);
},
{
closed = 1;
nodes = (
"469 539 LINE",
"469 700 LINE",
"6 700 LINE",
"6 539 LINE"
);
}
);
width = 475;
},
{
layerId = "FFFA8D72-12AC-4CE0-B2CA-57A29829F4DA";
paths = (
{
closed = 1;
nodes = (
"370 0 LINE",
"370 689 LINE",
"182 689 LINE",
"182 0 LINE"
);
},
{
closed = 1;
nodes = (
"548 538 LINE",
"548 700 LINE",
"9 700 LINE",
"9 538 LINE"
);
}
);
width = 557;
},
{
layerId = "DCBE1F7B-116A-43E0-B7B4-8657BA77D8B5";
paths = (
{
closed = 1;
nodes = (
"180 0 LINE",
"180 689 LINE",
"158 689 LINE",
"158 0 LINE"
);
},
{
closed = 1;
nodes = (
"329 679 LINE",
"329 700 LINE",
"18 700 LINE",
"18 679 LINE"
);
}
);
width = 347;
}
);
leftKerningGroup = T;
rightKerningGroup = T;
unicode = 0054;
},
{
glyphname = U;
lastChange = "2017-03-24 06:11:59 +0000";
layers = (
{
anchors = (
{
name = top;
position = "{301, 712}";
}
);
hints = (
{
horizontal = 1;
origin = "{0, 17}";
target = "{0, 8}";
},
{
origin = "{0, 5}";
target = "{0, 2}";
},
{
origin = "{0, 14}";
target = "{0, 11}";
}
);
layerId = "262880E7-CFE1-4BDA-902E-E24798F3240A";
paths = (
{
closed = 1;
nodes = (
"422 -8 OFFCURVE",
"504 69 OFFCURVE",
"504 185 CURVE SMOOTH",
"504 700 LINE",
"482 700 LINE",
"482 182 LINE SMOOTH",
"482 81 OFFCURVE",
"409 13 OFFCURVE",
"301 13 CURVE SMOOTH",
"192 13 OFFCURVE",
"121 81 OFFCURVE",
"121 182 CURVE SMOOTH",
"121 700 LINE",
"99 700 LINE",
"99 185 LINE SMOOTH",
"99 69 OFFCURVE",
"180 -8 OFFCURVE",
"301 -8 CURVE SMOOTH"
);
}
);
width = 603;
},
{
anchors = (
{
name = top;
position = "{239, 713}";
}
);
layerId = "4E2227F3-52E4-4048-A8EE-327B486EF0A4";
paths = (
{
closed = 1;
nodes = (
"369 -8 OFFCURVE",
"455 78 OFFCURVE",
"455 208 CURVE SMOOTH",
"455 700 LINE",
"267 700 LINE",
"267 190 LINE SMOOTH",
"267 168 OFFCURVE",
"256 153 OFFCURVE",
"239 153 CURVE SMOOTH",
"221 153 OFFCURVE",
"210 168 OFFCURVE",
"210 190 CURVE SMOOTH",
"210 700 LINE",
"22 700 LINE",
"22 208 LINE SMOOTH",
"22 78 OFFCURVE",
"108 -8 OFFCURVE",
"239 -8 CURVE SMOOTH"
);
}
);
width = 477;
},
{
anchors = (
{
name = top;
position = "{287, 713}";
}
);
layerId = "FFFA8D72-12AC-4CE0-B2CA-57A29829F4DA";
paths = (
{
closed = 1;
nodes = (
"439 -8 OFFCURVE",
"541 81 OFFCURVE",
"541 223 CURVE SMOOTH",
"541 700 LINE",
"353 700 LINE",
"353 223 LINE SMOOTH",
"353 183 OFFCURVE",
"327 153 OFFCURVE",
"287 153 CURVE SMOOTH",
"247 153 OFFCURVE",
"220 183 OFFCURVE",
"220 223 CURVE SMOOTH",
"220 700 LINE",
"32 700 LINE",
"32 223 LINE SMOOTH",
"32 81 OFFCURVE",
"134 -8 OFFCURVE",
"287 -8 CURVE SMOOTH"
);
}
);
width = 573;
},
{
anchors = (
{
name = top;
position = "{218, 710}";
}
);
layerId = "DCBE1F7B-116A-43E0-B7B4-8657BA77D8B5";
paths = (
{
closed = 1;
nodes = (
"310 -8 OFFCURVE",
"372 65 OFFCURVE",
"372 175 CURVE SMOOTH",
"372 700 LINE",
"350 700 LINE",
"350 172 LINE SMOOTH",
"350 77 OFFCURVE",
"297 13 OFFCURVE",
"218 13 CURVE SMOOTH",
"140 13 OFFCURVE",
"88 77 OFFCURVE",
"88 172 CURVE SMOOTH",
"88 700 LINE",
"66 700 LINE",
"66 175 LINE SMOOTH",
"66 65 OFFCURVE",
"127 -8 OFFCURVE",
"218 -8 CURVE SMOOTH"
);
}
);
width = 438;
}
);
rightKerningGroup = U;
unicode = 0055;
},
{
glyphname = V;
lastChange = "2017-03-24 06:11:59 +0000";
layers = (
{
hints = (
{
origin = "{0, 6}";
target = "{0, 0}";
},
{
origin = "{0, 5}";
target = "{0, 4}";
},
{
origin = "{0, 2}";
target = "{0, 1}";
}
);
layerId = "262880E7-CFE1-4BDA-902E-E24798F3240A";
paths = (
{
closed = 1;
nodes = (
"262 0 LINE",
"476 700 LINE",
"455 700 LINE",
"251 33 LINE",
"49 700 LINE",
"27 700 LINE",
"240 0 LINE"
);
}
);
width = 503;
},
{
layerId = "4E2227F3-52E4-4048-A8EE-327B486EF0A4";
paths = (
{
closed = 1;
nodes = (
"355 0 LINE",
"503 700 LINE",
"305 700 LINE",
"259 305 LINE",
"209 700 LINE",
"6 700 LINE",
"152 0 LINE"
);
}
);
width = 509;
},
{
layerId = "FFFA8D72-12AC-4CE0-B2CA-57A29829F4DA";
paths = (
{
closed = 1;
nodes = (
"386 0 LINE",
"570 700 LINE",
"372 700 LINE",
"293 258 LINE",
"211 700 LINE",
"9 700 LINE",
"191 0 LINE"
);
}
);
width = 579;
},
{
layerId = "DCBE1F7B-116A-43E0-B7B4-8657BA77D8B5";
paths = (
{
closed = 1;
nodes = (
"190 0 LINE",
"339 700 LINE",
"317 700 LINE",
"179 42 LINE",
"41 700 LINE",
"18 700 LINE",
"168 0 LINE"
);
}
);
width = 357;
}
);
leftKerningGroup = V;
rightKerningGroup = V;
unicode = 0056;
},
{
glyphname = W;
lastChange = "2017-03-24 06:13:37 +0000";
layers = (
{
hints = (
{
origin = "{0, 11}";
target = "{0, 10}";
},
{
origin = "{0, 12}";
target = "{0, 0}";
},
{
origin = "{0, 8}";
target = "{0, 7}";
},
{
origin = "{0, 2}";
target = "{0, 3}";
},
{
origin = "{0, 5}";
target = "{0, 4}";
}
);
layerId = "262880E7-CFE1-4BDA-902E-E24798F3240A";
paths = (
{
closed = 1;
nodes = (
"235 0 LINE",
"407 666 LINE",
"577 0 LINE",
"599 0 LINE",
"790 700 LINE",
"768 700 LINE",
"589 40 LINE",
"417 700 LINE",
"395 700 LINE",
"225 40 LINE",
"49 700 LINE",
"27 700 LINE",
"213 0 LINE"
);
}
);
width = 817;
},
{
layerId = "4E2227F3-52E4-4048-A8EE-327B486EF0A4";
paths = (
{
closed = 1;
nodes = (
"315 0 LINE",
"354 362 LINE",
"402 0 LINE",
"568 0 LINE",
"702 700 LINE",
"508 700 LINE",
"479 353 LINE",
"424 700 LINE",
"278 700 LINE",
"239 353 LINE",
"204 700 LINE",
"6 700 LINE",
"148 0 LINE"
);
}
);
width = 708;
},
{
hints = (
{
place = "{-23.609, 0}";
}
);
layerId = "FFFA8D72-12AC-4CE0-B2CA-57A29829F4DA";
paths = (
{
closed = 1;
nodes = (
"339 0 LINE",
"397 372 LINE",
"465 0 LINE",
"652 0 LINE",
"784 700 LINE",
"596 700 LINE",
"549 348 LINE",
"494 700 LINE",
"303 700 LINE",
"256 348 LINE",
"207 700 LINE",
"9 700 LINE",
"163 0 LINE"
);
}
);
width = 793;
},
{
layerId = "DCBE1F7B-116A-43E0-B7B4-8657BA77D8B5";
paths = (
{
closed = 1;
nodes = (
"173 0 LINE",
"277 656 LINE",
"380 0 LINE",
"403 0 LINE",
"529 700 LINE",
"505 700 LINE",
"393 40 LINE",
"288 700 LINE",
"265 700 LINE",
"163 40 LINE",
"41 700 LINE",
"18 700 LINE",
"151 0 LINE"
);
}
);
width = 547;
},
{
associatedMasterId = "4E2227F3-52E4-4048-A8EE-327B486EF0A4";
layerId = "D22352A1-5D91-4C5D-8547-45DDB8692B1B";
name = "{150,3}";
paths = (
{
closed = 1;
nodes = (
"283 0 LINE",
"336 410 LINE",
"397 0 LINE",
"530 0 LINE",
"662 700 LINE",
"508 700 LINE",
"469 311 LINE",
"397 700 LINE",
"271 700 LINE",
"212 311 LINE",
"167 700 LINE",
"9 700 LINE",
"149 0 LINE"
);
}
);
width = 671;
}
);
leftKerningGroup = V;
rightKerningGroup = V;
unicode = 0057;
},
{
glyphname = X;
lastChange = "2017-03-24 06:11:59 +0000";
layers = (
{
hints = (
{
origin = "{0, 11}";
target = "{0, 0}";
},
{
origin = "{0, 2}";
target = "{0, 3}";
}
);
layerId = "262880E7-CFE1-4BDA-902E-E24798F3240A";
paths = (
{
closed = 1;
nodes = (
"52 0 LINE",
"239 330 LINE",
"425 0 LINE",
"450 0 LINE",
"249 349 LINE",
"450 700 LINE",
"425 700 LINE",
"239 369 LINE",
"52 700 LINE",
"27 700 LINE",
"228 350 LINE",
"27 0 LINE"
);
}
);
width = 477;
},
{
layerId = "4E2227F3-52E4-4048-A8EE-327B486EF0A4";
paths = (
{
closed = 1;
nodes = (
"197 0 LINE",
"246 162 LINE",
"295 0 LINE",
"485 0 LINE",
"345 350 LINE",
"485 700 LINE",
"294 700 LINE",
"246 537 LINE",
"198 700 LINE",
"6 700 LINE",
"146 350 LINE",
"6 0 LINE"
);
}
);
width = 491;
},
{
layerId = "FFFA8D72-12AC-4CE0-B2CA-57A29829F4DA";
paths = (
{
closed = 1;
nodes = (
"213 0 LINE",
"301 196 LINE",
"389 0 LINE",
"592 0 LINE",
"413 350 LINE",
"592 700 LINE",
"388 700 LINE",
"301 503 LINE",
"214 700 LINE",
"9 700 LINE",
"189 350 LINE",
"9 0 LINE"
);
}
);
width = 601;
},
{
layerId = "DCBE1F7B-116A-43E0-B7B4-8657BA77D8B5";
paths = (
{
closed = 1;
nodes = (
"43 0 LINE",
"179 330 LINE",
"314 0 LINE",
"339 0 LINE",
"189 349 LINE",
"339 700 LINE",
"314 700 LINE",
"179 369 LINE",
"43 700 LINE",
"18 700 LINE",
"167 350 LINE",
"18 0 LINE"
);
}
);
width = 357;
}
);
rightKerningGroup = X;
unicode = 0058;
},
{
glyphname = Y;
lastChange = "2017-03-24 06:11:59 +0000";
layers = (
{
anchors = (
{
name = top;
position = "{235, 699}";
}
);
hints = (
{
origin = "{0, 6}";
target = "{0, 5}";
},
{
origin = "{0, 3}";
target = "{0, 2}";
},
{
origin = "{0, 8}";
target = "{0, 0}";
}
);
layerId = "262880E7-CFE1-4BDA-902E-E24798F3240A";
paths = (
{
closed = 1;
nodes = (
"246 0 LINE",
"246 339 LINE",
"443 700 LINE",
"421 700 LINE",
"235 358 LINE",
"49 700 LINE",
"27 700 LINE",
"224 339 LINE",
"224 0 LINE"
);
}
);
width = 470;
},
{
anchors = (
{
name = top;
position = "{248, 699}";
}
);
layerId = "4E2227F3-52E4-4048-A8EE-327B486EF0A4";
paths = (
{
closed = 1;
nodes = (
"341 2 LINE",
"341 251 LINE",
"490 700 LINE",
"292 700 LINE",
"248 471 LINE",
"204 700 LINE",
"6 700 LINE",
"153 251 LINE",
"153 2 LINE"
);
}
);
width = 496;
},
{
anchors = (
{
name = top;
position = "{296, 700}";
}
);
layerId = "FFFA8D72-12AC-4CE0-B2CA-57A29829F4DA";
paths = (
{
closed = 1;
nodes = (
"389 2 LINE",
"389 251 LINE",
"584 700 LINE",
"379 700 LINE",
"296 461 LINE",
"213 700 LINE",
"9 700 LINE",
"202 251 LINE",
"202 2 LINE"
);
}
);
width = 593;
},
{
anchors = (
{
name = top;
position = "{171, 700}";
}
);
layerId = "DCBE1F7B-116A-43E0-B7B4-8657BA77D8B5";
paths = (
{
closed = 1;
nodes = (
"182 0 LINE",
"182 339 LINE",
"323 700 LINE",
"300 700 LINE",
"171 358 LINE",
"41 700 LINE",
"18 700 LINE",
"160 339 LINE",
"160 0 LINE"
);
}
);
width = 341;
}
);
leftKerningGroup = Y;
unicode = 0059;
},
{
glyphname = Z;
lastChange = "2017-03-24 06:11:59 +0000";
layers = (
{
anchors = (
{
name = top;
position = "{223, 713}";
}
);
hints = (
{
horizontal = 1;
origin = "{0, 5}";
target = "{0, 6}";
},
{
origin = "{0, 7}";
target = "{0, 3}";
},
{
horizontal = 1;
origin = "{0, 0}";
target = "{0, 1}";
},
{
origin = "{0, 8}";
target = "{0, 2}";
}
);
layerId = "262880E7-CFE1-4BDA-902E-E24798F3240A";
paths = (
{
closed = 1;
nodes = (
"422 0 LINE",
"422 21 LINE",
"61 21 LINE",
"422 679 LINE",
"422 700 LINE",
"36 700 LINE",
"36 679 LINE",
"398 679 LINE",
"36 21 LINE",
"36 0 LINE"
);
}
);
width = 467;
},
{
anchors = (
{
name = top;
position = "{206, 713}";
}
);
layerId = "4E2227F3-52E4-4048-A8EE-327B486EF0A4";
paths = (
{
closed = 1;
nodes = (
"406 0 LINE",
"406 161 LINE",
"204 161 LINE",
"406 539 LINE",
"406 700 LINE",
"8 700 LINE",
"8 539 LINE",
"208 539 LINE",
"8 161 LINE",
"8 0 LINE"
);
}
);
width = 416;
},
{
anchors = (
{
name = top;
position = "{252, 713}";
}
);
layerId = "FFFA8D72-12AC-4CE0-B2CA-57A29829F4DA";
paths = (
{
closed = 1;
nodes = (
"483 0 LINE",
"483 161 LINE",
"208 161 LINE",
"483 530 LINE",
"483 700 LINE",
"12 700 LINE",
"12 539 LINE",
"285 539 LINE",
"12 170 LINE",
"12 0 LINE"
);
}
);
width = 498;
},
{
anchors = (
{
name = top;
position = "{173, 713}";
}
);
layerId = "DCBE1F7B-116A-43E0-B7B4-8657BA77D8B5";
paths = (
{
closed = 1;
nodes = (
"316 0 LINE",
"316 21 LINE",
"49 21 LINE",
"316 679 LINE",
"316 700 LINE",
"24 700 LINE",
"24 679 LINE",
"292 679 LINE",
"24 21 LINE",
"24 0 LINE"
);
}
);
width = 346;
}
);
leftKerningGroup = Z;
rightKerningGroup = Z;
unicode = 005A;
},
{
glyphname = a;
lastChange = "2017-03-24 06:13:37 +0000";
layers = (
{
anchors = (
{
name = top;
position = "{258, 508}";
}
);
hints = (
{
horizontal = 1;
origin = "{2, 5}";
target = "{1, 4}";
},
{
horizontal = 1;
origin = "{1, 10}";
target = "{2, 10}";
},
{
origin = "{1, 7}";
target = "{2, 2}";
},
{
origin = "{0, 15}";
target = "{0, 0}";
},
{
horizontal = 1;
origin = "{0, 4}";
target = "{0, 11}";
},
{
origin = "{0, 7}";
target = "{0, 8}";
}
);
layerId = "262880E7-CFE1-4BDA-902E-E24798F3240A";
paths = (
{
closed = 1;
nodes = (
"420 0 LINE",
"420 342 LINE SMOOTH",
"420 442 OFFCURVE",
"371 508 OFFCURVE",
"255 508 CURVE SMOOTH",
"161 508 OFFCURVE",
"96 462 OFFCURVE",
"86 392 CURVE",
"108 388 LINE",
"115 449 OFFCURVE",
"171 487 OFFCURVE",
"252 487 CURVE SMOOTH",
"358 487 OFFCURVE",
"398 425 OFFCURVE",
"398 345 CURVE SMOOTH",
"398 0 LINE"
);
},
{
closed = 1;
nodes = (
"319 -8 OFFCURVE",
"415 37 OFFCURVE",
"415 142 CURVE",
"415 282 LINE",
"268 282 LINE",
"141 282 OFFCURVE",
"63 224 OFFCURVE",
"63 128 CURVE SMOOTH",
"63 26 OFFCURVE",
"147 -8 OFFCURVE",
"225 -8 CURVE SMOOTH"
);
},
{
closed = 1;
nodes = (
"147 13 OFFCURVE",
"85 49 OFFCURVE",
"85 129 CURVE SMOOTH",
"85 213 OFFCURVE",
"160 261 OFFCURVE",
"265 261 CURVE",
"398 261 LINE",
"398 142 LINE SMOOTH",
"398 52 OFFCURVE",
"308 13 OFFCURVE",
"224 13 CURVE SMOOTH"
);
}
);
width = 528;
},
{
anchors = (
{
name = top;
position = "{234, 528}";
}
);
layerId = "4E2227F3-52E4-4048-A8EE-327B486EF0A4";
paths = (
{
closed = 1;
nodes = (
"451 0 LINE",
"451 360 LINE SMOOTH",
"451 461 OFFCURVE",
"364 528 OFFCURVE",
"234 528 CURVE SMOOTH",
"107 528 OFFCURVE",
"19 459 OFFCURVE",
"19 341 CURVE",
"208 337 LINE",
"208 355 OFFCURVE",
"219 367 OFFCURVE",
"234 367 CURVE SMOOTH",
"251 367 OFFCURVE",
"263 355 OFFCURVE",
"263 337 CURVE SMOOTH",
"263 0 LINE"
);
},
{
closed = 1;
nodes = (
"266 -7 OFFCURVE",
"302 59 OFFCURVE",
"302 197 CURVE",
"302 313 LINE",
"223 313 LINE",
"97 313 OFFCURVE",
"14 297 OFFCURVE",
"14 151 CURVE SMOOTH",
"14 7 OFFCURVE",
"92 -9 OFFCURVE",
"161 -8 CURVE SMOOTH"
);
},
{
closed = 1;
nodes = (
"218 125 OFFCURVE",
"206 134 OFFCURVE",
"206 153 CURVE SMOOTH",
"206 170 OFFCURVE",
"218 185 OFFCURVE",
"237 185 CURVE",
"263 185 LINE",
"263 152 LINE SMOOTH",
"263 135 OFFCURVE",
"245 125 OFFCURVE",
"231 125 CURVE SMOOTH"
);
}
);
width = 475;
},
{
anchors = (
{
name = top;
position = "{255, 517}";
}
);
associatedMasterId = "4E2227F3-52E4-4048-A8EE-327B486EF0A4";
layerId = "ECDB5D87-04FB-4DD9-B431-22FBE4ECF321";
name = "{100,5}";
paths = (
{
closed = 1;
nodes = (
"461 0 LINE",
"461 348 LINE SMOOTH",
"461 446 OFFCURVE",
"375 517 OFFCURVE",
"254 517 CURVE SMOOTH",
"139 517 OFFCURVE",
"57 453 OFFCURVE",
"57 364 CURVE",
"156 355 LINE",
"156 400 OFFCURVE",
"197 431 OFFCURVE",
"255 431 CURVE SMOOTH",
"321 431 OFFCURVE",
"361 392 OFFCURVE",
"361 333 CURVE SMOOTH",
"361 0 LINE"
);
},
{
closed = 1;
nodes = (
"335 -8 OFFCURVE",
"398 51 OFFCURVE",
"398 157 CURVE",
"398 309 LINE",
"257 309 LINE",
"129 309 OFFCURVE",
"43 237 OFFCURVE",
"43 137 CURVE SMOOTH",
"43 50 OFFCURVE",
"113 -8 OFFCURVE",
"218 -8 CURVE SMOOTH"
);
},
{
closed = 1;
nodes = (
"179 78 OFFCURVE",
"143 98 OFFCURVE",
"143 141 CURVE SMOOTH",
"143 198 OFFCURVE",
"192 223 OFFCURVE",
"266 223 CURVE",
"361 223 LINE",
"361 200 LINE SMOOTH",
"361 122 OFFCURVE",
"309 78 OFFCURVE",
"232 78 CURVE SMOOTH"
);
}
);
width = 535;
},
{
anchors = (
{
name = top;
position = "{268, 528}";
}
);
layerId = "FFFA8D72-12AC-4CE0-B2CA-57A29829F4DA";
paths = (
{
closed = 1;
nodes = (
"516 0 LINE",
"516 355 LINE SMOOTH",
"516 451 OFFCURVE",
"407 528 OFFCURVE",
"268 528 CURVE SMOOTH",
"129 528 OFFCURVE",
"28 452 OFFCURVE",
"27 356 CURVE",
"215 332 LINE",
"216 352 OFFCURVE",
"239 367 OFFCURVE",
"271 367 CURVE SMOOTH",
"306 367 OFFCURVE",
"328 348 OFFCURVE",
"328 320 CURVE SMOOTH",
"328 0 LINE"
);
},
{
closed = 1;
nodes = (
"317 -8 OFFCURVE",
"362 47 OFFCURVE",
"362 182 CURVE",
"362 305 LINE",
"230 305 LINE",
"92 305 OFFCURVE",
"21 246 OFFCURVE",
"21 142 CURVE SMOOTH",
"21 39 OFFCURVE",
"90 -8 OFFCURVE",
"199 -8 CURVE SMOOTH"
);
},
{
closed = 1;
nodes = (
"225 115 OFFCURVE",
"210 127 OFFCURVE",
"210 153 CURVE SMOOTH",
"210 183 OFFCURVE",
"231 196 OFFCURVE",
"273 196 CURVE",
"328 196 LINE",
"328 180 LINE SMOOTH",
"328 138 OFFCURVE",
"297 115 OFFCURVE",
"255 115 CURVE SMOOTH"
);
}
);
width = 552;
},
{
anchors = (
{
name = top;
position = "{181, 508}";
}
);
layerId = "DCBE1F7B-116A-43E0-B7B4-8657BA77D8B5";
paths = (
{
closed = 1;
nodes = (
"316 0 LINE",
"316 342 LINE SMOOTH",
"316 442 OFFCURVE",
"271 508 OFFCURVE",
"185 508 CURVE SMOOTH",
"116 508 OFFCURVE",
"55 461 OFFCURVE",
"52 388 CURVE",
"75 385 LINE",
"75 446 OFFCURVE",
"127 487 OFFCURVE",
"184 487 CURVE SMOOTH",
"256 487 OFFCURVE",
"293 430 OFFCURVE",
"293 345 CURVE SMOOTH",
"293 0 LINE"
);
},
{
closed = 1;
nodes = (
"239 -8 OFFCURVE",
"308 37 OFFCURVE",
"308 142 CURVE",
"308 283 LINE",
"196 283 LINE SMOOTH",
"107 283 OFFCURVE",
"42 236 OFFCURVE",
"42 126 CURVE SMOOTH",
"42 18 OFFCURVE",
"106 -8 OFFCURVE",
"163 -8 CURVE SMOOTH"
);
},
{
closed = 1;
nodes = (
"109 13 OFFCURVE",
"64 45 OFFCURVE",
"64 127 CURVE SMOOTH",
"64 219 OFFCURVE",
"120 262 OFFCURVE",
"198 262 CURVE SMOOTH",
"293 262 LINE",
"293 142 LINE SMOOTH",
"293 52 OFFCURVE",
"229 13 OFFCURVE",
"166 13 CURVE SMOOTH"
);
}
);
width = 388;
},
{
anchors = (
{
name = top;
position = "{207, 517}";
}
);
associatedMasterId = "4E2227F3-52E4-4048-A8EE-327B486EF0A4";
layerId = "FAF4597E-2DB2-4F36-AC5C-F274557DEF62";
name = "{100,3}";
paths = (
{
closed = 1;
nodes = (
"379 0 LINE",
"379 350 LINE SMOOTH",
"379 451 OFFCURVE",
"311 517 OFFCURVE",
"207 517 CURVE SMOOTH",
"106 517 OFFCURVE",
"35 455 OFFCURVE",
"34 374 CURVE",
"135 366 LINE",
"136 405 OFFCURVE",
"167 431 OFFCURVE",
"205 431 CURVE SMOOTH",
"251 431 OFFCURVE",
"279 395 OFFCURVE",
"279 341 CURVE SMOOTH",
"279 0 LINE"
);
},
{
closed = 1;
nodes = (
"266 -8 OFFCURVE",
"315 42 OFFCURVE",
"315 177 CURVE",
"315 299 LINE",
"219 299 LINE SMOOTH",
"114 299 OFFCURVE",
"29 265 OFFCURVE",
"29 146 CURVE SMOOTH",
"29 18 OFFCURVE",
"127 -8 OFFCURVE",
"186 -8 CURVE SMOOTH"
);
},
{
closed = 1;
nodes = (
"157 79 OFFCURVE",
"130 100 OFFCURVE",
"130 144 CURVE SMOOTH",
"130 189 OFFCURVE",
"166 215 OFFCURVE",
"216 215 CURVE SMOOTH",
"279 215 LINE",
"279 161 LINE SMOOTH",
"279 107 OFFCURVE",
"236 79 OFFCURVE",
"195 79 CURVE SMOOTH"
);
}
);
width = 429;
},
{
anchors = (
{
name = top;
position = "{261, 517}";
}
);
associatedMasterId = "4E2227F3-52E4-4048-A8EE-327B486EF0A4";
hints = (
{
horizontal = 1;
origin = "{2, 5}";
target = "{1, 4}";
},
{
horizontal = 1;
origin = "{1, 10}";
target = "{2, 10}";
},
{
origin = "{1, 7}";
target = "{2, 2}";
},
{
origin = "{0, 15}";
target = "{0, 0}";
},
{
horizontal = 1;
origin = "{0, 4}";
target = "{0, 11}";
},
{
origin = "{0, 7}";
target = "{0, 8}";
}
);
layerId = "36052864-3271-42EE-8E1E-2F1FF635A4BB";
name = tmp;
paths = (
{
closed = 1;
nodes = (
"461 0 LINE",
"461 348 LINE SMOOTH",
"461 446 OFFCURVE",
"385 517 OFFCURVE",
"259 517 CURVE SMOOTH",
"144 517 OFFCURVE",
"62 457 OFFCURVE",
"56 375 CURVE",
"155 362 LINE",
"160 404 OFFCURVE",
"200 431 OFFCURVE",
"259 431 CURVE SMOOTH",
"331 431 OFFCURVE",
"362 389 OFFCURVE",
"362 333 CURVE SMOOTH",
"362 0 LINE"
);
},
{
closed = 1;
nodes = (
"316 -8 OFFCURVE",
"387 42 OFFCURVE",
"387 161 CURVE",
"387 290 LINE",
"248 290 LINE",
"118 290 OFFCURVE",
"44 232 OFFCURVE",
"44 132 CURVE SMOOTH",
"44 32 OFFCURVE",
"120 -8 OFFCURVE",
"211 -8 CURVE SMOOTH"
);
},
{
closed = 1;
nodes = (
"183 61 OFFCURVE",
"144 85 OFFCURVE",
"144 138 CURVE SMOOTH",
"144 196 OFFCURVE",
"192 228 OFFCURVE",
"267 228 CURVE",
"362 228 LINE",
"362 160 LINE SMOOTH",
"362 92 OFFCURVE",
"300 61 OFFCURVE",
"237 61 CURVE SMOOTH"
);
}
);
width = 512;
},
{
anchors = (
{
name = top;
position = "{211, 517}";
}
);
associatedMasterId = "4E2227F3-52E4-4048-A8EE-327B486EF0A4";
layerId = "00A22213-B56C-439A-8DB0-6729C6CC6F9C";
name = tmp;
paths = (
{
closed = 1;
nodes = (
"384 0 LINE",
"384 350 LINE SMOOTH",
"384 451 OFFCURVE",
"320 517 OFFCURVE",
"213 517 CURVE SMOOTH",
"117 517 OFFCURVE",
"44 460 OFFCURVE",
"42 366 CURVE",
"143 363 LINE",
"143 404 OFFCURVE",
"175 431 OFFCURVE",
"213 431 CURVE SMOOTH",
"259 431 OFFCURVE",
"284 395 OFFCURVE",
"284 341 CURVE SMOOTH",
"284 0 LINE"
);
},
{
closed = 1;
nodes = (
"257 -8 OFFCURVE",
"311 47 OFFCURVE",
"311 168 CURVE",
"311 297 LINE",
"214 297 LINE SMOOTH",
"108 297 OFFCURVE",
"34 264 OFFCURVE",
"34 138 CURVE SMOOTH",
"34 13 OFFCURVE",
"105 -8 OFFCURVE",
"168 -8 CURVE SMOOTH"
);
},
{
closed = 1;
nodes = (
"165 65 OFFCURVE",
"136 87 OFFCURVE",
"136 139 CURVE SMOOTH",
"136 196 OFFCURVE",
"171 226 OFFCURVE",
"222 226 CURVE SMOOTH",
"284 226 LINE",
"284 147 LINE SMOOTH",
"284 91 OFFCURVE",
"242 65 OFFCURVE",
"202 65 CURVE SMOOTH"
);
}
);
width = 425;
},
{
anchors = (
{
name = top;
position = "{261, 517}";
}
);
associatedMasterId = "4E2227F3-52E4-4048-A8EE-327B486EF0A4";
hints = (
{
horizontal = 1;
origin = "{2, 5}";
target = "{1, 4}";
},
{
horizontal = 1;
origin = "{1, 10}";
target = "{2, 10}";
},
{
origin = "{1, 7}";
target = "{2, 2}";
},
{
origin = "{0, 15}";
target = "{0, 0}";
},
{
horizontal = 1;
origin = "{0, 4}";
target = "{0, 11}";
},
{
origin = "{0, 7}";
target = "{0, 8}";
}
);
layerId = "40F548C1-9D03-400D-91C7-30C97DEB56B1";
name = tmp;
paths = (
{
closed = 1;
nodes = (
"461 0 LINE",
"461 348 LINE SMOOTH",
"461 446 OFFCURVE",
"385 517 OFFCURVE",
"259 517 CURVE SMOOTH",
"144 517 OFFCURVE",
"62 457 OFFCURVE",
"56 375 CURVE",
"155 362 LINE",
"160 404 OFFCURVE",
"200 431 OFFCURVE",
"259 431 CURVE SMOOTH",
"331 431 OFFCURVE",
"362 389 OFFCURVE",
"362 333 CURVE SMOOTH",
"362 0 LINE"
);
},
{
closed = 1;
nodes = (
"316 -8 OFFCURVE",
"387 42 OFFCURVE",
"387 161 CURVE",
"387 290 LINE",
"248 290 LINE",
"118 290 OFFCURVE",
"44 232 OFFCURVE",
"44 132 CURVE SMOOTH",
"44 32 OFFCURVE",
"120 -8 OFFCURVE",
"211 -8 CURVE SMOOTH"
);
},
{
closed = 1;
nodes = (
"183 61 OFFCURVE",
"144 85 OFFCURVE",
"144 138 CURVE SMOOTH",
"144 196 OFFCURVE",
"192 228 OFFCURVE",
"267 228 CURVE",
"362 228 LINE",
"362 160 LINE SMOOTH",
"362 92 OFFCURVE",
"300 61 OFFCURVE",
"237 61 CURVE SMOOTH"
);
}
);
width = 512;
},
{
anchors = (
{
name = top;
position = "{211, 517}";
}
);
associatedMasterId = "4E2227F3-52E4-4048-A8EE-327B486EF0A4";
layerId = "1FFB8E08-127F-4DB9-B450-B596D7B0EB71";
name = tmp;
paths = (
{
closed = 1;
nodes = (
"384 0 LINE",
"384 350 LINE SMOOTH",
"384 451 OFFCURVE",
"320 517 OFFCURVE",
"213 517 CURVE SMOOTH",
"117 517 OFFCURVE",
"44 460 OFFCURVE",
"42 366 CURVE",
"143 363 LINE",
"143 404 OFFCURVE",
"175 431 OFFCURVE",
"213 431 CURVE SMOOTH",
"259 431 OFFCURVE",
"284 395 OFFCURVE",
"284 341 CURVE SMOOTH",
"284 0 LINE"
);
},
{
closed = 1;
nodes = (
"257 -8 OFFCURVE",
"311 47 OFFCURVE",
"311 168 CURVE",
"311 297 LINE",
"214 297 LINE SMOOTH",
"108 297 OFFCURVE",
"34 264 OFFCURVE",
"34 138 CURVE SMOOTH",
"34 13 OFFCURVE",
"105 -8 OFFCURVE",
"168 -8 CURVE SMOOTH"
);
},
{
closed = 1;
nodes = (
"165 65 OFFCURVE",
"136 87 OFFCURVE",
"136 139 CURVE SMOOTH",
"136 196 OFFCURVE",
"171 226 OFFCURVE",
"222 226 CURVE SMOOTH",
"284 226 LINE",
"284 147 LINE SMOOTH",
"284 91 OFFCURVE",
"242 65 OFFCURVE",
"202 65 CURVE SMOOTH"
);
}
);
width = 425;
},
{
anchors = (
{
name = top;
position = "{261, 517}";
}
);
associatedMasterId = "4E2227F3-52E4-4048-A8EE-327B486EF0A4";
hints = (
{
horizontal = 1;
origin = "{2, 5}";
target = "{1, 4}";
},
{
horizontal = 1;
origin = "{1, 10}";
target = "{2, 10}";
},
{
origin = "{1, 7}";
target = "{2, 2}";
},
{
origin = "{0, 15}";
target = "{0, 0}";
},
{
horizontal = 1;
origin = "{0, 4}";
target = "{0, 11}";
},
{
origin = "{0, 7}";
target = "{0, 8}";
}
);
layerId = "9791EDCA-3BD6-421B-B8E4-D38F129D258F";
name = del;
paths = (
{
closed = 1;
nodes = (
"461 0 LINE",
"461 348 LINE SMOOTH",
"461 446 OFFCURVE",
"385 517 OFFCURVE",
"259 517 CURVE SMOOTH",
"144 517 OFFCURVE",
"62 457 OFFCURVE",
"56 375 CURVE",
"155 362 LINE",
"160 404 OFFCURVE",
"200 431 OFFCURVE",
"259 431 CURVE SMOOTH",
"331 431 OFFCURVE",
"362 389 OFFCURVE",
"362 333 CURVE SMOOTH",
"362 0 LINE"
);
},
{
closed = 1;
nodes = (
"316 -8 OFFCURVE",
"387 42 OFFCURVE",
"387 161 CURVE",
"387 290 LINE",
"248 290 LINE",
"118 290 OFFCURVE",
"44 232 OFFCURVE",
"44 132 CURVE SMOOTH",
"44 32 OFFCURVE",
"120 -8 OFFCURVE",
"211 -8 CURVE SMOOTH"
);
},
{
closed = 1;
nodes = (
"183 61 OFFCURVE",
"144 85 OFFCURVE",
"144 138 CURVE SMOOTH",
"144 196 OFFCURVE",
"192 228 OFFCURVE",
"267 228 CURVE",
"362 228 LINE",
"362 160 LINE SMOOTH",
"362 92 OFFCURVE",
"300 61 OFFCURVE",
"237 61 CURVE SMOOTH"
);
}
);
width = 512;
},
{
anchors = (
{
name = top;
position = "{211, 517}";
}
);
associatedMasterId = "4E2227F3-52E4-4048-A8EE-327B486EF0A4";
layerId = "519BD3AE-3F60-426B-A815-7D3EB3BD2704";
name = del;
paths = (
{
closed = 1;
nodes = (
"384 0 LINE",
"384 350 LINE SMOOTH",
"384 451 OFFCURVE",
"320 517 OFFCURVE",
"213 517 CURVE SMOOTH",
"117 517 OFFCURVE",
"44 460 OFFCURVE",
"42 366 CURVE",
"143 363 LINE",
"143 404 OFFCURVE",
"175 431 OFFCURVE",
"213 431 CURVE SMOOTH",
"259 431 OFFCURVE",
"284 395 OFFCURVE",
"284 341 CURVE SMOOTH",
"284 0 LINE"
);
},
{
closed = 1;
nodes = (
"257 -8 OFFCURVE",
"311 47 OFFCURVE",
"311 168 CURVE",
"311 297 LINE",
"214 297 LINE SMOOTH",
"108 297 OFFCURVE",
"34 264 OFFCURVE",
"34 138 CURVE SMOOTH",
"34 13 OFFCURVE",
"105 -8 OFFCURVE",
"168 -8 CURVE SMOOTH"
);
},
{
closed = 1;
nodes = (
"165 65 OFFCURVE",
"136 87 OFFCURVE",
"136 139 CURVE SMOOTH",
"136 196 OFFCURVE",
"171 226 OFFCURVE",
"222 226 CURVE SMOOTH",
"284 226 LINE",
"284 147 LINE SMOOTH",
"284 91 OFFCURVE",
"242 65 OFFCURVE",
"202 65 CURVE SMOOTH"
);
}
);
width = 425;
},
{
anchors = (
{
name = top;
position = "{261, 517}";
}
);
associatedMasterId = "4E2227F3-52E4-4048-A8EE-327B486EF0A4";
hints = (
{
horizontal = 1;
origin = "{2, 5}";
target = "{1, 4}";
},
{
horizontal = 1;
origin = "{1, 10}";
target = "{2, 10}";
},
{
origin = "{1, 7}";
target = "{2, 2}";
},
{
origin = "{0, 15}";
target = "{0, 0}";
},
{
horizontal = 1;
origin = "{0, 4}";
target = "{0, 11}";
},
{
origin = "{0, 7}";
target = "{0, 8}";
}
);
layerId = "305F9FA8-D23D-4FB2-830A-DFCFF8F04631";
name = del;
paths = (
{
closed = 1;
nodes = (
"461 0 LINE",
"461 348 LINE SMOOTH",
"461 446 OFFCURVE",
"385 517 OFFCURVE",
"259 517 CURVE SMOOTH",
"144 517 OFFCURVE",
"62 457 OFFCURVE",
"56 375 CURVE",
"155 362 LINE",
"160 404 OFFCURVE",
"200 431 OFFCURVE",
"259 431 CURVE SMOOTH",
"331 431 OFFCURVE",
"362 389 OFFCURVE",
"362 333 CURVE SMOOTH",
"362 0 LINE"
);
},
{
closed = 1;
nodes = (
"316 -8 OFFCURVE",
"387 42 OFFCURVE",
"387 161 CURVE",
"387 290 LINE",
"248 290 LINE",
"118 290 OFFCURVE",
"44 232 OFFCURVE",
"44 132 CURVE SMOOTH",
"44 32 OFFCURVE",
"120 -8 OFFCURVE",
"211 -8 CURVE SMOOTH"
);
},
{
closed = 1;
nodes = (
"183 61 OFFCURVE",
"144 85 OFFCURVE",
"144 138 CURVE SMOOTH",
"144 196 OFFCURVE",
"192 228 OFFCURVE",
"267 228 CURVE",
"362 228 LINE",
"362 160 LINE SMOOTH",
"362 92 OFFCURVE",
"300 61 OFFCURVE",
"237 61 CURVE SMOOTH"
);
}
);
width = 512;
},
{
anchors = (
{
name = top;
position = "{211, 517}";
}
);
associatedMasterId = "4E2227F3-52E4-4048-A8EE-327B486EF0A4";
layerId = "8A5DF1B7-F36F-456F-9089-0E0CA95971E0";
name = del;
paths = (
{
closed = 1;
nodes = (
"384 0 LINE",
"384 350 LINE SMOOTH",
"384 451 OFFCURVE",
"320 517 OFFCURVE",
"213 517 CURVE SMOOTH",
"117 517 OFFCURVE",
"44 460 OFFCURVE",
"42 366 CURVE",
"143 363 LINE",
"143 404 OFFCURVE",
"175 431 OFFCURVE",
"213 431 CURVE SMOOTH",
"259 431 OFFCURVE",
"284 395 OFFCURVE",
"284 341 CURVE SMOOTH",
"284 0 LINE"
);
},
{
closed = 1;
nodes = (
"257 -8 OFFCURVE",
"311 47 OFFCURVE",
"311 168 CURVE",
"311 297 LINE",
"214 297 LINE SMOOTH",
"108 297 OFFCURVE",
"34 264 OFFCURVE",
"34 138 CURVE SMOOTH",
"34 13 OFFCURVE",
"105 -8 OFFCURVE",
"168 -8 CURVE SMOOTH"
);
},
{
closed = 1;
nodes = (
"165 65 OFFCURVE",
"136 87 OFFCURVE",
"136 139 CURVE SMOOTH",
"136 196 OFFCURVE",
"171 226 OFFCURVE",
"222 226 CURVE SMOOTH",
"284 226 LINE",
"284 147 LINE SMOOTH",
"284 91 OFFCURVE",
"242 65 OFFCURVE",
"202 65 CURVE SMOOTH"
);
}
);
width = 425;
},
{
anchors = (
{
name = top;
position = "{261, 517}";
}
);
associatedMasterId = "4E2227F3-52E4-4048-A8EE-327B486EF0A4";
hints = (
{
horizontal = 1;
origin = "{2, 5}";
target = "{1, 4}";
},
{
horizontal = 1;
origin = "{1, 10}";
target = "{2, 10}";
},
{
origin = "{1, 7}";
target = "{2, 2}";
},
{
origin = "{0, 15}";
target = "{0, 0}";
},
{
horizontal = 1;
origin = "{0, 4}";
target = "{0, 11}";
},
{
origin = "{0, 7}";
target = "{0, 8}";
}
);
layerId = "1CAFA014-77A4-40C2-9571-A19FD8CF68E9";
name = del;
paths = (
{
closed = 1;
nodes = (
"461 0 LINE",
"461 348 LINE SMOOTH",
"461 446 OFFCURVE",
"385 517 OFFCURVE",
"259 517 CURVE SMOOTH",
"144 517 OFFCURVE",
"62 457 OFFCURVE",
"56 375 CURVE",
"155 362 LINE",
"160 404 OFFCURVE",
"200 431 OFFCURVE",
"259 431 CURVE SMOOTH",
"331 431 OFFCURVE",
"362 389 OFFCURVE",
"362 333 CURVE SMOOTH",
"362 0 LINE"
);
},
{
closed = 1;
nodes = (
"316 -8 OFFCURVE",
"387 42 OFFCURVE",
"387 161 CURVE",
"387 290 LINE",
"248 290 LINE",
"118 290 OFFCURVE",
"44 232 OFFCURVE",
"44 132 CURVE SMOOTH",
"44 32 OFFCURVE",
"120 -8 OFFCURVE",
"211 -8 CURVE SMOOTH"
);
},
{
closed = 1;
nodes = (
"183 61 OFFCURVE",
"144 85 OFFCURVE",
"144 138 CURVE SMOOTH",
"144 196 OFFCURVE",
"192 228 OFFCURVE",
"267 228 CURVE",
"362 228 LINE",
"362 160 LINE SMOOTH",
"362 92 OFFCURVE",
"300 61 OFFCURVE",
"237 61 CURVE SMOOTH"
);
}
);
width = 512;
},
{
anchors = (
{
name = top;
position = "{211, 517}";
}
);
associatedMasterId = "4E2227F3-52E4-4048-A8EE-327B486EF0A4";
layerId = "E891050D-66B0-4BE0-9B21-C521E8354ED0";
name = del;
paths = (
{
closed = 1;
nodes = (
"384 0 LINE",
"384 350 LINE SMOOTH",
"384 451 OFFCURVE",
"320 517 OFFCURVE",
"213 517 CURVE SMOOTH",
"117 517 OFFCURVE",
"44 460 OFFCURVE",
"42 366 CURVE",
"143 363 LINE",
"143 404 OFFCURVE",
"175 431 OFFCURVE",
"213 431 CURVE SMOOTH",
"259 431 OFFCURVE",
"284 395 OFFCURVE",
"284 341 CURVE SMOOTH",
"284 0 LINE"
);
},
{
closed = 1;
nodes = (
"257 -8 OFFCURVE",
"311 47 OFFCURVE",
"311 168 CURVE",
"311 297 LINE",
"214 297 LINE SMOOTH",
"108 297 OFFCURVE",
"34 264 OFFCURVE",
"34 138 CURVE SMOOTH",
"34 13 OFFCURVE",
"105 -8 OFFCURVE",
"168 -8 CURVE SMOOTH"
);
},
{
closed = 1;
nodes = (
"165 65 OFFCURVE",
"136 87 OFFCURVE",
"136 139 CURVE SMOOTH",
"136 196 OFFCURVE",
"171 226 OFFCURVE",
"222 226 CURVE SMOOTH",
"284 226 LINE",
"284 147 LINE SMOOTH",
"284 91 OFFCURVE",
"242 65 OFFCURVE",
"202 65 CURVE SMOOTH"
);
}
);
width = 425;
},
{
anchors = (
{
name = top;
position = "{261, 517}";
}
);
associatedMasterId = "4E2227F3-52E4-4048-A8EE-327B486EF0A4";
hints = (
{
horizontal = 1;
origin = "{2, 5}";
target = "{1, 4}";
},
{
horizontal = 1;
origin = "{1, 10}";
target = "{2, 10}";
},
{
origin = "{1, 7}";
target = "{2, 2}";
},
{
origin = "{0, 15}";
target = "{0, 0}";
},
{
horizontal = 1;
origin = "{0, 4}";
target = "{0, 11}";
},
{
origin = "{0, 7}";
target = "{0, 8}";
}
);
layerId = "51F9B9AB-035C-4D99-9F6D-434C7076FEC3";
name = del;
paths = (
{
closed = 1;
nodes = (
"461 0 LINE",
"461 348 LINE SMOOTH",
"461 446 OFFCURVE",
"385 517 OFFCURVE",
"259 517 CURVE SMOOTH",
"144 517 OFFCURVE",
"62 457 OFFCURVE",
"56 375 CURVE",
"155 362 LINE",
"160 404 OFFCURVE",
"200 431 OFFCURVE",
"259 431 CURVE SMOOTH",
"331 431 OFFCURVE",
"362 389 OFFCURVE",
"362 333 CURVE SMOOTH",
"362 0 LINE"
);
},
{
closed = 1;
nodes = (
"316 -8 OFFCURVE",
"387 42 OFFCURVE",
"387 161 CURVE",
"387 290 LINE",
"248 290 LINE",
"118 290 OFFCURVE",
"44 232 OFFCURVE",
"44 132 CURVE SMOOTH",
"44 32 OFFCURVE",
"120 -8 OFFCURVE",
"211 -8 CURVE SMOOTH"
);
},
{
closed = 1;
nodes = (
"183 61 OFFCURVE",
"144 85 OFFCURVE",
"144 138 CURVE SMOOTH",
"144 196 OFFCURVE",
"192 228 OFFCURVE",
"267 228 CURVE",
"362 228 LINE",
"362 160 LINE SMOOTH",
"362 92 OFFCURVE",
"300 61 OFFCURVE",
"237 61 CURVE SMOOTH"
);
}
);
width = 512;
},
{
anchors = (
{
name = top;
position = "{211, 517}";
}
);
associatedMasterId = "4E2227F3-52E4-4048-A8EE-327B486EF0A4";
layerId = "C7EA5BA4-A0ED-40D0-B7B4-148E10F961E2";
name = del;
paths = (
{
closed = 1;
nodes = (
"384 0 LINE",
"384 350 LINE SMOOTH",
"384 451 OFFCURVE",
"320 517 OFFCURVE",
"213 517 CURVE SMOOTH",
"117 517 OFFCURVE",
"44 460 OFFCURVE",
"42 366 CURVE",
"143 363 LINE",
"143 404 OFFCURVE",
"175 431 OFFCURVE",
"213 431 CURVE SMOOTH",
"259 431 OFFCURVE",
"284 395 OFFCURVE",
"284 341 CURVE SMOOTH",
"284 0 LINE"
);
},
{
closed = 1;
nodes = (
"257 -8 OFFCURVE",
"311 47 OFFCURVE",
"311 168 CURVE",
"311 297 LINE",
"214 297 LINE SMOOTH",
"108 297 OFFCURVE",
"34 264 OFFCURVE",
"34 138 CURVE SMOOTH",
"34 13 OFFCURVE",
"105 -8 OFFCURVE",
"168 -8 CURVE SMOOTH"
);
},
{
closed = 1;
nodes = (
"165 65 OFFCURVE",
"136 87 OFFCURVE",
"136 139 CURVE SMOOTH",
"136 196 OFFCURVE",
"171 226 OFFCURVE",
"222 226 CURVE SMOOTH",
"284 226 LINE",
"284 147 LINE SMOOTH",
"284 91 OFFCURVE",
"242 65 OFFCURVE",
"202 65 CURVE SMOOTH"
);
}
);
width = 425;
},
{
anchors = (
{
name = top;
position = "{261, 517}";
}
);
associatedMasterId = "4E2227F3-52E4-4048-A8EE-327B486EF0A4";
hints = (
{
horizontal = 1;
origin = "{2, 5}";
target = "{1, 4}";
},
{
horizontal = 1;
origin = "{1, 10}";
target = "{2, 10}";
},
{
origin = "{1, 7}";
target = "{2, 2}";
},
{
origin = "{0, 15}";
target = "{0, 0}";
},
{
horizontal = 1;
origin = "{0, 4}";
target = "{0, 11}";
},
{
origin = "{0, 7}";
target = "{0, 8}";
}
);
layerId = "A3131369-7782-4BBD-B380-0721F71A39D0";
name = del;
paths = (
{
closed = 1;
nodes = (
"461 0 LINE",
"461 348 LINE SMOOTH",
"461 446 OFFCURVE",
"385 517 OFFCURVE",
"259 517 CURVE SMOOTH",
"144 517 OFFCURVE",
"62 457 OFFCURVE",
"56 375 CURVE",
"155 362 LINE",
"160 404 OFFCURVE",
"200 431 OFFCURVE",
"259 431 CURVE SMOOTH",
"331 431 OFFCURVE",
"362 389 OFFCURVE",
"362 333 CURVE SMOOTH",
"362 0 LINE"
);
},
{
closed = 1;
nodes = (
"316 -8 OFFCURVE",
"387 42 OFFCURVE",
"387 161 CURVE",
"387 290 LINE",
"248 290 LINE",
"118 290 OFFCURVE",
"44 232 OFFCURVE",
"44 132 CURVE SMOOTH",
"44 32 OFFCURVE",
"120 -8 OFFCURVE",
"211 -8 CURVE SMOOTH"
);
},
{
closed = 1;
nodes = (
"183 61 OFFCURVE",
"144 85 OFFCURVE",
"144 138 CURVE SMOOTH",
"144 196 OFFCURVE",
"192 228 OFFCURVE",
"267 228 CURVE",
"362 228 LINE",
"362 160 LINE SMOOTH",
"362 92 OFFCURVE",
"300 61 OFFCURVE",
"237 61 CURVE SMOOTH"
);
}
);
width = 512;
},
{
anchors = (
{
name = top;
position = "{211, 517}";
}
);
associatedMasterId = "4E2227F3-52E4-4048-A8EE-327B486EF0A4";
layerId = "96C0DCFD-3086-4C83-A707-1B6DE6BF0C82";
name = del;
paths = (
{
closed = 1;
nodes = (
"384 0 LINE",
"384 350 LINE SMOOTH",
"384 451 OFFCURVE",
"320 517 OFFCURVE",
"213 517 CURVE SMOOTH",
"117 517 OFFCURVE",
"44 460 OFFCURVE",
"42 366 CURVE",
"143 363 LINE",
"143 404 OFFCURVE",
"175 431 OFFCURVE",
"213 431 CURVE SMOOTH",
"259 431 OFFCURVE",
"284 395 OFFCURVE",
"284 341 CURVE SMOOTH",
"284 0 LINE"
);
},
{
closed = 1;
nodes = (
"257 -8 OFFCURVE",
"311 47 OFFCURVE",
"311 168 CURVE",
"311 297 LINE",
"214 297 LINE SMOOTH",
"108 297 OFFCURVE",
"34 264 OFFCURVE",
"34 138 CURVE SMOOTH",
"34 13 OFFCURVE",
"105 -8 OFFCURVE",
"168 -8 CURVE SMOOTH"
);
},
{
closed = 1;
nodes = (
"165 65 OFFCURVE",
"136 87 OFFCURVE",
"136 139 CURVE SMOOTH",
"136 196 OFFCURVE",
"171 226 OFFCURVE",
"222 226 CURVE SMOOTH",
"284 226 LINE",
"284 147 LINE SMOOTH",
"284 91 OFFCURVE",
"242 65 OFFCURVE",
"202 65 CURVE SMOOTH"
);
}
);
width = 425;
},
{
anchors = (
{
name = top;
position = "{261, 517}";
}
);
associatedMasterId = "4E2227F3-52E4-4048-A8EE-327B486EF0A4";
hints = (
{
horizontal = 1;
origin = "{2, 5}";
target = "{1, 4}";
},
{
horizontal = 1;
origin = "{1, 10}";
target = "{2, 10}";
},
{
origin = "{1, 7}";
target = "{2, 2}";
},
{
origin = "{0, 15}";
target = "{0, 0}";
},
{
horizontal = 1;
origin = "{0, 4}";
target = "{0, 11}";
},
{
origin = "{0, 7}";
target = "{0, 8}";
}
);
layerId = "0341273B-8B02-46EF-9C00-576A48C66B84";
name = del;
paths = (
{
closed = 1;
nodes = (
"461 0 LINE",
"461 348 LINE SMOOTH",
"461 446 OFFCURVE",
"385 517 OFFCURVE",
"259 517 CURVE SMOOTH",
"144 517 OFFCURVE",
"62 457 OFFCURVE",
"56 375 CURVE",
"155 362 LINE",
"160 404 OFFCURVE",
"200 431 OFFCURVE",
"259 431 CURVE SMOOTH",
"331 431 OFFCURVE",
"362 389 OFFCURVE",
"362 333 CURVE SMOOTH",
"362 0 LINE"
);
},
{
closed = 1;
nodes = (
"316 -8 OFFCURVE",
"387 42 OFFCURVE",
"387 161 CURVE",
"387 290 LINE",
"248 290 LINE",
"118 290 OFFCURVE",
"44 232 OFFCURVE",
"44 132 CURVE SMOOTH",
"44 32 OFFCURVE",
"120 -8 OFFCURVE",
"211 -8 CURVE SMOOTH"
);
},
{
closed = 1;
nodes = (
"183 61 OFFCURVE",
"144 85 OFFCURVE",
"144 138 CURVE SMOOTH",
"144 196 OFFCURVE",
"192 228 OFFCURVE",
"267 228 CURVE",
"362 228 LINE",
"362 160 LINE SMOOTH",
"362 92 OFFCURVE",
"300 61 OFFCURVE",
"237 61 CURVE SMOOTH"
);
}
);
width = 512;
},
{
anchors = (
{
name = top;
position = "{211, 517}";
}
);
associatedMasterId = "4E2227F3-52E4-4048-A8EE-327B486EF0A4";
layerId = "160E4A24-9346-4D3F-B6F9-C0E06E93332A";
name = del;
paths = (
{
closed = 1;
nodes = (
"384 0 LINE",
"384 350 LINE SMOOTH",
"384 451 OFFCURVE",
"320 517 OFFCURVE",
"213 517 CURVE SMOOTH",
"117 517 OFFCURVE",
"44 460 OFFCURVE",
"42 366 CURVE",
"143 363 LINE",
"143 404 OFFCURVE",
"175 431 OFFCURVE",
"213 431 CURVE SMOOTH",
"259 431 OFFCURVE",
"284 395 OFFCURVE",
"284 341 CURVE SMOOTH",
"284 0 LINE"
);
},
{
closed = 1;
nodes = (
"257 -8 OFFCURVE",
"311 47 OFFCURVE",
"311 168 CURVE",
"311 297 LINE",
"214 297 LINE SMOOTH",
"108 297 OFFCURVE",
"34 264 OFFCURVE",
"34 138 CURVE SMOOTH",
"34 13 OFFCURVE",
"105 -8 OFFCURVE",
"168 -8 CURVE SMOOTH"
);
},
{
closed = 1;
nodes = (
"165 65 OFFCURVE",
"136 87 OFFCURVE",
"136 139 CURVE SMOOTH",
"136 196 OFFCURVE",
"171 226 OFFCURVE",
"222 226 CURVE SMOOTH",
"284 226 LINE",
"284 147 LINE SMOOTH",
"284 91 OFFCURVE",
"242 65 OFFCURVE",
"202 65 CURVE SMOOTH"
);
}
);
width = 425;
},
{
anchors = (
{
name = top;
position = "{261, 517}";
}
);
associatedMasterId = "4E2227F3-52E4-4048-A8EE-327B486EF0A4";
hints = (
{
horizontal = 1;
origin = "{2, 5}";
target = "{1, 4}";
},
{
horizontal = 1;
origin = "{1, 10}";
target = "{2, 10}";
},
{
origin = "{1, 7}";
target = "{2, 2}";
},
{
origin = "{0, 15}";
target = "{0, 0}";
},
{
horizontal = 1;
origin = "{0, 4}";
target = "{0, 11}";
},
{
origin = "{0, 7}";
target = "{0, 8}";
}
);
layerId = "AADBE604-4DCA-42C6-9A4C-7D2067FAFABE";
name = del;
paths = (
{
closed = 1;
nodes = (
"461 0 LINE",
"461 348 LINE SMOOTH",
"461 446 OFFCURVE",
"385 517 OFFCURVE",
"259 517 CURVE SMOOTH",
"144 517 OFFCURVE",
"62 457 OFFCURVE",
"56 375 CURVE",
"155 362 LINE",
"160 404 OFFCURVE",
"200 431 OFFCURVE",
"259 431 CURVE SMOOTH",
"331 431 OFFCURVE",
"362 389 OFFCURVE",
"362 333 CURVE SMOOTH",
"362 0 LINE"
);
},
{
closed = 1;
nodes = (
"316 -8 OFFCURVE",
"387 42 OFFCURVE",
"387 161 CURVE",
"387 290 LINE",
"248 290 LINE",
"118 290 OFFCURVE",
"44 232 OFFCURVE",
"44 132 CURVE SMOOTH",
"44 32 OFFCURVE",
"120 -8 OFFCURVE",
"211 -8 CURVE SMOOTH"
);
},
{
closed = 1;
nodes = (
"183 61 OFFCURVE",
"144 85 OFFCURVE",
"144 138 CURVE SMOOTH",
"144 196 OFFCURVE",
"192 228 OFFCURVE",
"267 228 CURVE",
"362 228 LINE",
"362 160 LINE SMOOTH",
"362 92 OFFCURVE",
"300 61 OFFCURVE",
"237 61 CURVE SMOOTH"
);
}
);
width = 512;
},
{
anchors = (
{
name = top;
position = "{211, 517}";
}
);
associatedMasterId = "4E2227F3-52E4-4048-A8EE-327B486EF0A4";
layerId = "DFEEADBB-73CC-4627-974E-A7DF065A697F";
name = del;
paths = (
{
closed = 1;
nodes = (
"384 0 LINE",
"384 350 LINE SMOOTH",
"384 451 OFFCURVE",
"320 517 OFFCURVE",
"213 517 CURVE SMOOTH",
"117 517 OFFCURVE",
"44 460 OFFCURVE",
"42 366 CURVE",
"143 363 LINE",
"143 404 OFFCURVE",
"175 431 OFFCURVE",
"213 431 CURVE SMOOTH",
"259 431 OFFCURVE",
"284 395 OFFCURVE",
"284 341 CURVE SMOOTH",
"284 0 LINE"
);
},
{
closed = 1;
nodes = (
"257 -8 OFFCURVE",
"311 47 OFFCURVE",
"311 168 CURVE",
"311 297 LINE",
"214 297 LINE SMOOTH",
"108 297 OFFCURVE",
"34 264 OFFCURVE",
"34 138 CURVE SMOOTH",
"34 13 OFFCURVE",
"105 -8 OFFCURVE",
"168 -8 CURVE SMOOTH"
);
},
{
closed = 1;
nodes = (
"165 65 OFFCURVE",
"136 87 OFFCURVE",
"136 139 CURVE SMOOTH",
"136 196 OFFCURVE",
"171 226 OFFCURVE",
"222 226 CURVE SMOOTH",
"284 226 LINE",
"284 147 LINE SMOOTH",
"284 91 OFFCURVE",
"242 65 OFFCURVE",
"202 65 CURVE SMOOTH"
);
}
);
width = 425;
},
{
associatedMasterId = "4E2227F3-52E4-4048-A8EE-327B486EF0A4";
hints = (
{
horizontal = 1;
place = "{256, 21}";
},
{
horizontal = 1;
place = "{-8, 21}";
},
{
place = "{66, 22}";
},
{
place = "{394, 22}";
},
{
horizontal = 1;
place = "{508, -21}";
},
{
place = "{84, 22}";
}
);
layerId = "D261F1DE-8FFB-47E6-B9F6-696AA69BD79C";
name = del;
width = 512;
},
{
associatedMasterId = "4E2227F3-52E4-4048-A8EE-327B486EF0A4";
layerId = "7A81DE47-7CC7-4C35-ADB1-D4313EB948A3";
name = del;
width = 425;
},
{
associatedMasterId = "4E2227F3-52E4-4048-A8EE-327B486EF0A4";
hints = (
{
horizontal = 1;
place = "{256, 21}";
},
{
horizontal = 1;
place = "{-8, 21}";
},
{
place = "{66, 22}";
},
{
place = "{394, 22}";
},
{
horizontal = 1;
place = "{508, -21}";
},
{
place = "{84, 22}";
}
);
layerId = "EE4001EB-022A-491D-B88E-9DB6002CC5DC";
name = del;
width = 512;
},
{
associatedMasterId = "4E2227F3-52E4-4048-A8EE-327B486EF0A4";
layerId = "66CBEF86-FC53-4B39-A183-C611FDA1ACEA";
name = del;
width = 425;
}
);
leftKerningGroup = a;
rightKerningGroup = b;
unicode = 0061;
},
{
glyphname = b;
lastChange = "2017-03-24 06:12:27 +0000";
layers = (
{
components = (
{
name = b.bowl;
transform = "{1, 0, 0, 1, 110, 0}";
}
);
hints = (
{
origin = "{0, 2}";
target = "{0, 1}";
}
);
layerId = "262880E7-CFE1-4BDA-902E-E24798F3240A";
paths = (
{
closed = 1;
nodes = (
"130 0 LINE",
"130 700 LINE",
"108 700 LINE",
"108 0 LINE"
);
}
);
width = 540;
},
{
components = (
{
name = b.bowl;
transform = "{1, 0, 0, 1, 178, 0}";
}
);
layerId = "4E2227F3-52E4-4048-A8EE-327B486EF0A4";
paths = (
{
closed = 1;
nodes = (
"212 0 LINE",
"212 700 LINE",
"24 700 LINE",
"24 0 LINE"
);
}
);
width = 463;
},
{
components = (
{
name = b.bowl;
transform = "{1, 0, 0, 1, 165, 0}";
}
);
layerId = "FFFA8D72-12AC-4CE0-B2CA-57A29829F4DA";
paths = (
{
closed = 1;
nodes = (
"224 0 LINE",
"224 700 LINE",
"36 700 LINE",
"36 0 LINE"
);
}
);
width = 552;
},
{
components = (
{
name = b.bowl;
transform = "{1, 0, 0, 1, 79, 0}";
}
);
layerId = "DCBE1F7B-116A-43E0-B7B4-8657BA77D8B5";
paths = (
{
closed = 1;
nodes = (
"94 0 LINE",
"94 700 LINE",
"72 700 LINE",
"72 0 LINE"
);
}
);
width = 393;
}
);
leftKerningGroup = b;
rightKerningGroup = n;
unicode = 0062;
},
{
glyphname = c;
lastChange = "2017-03-24 06:13:37 +0000";
layers = (
{
anchors = (
{
name = top;
position = "{240, 508}";
}
);
hints = (
{
origin = "{0, 43}";
target = "{0, 18}";
},
{
horizontal = 1;
origin = "{0, 49}";
target = "{0, 12}";
},
{
horizontal = 1;
origin = "{0, 37}";
target = "{0, 24}";
},
{
origin = "{0, 30}";
target = "{0, 31}";
}
);
layerId = "262880E7-CFE1-4BDA-902E-E24798F3240A";
paths = (
{
closed = 1;
nodes = (
"330 -8 OFFCURVE",
"399 45 OFFCURVE",
"413 113 CURVE SMOOTH",
"415 124 OFFCURVE",
"415 129 OFFCURVE",
"416 137 CURVE",
"395 139 LINE",
"393 131 OFFCURVE",
"394 131 OFFCURVE",
"393 125 CURVE SMOOTH",
"382 64 OFFCURVE",
"322 13 OFFCURVE",
"240 13 CURVE SMOOTH",
"158 13 OFFCURVE",
"102 63 OFFCURVE",
"89 135 CURVE SMOOTH",
"85 156 OFFCURVE",
"85 193 OFFCURVE",
"85 250 CURVE SMOOTH",
"85 302 OFFCURVE",
"85 343 OFFCURVE",
"89 365 CURVE SMOOTH",
"102 436 OFFCURVE",
"158 487 OFFCURVE",
"240 487 CURVE SMOOTH",
"322 487 OFFCURVE",
"381 436 OFFCURVE",
"393 375 CURVE SMOOTH",
"394 369 OFFCURVE",
"395 361 OFFCURVE",
"396 352 CURVE",
"418 353 LINE",
"417 363 OFFCURVE",
"415 376 OFFCURVE",
"413 387 CURVE SMOOTH",
"400 455 OFFCURVE",
"330 508 OFFCURVE",
"240 508 CURVE SMOOTH",
"151 508 OFFCURVE",
"87 454 OFFCURVE",
"70 377 CURVE SMOOTH",
"62 345 OFFCURVE",
"63 310 OFFCURVE",
"63 251 CURVE SMOOTH",
"63 195 OFFCURVE",
"62 156 OFFCURVE",
"70 123 CURVE SMOOTH",
"88 46 OFFCURVE",
"151 -8 OFFCURVE",
"240 -8 CURVE SMOOTH"
);
}
);
width = 481;
},
{
anchors = (
{
name = top;
position = "{225, 532}";
}
);
layerId = "4E2227F3-52E4-4048-A8EE-327B486EF0A4";
paths = (
{
closed = 1;
nodes = (
"359 -8 OFFCURVE",
"435 57 OFFCURVE",
"435 170 CURVE SMOOTH",
"435 181 OFFCURVE",
"435 197 OFFCURVE",
"435 213 CURVE",
"247 215 LINE",
"247 205 OFFCURVE",
"247 195 OFFCURVE",
"247 185 CURVE SMOOTH",
"247 166 OFFCURVE",
"238 153 OFFCURVE",
"225 153 CURVE SMOOTH",
"211 153 OFFCURVE",
"202 166 OFFCURVE",
"202 185 CURVE SMOOTH",
"202 210 OFFCURVE",
"202 235 OFFCURVE",
"202 260 CURVE SMOOTH",
"202 285 OFFCURVE",
"202 310 OFFCURVE",
"202 335 CURVE SMOOTH",
"202 354 OFFCURVE",
"211 367 OFFCURVE",
"225 367 CURVE SMOOTH",
"238 367 OFFCURVE",
"247 354 OFFCURVE",
"247 335 CURVE SMOOTH",
"247 325 OFFCURVE",
"247 316 OFFCURVE",
"247 306 CURVE",
"435 313 LINE",
"435 327 OFFCURVE",
"435 340 OFFCURVE",
"435 350 CURVE SMOOTH",
"435 456 OFFCURVE",
"359 528 OFFCURVE",
"225 528 CURVE SMOOTH",
"91 528 OFFCURVE",
"14 456 OFFCURVE",
"14 350 CURVE SMOOTH",
"14 327 OFFCURVE",
"14 283 OFFCURVE",
"14 260 CURVE SMOOTH",
"14 237 OFFCURVE",
"14 193 OFFCURVE",
"14 170 CURVE SMOOTH",
"14 57 OFFCURVE",
"91 -8 OFFCURVE",
"225 -8 CURVE SMOOTH"
);
}
);
width = 449;
},
{
anchors = (
{
name = top;
position = "{276, 528}";
}
);
layerId = "FFFA8D72-12AC-4CE0-B2CA-57A29829F4DA";
paths = (
{
closed = 1;
nodes = (
"385 -8 OFFCURVE",
"479 46 OFFCURVE",
"515 144 CURVE SMOOTH",
"522 164 OFFCURVE",
"523 185 OFFCURVE",
"523 189 CURVE",
"338 219 LINE",
"337 208 OFFCURVE",
"336 202 OFFCURVE",
"335 199 CURVE SMOOTH",
"325 167 OFFCURVE",
"302 153 OFFCURVE",
"278 153 CURVE SMOOTH",
"253 153 OFFCURVE",
"230 169 OFFCURVE",
"221 193 CURVE SMOOTH",
"214 211 OFFCURVE",
"211 234 OFFCURVE",
"211 262 CURVE SMOOTH",
"211 288 OFFCURVE",
"214 310 OFFCURVE",
"221 327 CURVE SMOOTH",
"231 351 OFFCURVE",
"254 367 OFFCURVE",
"278 367 CURVE SMOOTH",
"305 367 OFFCURVE",
"328 349 OFFCURVE",
"335 327 CURVE SMOOTH",
"338 318 OFFCURVE",
"340 305 OFFCURVE",
"341 298 CURVE",
"525 327 LINE",
"525 329 OFFCURVE",
"526 349 OFFCURVE",
"515 379 CURVE SMOOTH",
"485 462 OFFCURVE",
"393 528 OFFCURVE",
"279 528 CURVE SMOOTH",
"169 528 OFFCURVE",
"78 471 OFFCURVE",
"41 376 CURVE SMOOTH",
"30 348 OFFCURVE",
"21 310 OFFCURVE",
"21 263 CURVE SMOOTH",
"21 225 OFFCURVE",
"27 185 OFFCURVE",
"41 149 CURVE SMOOTH",
"79 51 OFFCURVE",
"168 -8 OFFCURVE",
"279 -8 CURVE SMOOTH"
);
}
);
width = 546;
},
{
anchors = (
{
name = top;
position = "{176, 508}";
}
);
layerId = "DCBE1F7B-116A-43E0-B7B4-8657BA77D8B5";
paths = (
{
closed = 1;
nodes = (
"256 -8 OFFCURVE",
"311 52 OFFCURVE",
"311 115 CURVE SMOOTH",
"311 117 OFFCURVE",
"311 125 OFFCURVE",
"311 127 CURVE",
"289 127 LINE",
"289 125 OFFCURVE",
"289 117 OFFCURVE",
"289 115 CURVE SMOOTH",
"289 63 OFFCURVE",
"243 13 OFFCURVE",
"176 13 CURVE SMOOTH",
"110 13 OFFCURVE",
"64 63 OFFCURVE",
"64 135 CURVE SMOOTH",
"64 173 OFFCURVE",
"64 212 OFFCURVE",
"64 250 CURVE SMOOTH",
"64 288 OFFCURVE",
"64 327 OFFCURVE",
"64 365 CURVE SMOOTH",
"64 437 OFFCURVE",
"110 487 OFFCURVE",
"176 487 CURVE SMOOTH",
"243 487 OFFCURVE",
"289 437 OFFCURVE",
"289 385 CURVE SMOOTH",
"289 383 OFFCURVE",
"289 375 OFFCURVE",
"289 373 CURVE",
"311 373 LINE",
"311 374 OFFCURVE",
"311 384 OFFCURVE",
"311 385 CURVE SMOOTH",
"311 448 OFFCURVE",
"256 508 OFFCURVE",
"176 508 CURVE SMOOTH",
"97 508 OFFCURVE",
"42 448 OFFCURVE",
"42 365 CURVE SMOOTH",
"42 327 OFFCURVE",
"42 288 OFFCURVE",
"42 250 CURVE SMOOTH",
"42 212 OFFCURVE",
"42 173 OFFCURVE",
"42 135 CURVE SMOOTH",
"42 52 OFFCURVE",
"97 -8 OFFCURVE",
"176 -8 CURVE SMOOTH"
);
}
);
width = 353;
},
{
anchors = (
{
name = top;
position = "{260, 528}";
}
);
associatedMasterId = "FFFA8D72-12AC-4CE0-B2CA-57A29829F4DA";
layerId = "0E7C393E-0635-473F-B31A-CAEFC4379571";
name = "Feb 24 17, 16:06";
paths = (
{
closed = 1;
nodes = (
"372 -8 OFFCURVE",
"454 49 OFFCURVE",
"490 144 CURVE SMOOTH",
"497 163 OFFCURVE",
"502 183 OFFCURVE",
"505 204 CURVE",
"319 219 LINE",
"317 206 OFFCURVE",
"314 195 OFFCURVE",
"310 185 CURVE SMOOTH",
"302 165 OFFCURVE",
"285 153 OFFCURVE",
"260 153 CURVE SMOOTH",
"235 153 OFFCURVE",
"219 165 OFFCURVE",
"210 185 CURVE SMOOTH",
"201 205 OFFCURVE",
"198 232 OFFCURVE",
"198 262 CURVE SMOOTH",
"198 298 OFFCURVE",
"200 316 OFFCURVE",
"210 336 CURVE SMOOTH",
"220 355 OFFCURVE",
"235 367 OFFCURVE",
"260 367 CURVE SMOOTH",
"285 367 OFFCURVE",
"300 355 OFFCURVE",
"310 336 CURVE SMOOTH",
"316 324 OFFCURVE",
"319 309 OFFCURVE",
"321 295 CURVE",
"507 315 LINE",
"503 338 OFFCURVE",
"498 360 OFFCURVE",
"490 381 CURVE SMOOTH",
"454 476 OFFCURVE",
"372 528 OFFCURVE",
"260 528 CURVE SMOOTH",
"148 528 OFFCURVE",
"66 476 OFFCURVE",
"30 381 CURVE SMOOTH",
"17 346 OFFCURVE",
"10 307 OFFCURVE",
"10 263 CURVE SMOOTH",
"10 219 OFFCURVE",
"17 179 OFFCURVE",
"30 144 CURVE SMOOTH",
"66 49 OFFCURVE",
"148 -8 OFFCURVE",
"260 -8 CURVE SMOOTH"
);
}
);
width = 515;
visible = 1;
},
{
anchors = (
{
name = top;
position = "{223, 532}";
}
);
associatedMasterId = "4E2227F3-52E4-4048-A8EE-327B486EF0A4";
layerId = "A66C9DAC-E233-43FD-8EF1-F60ACA1546F6";
name = "Mar 6 17, 05:00";
paths = (
{
closed = 1;
nodes = (
"359 -8 OFFCURVE",
"435 57 OFFCURVE",
"435 170 CURVE SMOOTH",
"435 180 OFFCURVE",
"435 194 OFFCURVE",
"435 209 CURVE",
"247 214 LINE",
"246 184 OFFCURVE",
"245 171 OFFCURVE",
"241 163 CURVE SMOOTH",
"238 157 OFFCURVE",
"231 153 OFFCURVE",
"223 153 CURVE SMOOTH",
"215 153 OFFCURVE",
"207 157 OFFCURVE",
"204 163 CURVE SMOOTH",
"198 174 OFFCURVE",
"198 194 OFFCURVE",
"198 260 CURVE SMOOTH",
"198 332 OFFCURVE",
"197 348 OFFCURVE",
"204 360 CURVE SMOOTH",
"208 366 OFFCURVE",
"214 371 OFFCURVE",
"223 371 CURVE SMOOTH",
"231 371 OFFCURVE",
"238 366 OFFCURVE",
"241 360 CURVE SMOOTH",
"245 351 OFFCURVE",
"247 340 OFFCURVE",
"247 305 CURVE",
"435 311 LINE",
"435 326 OFFCURVE",
"435 340 OFFCURVE",
"435 350 CURVE SMOOTH",
"435 456 OFFCURVE",
"359 532 OFFCURVE",
"223 532 CURVE SMOOTH",
"87 532 OFFCURVE",
"10 456 OFFCURVE",
"10 350 CURVE SMOOTH",
"10 327 OFFCURVE",
"10 283 OFFCURVE",
"10 260 CURVE SMOOTH",
"10 237 OFFCURVE",
"10 193 OFFCURVE",
"10 170 CURVE SMOOTH",
"10 57 OFFCURVE",
"87 -8 OFFCURVE",
"223 -8 CURVE SMOOTH"
);
}
);
width = 443;
},
{
anchors = (
{
name = top;
position = "{257, 517}";
}
);
associatedMasterId = "FFFA8D72-12AC-4CE0-B2CA-57A29829F4DA";
hints = (
{
origin = "{0, 43}";
target = "{0, 18}";
},
{
horizontal = 1;
origin = "{0, 49}";
target = "{0, 12}";
},
{
horizontal = 1;
origin = "{0, 37}";
target = "{0, 24}";
},
{
origin = "{0, 30}";
target = "{0, 31}";
}
);
layerId = "61FC974D-32B2-4EBB-9AC3-8FEB0E22D734";
name = "{100,5}";
paths = (
{
closed = 1;
nodes = (
"359 -8 OFFCURVE",
"435 42 OFFCURVE",
"459 127 CURVE SMOOTH",
"460 131 OFFCURVE",
"462 141 OFFCURVE",
"465 152 CURVE",
"367 169 LINE",
"366 166 OFFCURVE",
"365 161 OFFCURVE",
"364 157 CURVE SMOOTH",
"348 107 OFFCURVE",
"307 78 OFFCURVE",
"255 78 CURVE SMOOTH",
"208 78 OFFCURVE",
"171 108 OFFCURVE",
"156 159 CURVE SMOOTH",
"148 188 OFFCURVE",
"143 223 OFFCURVE",
"143 255 CURVE SMOOTH",
"143 288 OFFCURVE",
"148 323 OFFCURVE",
"156 349 CURVE SMOOTH",
"172 401 OFFCURVE",
"209 431 OFFCURVE",
"257 431 CURVE SMOOTH",
"308 431 OFFCURVE",
"347 402 OFFCURVE",
"364 353 CURVE SMOOTH",
"365 350 OFFCURVE",
"367 343 OFFCURVE",
"368 334 CURVE",
"466 350 LINE",
"462 369 OFFCURVE",
"460 381 OFFCURVE",
"459 383 CURVE SMOOTH",
"432 467 OFFCURVE",
"356 517 OFFCURVE",
"255 517 CURVE SMOOTH",
"162 517 OFFCURVE",
"90 466 OFFCURVE",
"61 378 CURVE SMOOTH",
"50 344 OFFCURVE",
"43 299 OFFCURVE",
"43 256 CURVE SMOOTH",
"43 214 OFFCURVE",
"50 169 OFFCURVE",
"61 134 CURVE SMOOTH",
"90 45 OFFCURVE",
"162 -8 OFFCURVE",
"254 -8 CURVE SMOOTH"
);
}
);
width = 509;
}
);
leftKerningGroup = o;
rightKerningGroup = c;
unicode = 0063;
},
{
color = 3;
glyphname = e;
lastChange = "2017-03-24 06:13:37 +0000";
layers = (
{
anchors = (
{
name = top;
position = "{240, 508}";
}
);
hints = (
{
origin = "{0, 40}";
target = "{0, 12}";
},
{
origin = "{0, 24}";
target = "{0, 28}";
},
{
horizontal = 1;
origin = "{0, 28}";
target = "{0, 24}";
},
{
horizontal = 1;
origin = "{0, 34}";
target = "{0, 18}";
},
{
horizontal = 1;
origin = "{0, 46}";
target = "{0, 6}";
},
{
origin = "{0, 3}";
target = "{0, 2}";
}
);
layerId = "262880E7-CFE1-4BDA-902E-E24798F3240A";
paths = (
{
closed = 1;
nodes = (
"328 -8 OFFCURVE",
"392 44 OFFCURVE",
"411 118 CURVE",
"389 117 LINE",
"371 56 OFFCURVE",
"316 13 OFFCURVE",
"240 13 CURVE SMOOTH",
"158 13 OFFCURVE",
"102 63 OFFCURVE",
"89 135 CURVE SMOOTH",
"85 156 OFFCURVE",
"85 193 OFFCURVE",
"85 250 CURVE SMOOTH",
"85 302 OFFCURVE",
"85 343 OFFCURVE",
"89 365 CURVE SMOOTH",
"102 436 OFFCURVE",
"158 487 OFFCURVE",
"240 487 CURVE SMOOTH",
"322 487 OFFCURVE",
"379 436 OFFCURVE",
"393 365 CURVE SMOOTH",
"396 345 OFFCURVE",
"397 302 OFFCURVE",
"397 258 CURVE",
"406 267 LINE",
"75 267 LINE",
"75 249 LINE",
"419 249 LINE",
"419 335 OFFCURVE",
"419 350 OFFCURVE",
"413 377 CURVE SMOOTH",
"395 454 OFFCURVE",
"330 508 OFFCURVE",
"240 508 CURVE SMOOTH",
"151 508 OFFCURVE",
"87 454 OFFCURVE",
"70 377 CURVE SMOOTH",
"62 345 OFFCURVE",
"63 310 OFFCURVE",
"63 251 CURVE SMOOTH",
"63 195 OFFCURVE",
"62 156 OFFCURVE",
"70 123 CURVE SMOOTH",
"88 46 OFFCURVE",
"151 -8 OFFCURVE",
"240 -8 CURVE SMOOTH"
);
}
);
width = 473;
},
{
anchors = (
{
name = top;
position = "{274, 528}";
}
);
layerId = "FFFA8D72-12AC-4CE0-B2CA-57A29829F4DA";
paths = (
{
closed = 1;
nodes = (
"382 -8 OFFCURVE",
"452 23 OFFCURVE",
"507 81 CURVE",
"420 187 LINE",
"399 162 OFFCURVE",
"360 149 OFFCURVE",
"314 149 CURVE SMOOTH",
"258 149 OFFCURVE",
"230 169 OFFCURVE",
"220 193 CURVE SMOOTH",
"213 210 OFFCURVE",
"210 238 OFFCURVE",
"210 262 CURVE SMOOTH",
"210 287 OFFCURVE",
"213 309 OFFCURVE",
"220 327 CURVE SMOOTH",
"229 351 OFFCURVE",
"252 367 OFFCURVE",
"276 367 CURVE SMOOTH",
"302 367 OFFCURVE",
"323 351 OFFCURVE",
"332 327 CURVE SMOOTH",
"339 309 OFFCURVE",
"342 287 OFFCURVE",
"342 262 CURVE",
"413 305 LINE",
"156 305 LINE",
"156 213 LINE",
"531 213 LINE",
"531 298 OFFCURVE",
"523 343 OFFCURVE",
"512 373 CURVE SMOOTH",
"479 462 OFFCURVE",
"388 528 OFFCURVE",
"274 528 CURVE SMOOTH",
"168 528 OFFCURVE",
"78 471 OFFCURVE",
"41 375 CURVE SMOOTH",
"27 339 OFFCURVE",
"21 300 OFFCURVE",
"21 262 CURVE SMOOTH",
"21 219 OFFCURVE",
"29 181 OFFCURVE",
"41 149 CURVE SMOOTH",
"79 48 OFFCURVE",
"163 -8 OFFCURVE",
"289 -8 CURVE SMOOTH"
);
}
);
width = 549;
},
{
anchors = (
{
name = top;
position = "{225, 528}";
}
);
layerId = "4E2227F3-52E4-4048-A8EE-327B486EF0A4";
paths = (
{
closed = 1;
nodes = (
"366 -8 OFFCURVE",
"431 60 OFFCURVE",
"433 181 CURVE",
"250 192 LINE",
"250 176 OFFCURVE",
"244 153 OFFCURVE",
"225 153 CURVE SMOOTH",
"211 153 OFFCURVE",
"202 166 OFFCURVE",
"202 185 CURVE SMOOTH",
"202 210 OFFCURVE",
"202 235 OFFCURVE",
"202 260 CURVE SMOOTH",
"202 285 OFFCURVE",
"202 310 OFFCURVE",
"202 335 CURVE SMOOTH",
"202 354 OFFCURVE",
"211 367 OFFCURVE",
"225 367 CURVE SMOOTH",
"238 367 OFFCURVE",
"247 354 OFFCURVE",
"247 335 CURVE SMOOTH",
"247 316 OFFCURVE",
"247 298 OFFCURVE",
"247 279 CURVE",
"310 305 LINE",
"152 305 LINE",
"152 213 LINE",
"435 213 LINE",
"435 221 OFFCURVE",
"435 291 OFFCURVE",
"435 350 CURVE SMOOTH",
"435 456 OFFCURVE",
"359 528 OFFCURVE",
"225 528 CURVE SMOOTH",
"91 528 OFFCURVE",
"14 456 OFFCURVE",
"14 350 CURVE SMOOTH",
"14 327 OFFCURVE",
"14 283 OFFCURVE",
"14 260 CURVE SMOOTH",
"14 230 OFFCURVE",
"14 200 OFFCURVE",
"14 170 CURVE SMOOTH",
"14 57 OFFCURVE",
"91 -8 OFFCURVE",
"225 -8 CURVE SMOOTH"
);
}
);
width = 447;
},
{
anchors = (
{
name = top;
position = "{176, 508}";
}
);
layerId = "DCBE1F7B-116A-43E0-B7B4-8657BA77D8B5";
paths = (
{
closed = 1;
nodes = (
"247 -8 OFFCURVE",
"299 40 OFFCURVE",
"309 109 CURVE",
"287 108 LINE",
"277 51 OFFCURVE",
"234 13 OFFCURVE",
"176 13 CURVE SMOOTH",
"110 13 OFFCURVE",
"64 63 OFFCURVE",
"64 135 CURVE SMOOTH",
"64 173 OFFCURVE",
"64 212 OFFCURVE",
"64 250 CURVE SMOOTH",
"64 288 OFFCURVE",
"64 327 OFFCURVE",
"64 365 CURVE SMOOTH",
"64 437 OFFCURVE",
"110 487 OFFCURVE",
"176 487 CURVE SMOOTH",
"243 487 OFFCURVE",
"289 437 OFFCURVE",
"289 365 CURVE SMOOTH",
"289 327 OFFCURVE",
"289 288 OFFCURVE",
"289 261 CURVE",
"298 267 LINE",
"56 267 LINE",
"56 249 LINE",
"311 249 LINE",
"311 289 OFFCURVE",
"311 327 OFFCURVE",
"311 365 CURVE SMOOTH",
"311 448 OFFCURVE",
"256 508 OFFCURVE",
"176 508 CURVE SMOOTH",
"97 508 OFFCURVE",
"42 448 OFFCURVE",
"42 365 CURVE SMOOTH",
"42 327 OFFCURVE",
"42 288 OFFCURVE",
"42 250 CURVE SMOOTH",
"42 212 OFFCURVE",
"42 173 OFFCURVE",
"42 135 CURVE SMOOTH",
"42 52 OFFCURVE",
"97 -8 OFFCURVE",
"176 -8 CURVE SMOOTH"
);
}
);
width = 347;
},
{
anchors = (
{
name = top;
position = "{252, 528}";
}
);
associatedMasterId = "FFFA8D72-12AC-4CE0-B2CA-57A29829F4DA";
layerId = "C523A904-EA06-4FAF-AEC3-0CFA5C7EE4AC";
name = "Feb 19 17, 20:25";
paths = (
{
closed = 1;
nodes = (
"389 -7 OFFCURVE",
"479 61 OFFCURVE",
"485 162 CURVE",
"305 185 LINE",
"304 166 OFFCURVE",
"285 154 OFFCURVE",
"257 154 CURVE SMOOTH",
"222 154 OFFCURVE",
"198 188 OFFCURVE",
"198 239 CURVE SMOOTH",
"198 271 LINE SMOOTH",
"198 329 OFFCURVE",
"221 367 OFFCURVE",
"256 367 CURVE SMOOTH",
"289 367 OFFCURVE",
"311 338 OFFCURVE",
"311 294 CURVE",
"311 310 LINE",
"126 310 LINE",
"126 206 LINE",
"499 206 LINE",
"499 267 LINE SMOOTH",
"499 424 OFFCURVE",
"401 528 OFFCURVE",
"253 528 CURVE SMOOTH",
"107 528 OFFCURVE",
"10 428 OFFCURVE",
"10 277 CURVE SMOOTH",
"10 249 LINE SMOOTH",
"10 95 OFFCURVE",
"110 -7 OFFCURVE",
"259 -7 CURVE SMOOTH"
);
}
);
width = 509;
},
{
anchors = (
{
name = top;
position = "{226, 498}";
}
);
associatedMasterId = "262880E7-CFE1-4BDA-902E-E24798F3240A";
layerId = "2EFA006A-DDA3-4D17-BF31-C40C040EE571";
name = "Feb 24 17, 00:11";
paths = (
{
closed = 1;
nodes = (
"307 -8 OFFCURVE",
"370 42 OFFCURVE",
"385 116 CURVE",
"364 115 LINE",
"348 54 OFFCURVE",
"293 13 OFFCURVE",
"227 13 CURVE SMOOTH",
"137 13 OFFCURVE",
"77 81 OFFCURVE",
"77 182 CURVE SMOOTH",
"77 318 LINE SMOOTH",
"77 419 OFFCURVE",
"137 487 OFFCURVE",
"226 487 CURVE SMOOTH",
"316 487 OFFCURVE",
"376 419 OFFCURVE",
"376 318 CURVE SMOOTH",
"376 267 LINE",
"67 267 LINE",
"67 246 LINE",
"398 246 LINE",
"398 316 LINE SMOOTH",
"398 431 OFFCURVE",
"329 508 OFFCURVE",
"226 508 CURVE SMOOTH",
"123 508 OFFCURVE",
"55 432 OFFCURVE",
"55 317 CURVE SMOOTH",
"55 183 LINE SMOOTH",
"55 68 OFFCURVE",
"124 -8 OFFCURVE",
"227 -8 CURVE SMOOTH"
);
}
);
width = 453;
},
{
anchors = (
{
name = top;
position = "{252, 528}";
}
);
associatedMasterId = "FFFA8D72-12AC-4CE0-B2CA-57A29829F4DA";
layerId = "FDC1E1ED-A095-4F4A-B02A-1ACC860B025E";
name = "Feb 24 17, 00:13";
paths = (
{
closed = 1;
nodes = (
"390 -7 OFFCURVE",
"474 57 OFFCURVE",
"501 173 CURVE",
"313 194 LINE",
"304 168 OFFCURVE",
"287 154 OFFCURVE",
"260 154 CURVE SMOOTH",
"216 154 OFFCURVE",
"198 193 OFFCURVE",
"198 263 CURVE SMOOTH",
"198 263 LINE SMOOTH",
"198 328 OFFCURVE",
"216 367 OFFCURVE",
"260 367 CURVE SMOOTH",
"303 367 OFFCURVE",
"321 330 OFFCURVE",
"322 269 CURVE",
"322 306 LINE",
"162 306 LINE",
"162 219 LINE",
"510 219 LINE",
"510 263 LINE SMOOTH",
"510 435 OFFCURVE",
"420 528 OFFCURVE",
"260 528 CURVE SMOOTH",
"100 528 OFFCURVE",
"10 435 OFFCURVE",
"10 263 CURVE SMOOTH",
"10 263 LINE SMOOTH",
"10 90 OFFCURVE",
"100 -7 OFFCURVE",
"260 -7 CURVE SMOOTH"
);
}
);
width = 520;
},
{
anchors = (
{
name = top;
position = "{260, 528}";
}
);
associatedMasterId = "FFFA8D72-12AC-4CE0-B2CA-57A29829F4DA";
layerId = "5A86ED49-1A07-4A08-ACBE-BDE77E6ADA45";
name = "Feb 24 17, 00:19";
paths = (
{
closed = 1;
nodes = (
"510 219 LINE",
"510 284 OFFCURVE",
"510 327 OFFCURVE",
"490 381 CURVE SMOOTH",
"454 476 OFFCURVE",
"372 528 OFFCURVE",
"260 528 CURVE SMOOTH",
"148 528 OFFCURVE",
"66 476 OFFCURVE",
"30 381 CURVE SMOOTH",
"17 346 OFFCURVE",
"10 307 OFFCURVE",
"10 263 CURVE SMOOTH",
"10 219 OFFCURVE",
"17 179 OFFCURVE",
"30 144 CURVE SMOOTH",
"66 49 OFFCURVE",
"148 -8 OFFCURVE",
"260 -8 CURVE SMOOTH",
"384 -8 OFFCURVE",
"454 48 OFFCURVE",
"499 172 CURVE",
"313 193 LINE",
"302 168 OFFCURVE",
"289 154 OFFCURVE",
"260 154 CURVE SMOOTH",
"235 154 OFFCURVE",
"219 166 OFFCURVE",
"210 186 CURVE SMOOTH",
"201 206 OFFCURVE",
"198 233 OFFCURVE",
"198 263 CURVE SMOOTH",
"198 302 OFFCURVE",
"200 320 OFFCURVE",
"210 340 CURVE SMOOTH",
"220 359 OFFCURVE",
"235 371 OFFCURVE",
"260 371 CURVE SMOOTH",
"285 371 OFFCURVE",
"300 359 OFFCURVE",
"310 340 CURVE SMOOTH",
"316 328 OFFCURVE",
"319 313 OFFCURVE",
"321 296 CURVE",
"194 296 LINE",
"194 219 LINE"
);
}
);
width = 520;
},
{
anchors = (
{
name = top;
position = "{223, 528}";
}
);
associatedMasterId = "4E2227F3-52E4-4048-A8EE-327B486EF0A4";
layerId = "1607DCD5-9BA9-4F8D-B5DF-80154018F12C";
name = "Feb 24 17, 00:20";
paths = (
{
closed = 1;
nodes = (
"358 -7 OFFCURVE",
"429 67 OFFCURVE",
"428 181 CURVE",
"247 193 LINE",
"246 168 OFFCURVE",
"238 154 OFFCURVE",
"224 154 CURVE SMOOTH",
"207 154 OFFCURVE",
"198 168 OFFCURVE",
"198 193 CURVE SMOOTH",
"198 332 LINE SMOOTH",
"198 354 OFFCURVE",
"207 367 OFFCURVE",
"223 367 CURVE SMOOTH",
"238 367 OFFCURVE",
"247 354 OFFCURVE",
"247 332 CURVE SMOOTH",
"247 303 LINE",
"126 303 LINE",
"126 215 LINE",
"435 215 LINE",
"435 331 LINE SMOOTH",
"435 457 OFFCURVE",
"359 528 OFFCURVE",
"223 528 CURVE SMOOTH",
"87 528 OFFCURVE",
"10 457 OFFCURVE",
"10 331 CURVE SMOOTH",
"10 189 LINE SMOOTH",
"10 64 OFFCURVE",
"87 -7 OFFCURVE",
"223 -7 CURVE SMOOTH"
);
}
);
width = 445;
},
{
anchors = (
{
name = top;
position = "{203, 517}";
}
);
associatedMasterId = "4E2227F3-52E4-4048-A8EE-327B486EF0A4";
layerId = "A53D93E6-92CC-45B1-8880-653E9256B646";
name = "100,3} Feb 24 17, 00:22";
paths = (
{
closed = 1;
nodes = (
"303 -8 OFFCURVE",
"372 48 OFFCURVE",
"379 141 CURVE",
"280 143 LINE",
"272 102 OFFCURVE",
"241 79 OFFCURVE",
"204 79 CURVE SMOOTH",
"156 79 OFFCURVE",
"125 115 OFFCURVE",
"125 173 CURVE SMOOTH",
"125 339 LINE SMOOTH",
"125 395 OFFCURVE",
"156 431 OFFCURVE",
"203 431 CURVE SMOOTH",
"251 431 OFFCURVE",
"281 395 OFFCURVE",
"281 339 CURVE SMOOTH",
"281 298 LINE",
"86 298 LINE",
"86 215 LINE",
"381 215 LINE",
"381 337 LINE SMOOTH",
"381 449 OFFCURVE",
"314 517 OFFCURVE",
"203 517 CURVE SMOOTH",
"94 517 OFFCURVE",
"26 449 OFFCURVE",
"26 338 CURVE SMOOTH",
"26 171 LINE SMOOTH",
"26 61 OFFCURVE",
"93 -8 OFFCURVE",
"204 -8 CURVE SMOOTH"
);
}
);
width = 409;
},
{
anchors = (
{
name = top;
position = "{235, 517}";
}
);
associatedMasterId = "4E2227F3-52E4-4048-A8EE-327B486EF0A4";
layerId = "A47C68F1-3740-4053-814E-50DA5F989A02";
name = "100,5} Feb 24 17, 00:22";
paths = (
{
closed = 1;
nodes = (
"345 -8 OFFCURVE",
"415 47 OFFCURVE",
"436 143 CURVE",
"338 152 LINE",
"324 106 OFFCURVE",
"289 79 OFFCURVE",
"240 79 CURVE SMOOTH",
"169 79 OFFCURVE",
"131 134 OFFCURVE",
"131 230 CURVE SMOOTH",
"131 282 LINE SMOOTH",
"131 377 OFFCURVE",
"169 433 OFFCURVE",
"239 433 CURVE SMOOTH",
"309 433 OFFCURVE",
"348 378 OFFCURVE",
"348 284 CURVE",
"348 296 LINE",
"109 296 LINE",
"109 211 LINE",
"448 211 LINE",
"448 281 LINE SMOOTH",
"448 432 OFFCURVE",
"371 519 OFFCURVE",
"239 519 CURVE SMOOTH",
"107 519 OFFCURVE",
"31 432 OFFCURVE",
"31 281 CURVE SMOOTH",
"31 231 LINE SMOOTH",
"31 79 OFFCURVE",
"107 -8 OFFCURVE",
"240 -8 CURVE SMOOTH"
);
}
);
width = 479;
},
{
anchors = (
{
name = top;
position = "{243, 522}";
}
);
associatedMasterId = "4E2227F3-52E4-4048-A8EE-327B486EF0A4";
layerId = "5954086A-CF98-4407-B6DE-F8A05521AEBF";
name = "140,5} Feb 24 17, 00:22";
paths = (
{
closed = 1;
nodes = (
"365 -8 OFFCURVE",
"442 52 OFFCURVE",
"466 157 CURVE",
"327 171 LINE",
"315 134 OFFCURVE",
"288 113 OFFCURVE",
"249 113 CURVE SMOOTH",
"190 113 OFFCURVE",
"161 161 OFFCURVE",
"161 245 CURVE SMOOTH",
"161 273 LINE SMOOTH",
"161 357 OFFCURVE",
"190 405 OFFCURVE",
"249 405 CURVE SMOOTH",
"306 405 OFFCURVE",
"336 358 OFFCURVE",
"336 277 CURVE",
"336 308 LINE",
"133 308 LINE",
"133 213 LINE",
"476 213 LINE",
"476 273 LINE SMOOTH",
"476 433 OFFCURVE",
"393 525 OFFCURVE",
"249 525 CURVE SMOOTH",
"104 525 OFFCURVE",
"21 433 OFFCURVE",
"21 273 CURVE SMOOTH",
"21 246 LINE SMOOTH",
"21 84 OFFCURVE",
"104 -8 OFFCURVE",
"249 -8 CURVE SMOOTH"
);
}
);
width = 498;
},
{
anchors = (
{
name = top;
position = "{220, 525}";
}
);
associatedMasterId = "4E2227F3-52E4-4048-A8EE-327B486EF0A4";
layerId = "6A71C6C0-6498-4E03-A0EC-57F8322562B8";
name = "{166,3}";
paths = (
{
closed = 1;
nodes = (
"351 -8 OFFCURVE",
"415 57 OFFCURVE",
"418 171 CURVE",
"256 181 LINE",
"255 159 OFFCURVE",
"244 134 OFFCURVE",
"220 134 CURVE SMOOTH",
"199 134 OFFCURVE",
"185 152 OFFCURVE",
"185 178 CURVE SMOOTH",
"185 205 OFFCURVE",
"185 232 OFFCURVE",
"185 259 CURVE SMOOTH",
"185 285 OFFCURVE",
"185 312 OFFCURVE",
"185 339 CURVE SMOOTH",
"185 365 OFFCURVE",
"199 383 OFFCURVE",
"220 383 CURVE SMOOTH",
"240 383 OFFCURVE",
"254 365 OFFCURVE",
"254 339 CURVE SMOOTH",
"254 317 OFFCURVE",
"254 297 OFFCURVE",
"254 277 CURVE",
"310 310 LINE",
"141 310 LINE",
"141 210 LINE",
"420 210 LINE",
"420 223 OFFCURVE",
"420 296 OFFCURVE",
"420 352 CURVE SMOOTH",
"420 455 OFFCURVE",
"347 525 OFFCURVE",
"220 525 CURVE SMOOTH",
"93 525 OFFCURVE",
"19 455 OFFCURVE",
"19 352 CURVE SMOOTH",
"19 327 OFFCURVE",
"19 284 OFFCURVE",
"19 259 CURVE SMOOTH",
"19 228 OFFCURVE",
"19 196 OFFCURVE",
"19 165 CURVE SMOOTH",
"19 56 OFFCURVE",
"93 -8 OFFCURVE",
"220 -8 CURVE SMOOTH"
);
}
);
width = 437;
visible = 1;
},
{
anchors = (
{
name = top;
position = "{271, 525}";
}
);
associatedMasterId = "4E2227F3-52E4-4048-A8EE-327B486EF0A4";
hints = (
{
origin = "{0, 40}";
target = "{0, 12}";
},
{
origin = "{0, 24}";
target = "{0, 28}";
},
{
horizontal = 1;
origin = "{0, 28}";
target = "{0, 24}";
},
{
horizontal = 1;
origin = "{0, 34}";
target = "{0, 18}";
},
{
horizontal = 1;
origin = "{0, 46}";
target = "{0, 6}";
},
{
origin = "{0, 25}";
target = "{0, 2}";
}
);
layerId = "E8CA071A-13DC-4AE8-9510-CE5451652C21";
name = "{166,5}";
paths = (
{
closed = 1;
nodes = (
"370 -8 OFFCURVE",
"447 18 OFFCURVE",
"488 61 CURVE",
"433 176 LINE",
"389 141 OFFCURVE",
"353 134 OFFCURVE",
"320 134 CURVE SMOOTH",
"236 134 OFFCURVE",
"215 159 OFFCURVE",
"204 185 CURVE SMOOTH",
"196 203 OFFCURVE",
"195 232 OFFCURVE",
"195 260 CURVE SMOOTH",
"195 289 OFFCURVE",
"198 314 OFFCURVE",
"204 332 CURVE SMOOTH",
"214 362 OFFCURVE",
"241 383 OFFCURVE",
"273 383 CURVE SMOOTH",
"306 383 OFFCURVE",
"331 362 OFFCURVE",
"341 332 CURVE SMOOTH",
"348 314 OFFCURVE",
"350 289 OFFCURVE",
"350 261 CURVE",
"413 302 LINE",
"147 302 LINE",
"147 210 LINE",
"517 210 LINE",
"517 296 OFFCURVE",
"510 344 OFFCURVE",
"500 374 CURVE SMOOTH",
"469 461 OFFCURVE",
"381 525 OFFCURVE",
"271 525 CURVE SMOOTH",
"167 525 OFFCURVE",
"81 469 OFFCURVE",
"46 375 CURVE SMOOTH",
"33 340 OFFCURVE",
"28 301 OFFCURVE",
"28 261 CURVE SMOOTH",
"28 216 OFFCURVE",
"35 178 OFFCURVE",
"46 146 CURVE SMOOTH",
"82 48 OFFCURVE",
"162 -8 OFFCURVE",
"286 -8 CURVE SMOOTH"
);
}
);
width = 543;
visible = 1;
},
{
anchors = (
{
name = top;
position = "{260, 528}";
}
);
associatedMasterId = "FFFA8D72-12AC-4CE0-B2CA-57A29829F4DA";
layerId = "76D52448-D1B4-4691-A635-AFF5EA335E05";
name = "Feb 24 17, 16:07";
paths = (
{
closed = 1;
nodes = (
"382 -8 OFFCURVE",
"466 49 OFFCURVE",
"501 172 CURVE",
"317 192 LINE",
"306 167 OFFCURVE",
"291 153 OFFCURVE",
"261 153 CURVE SMOOTH",
"235 153 OFFCURVE",
"217 165 OFFCURVE",
"209 185 CURVE SMOOTH",
"201 205 OFFCURVE",
"198 232 OFFCURVE",
"198 262 CURVE SMOOTH",
"198 305 OFFCURVE",
"200 318 OFFCURVE",
"209 336 CURVE SMOOTH",
"219 355 OFFCURVE",
"235 367 OFFCURVE",
"260 367 CURVE SMOOTH",
"285 367 OFFCURVE",
"301 355 OFFCURVE",
"311 336 CURVE SMOOTH",
"317 324 OFFCURVE",
"320 312 OFFCURVE",
"321 305 CURVE",
"194 305 LINE",
"194 221 LINE",
"510 221 LINE",
"510 279 OFFCURVE",
"510 327 OFFCURVE",
"490 381 CURVE SMOOTH",
"454 476 OFFCURVE",
"372 528 OFFCURVE",
"260 528 CURVE SMOOTH",
"148 528 OFFCURVE",
"66 476 OFFCURVE",
"30 381 CURVE SMOOTH",
"17 346 OFFCURVE",
"10 307 OFFCURVE",
"10 263 CURVE SMOOTH",
"10 219 OFFCURVE",
"17 179 OFFCURVE",
"30 144 CURVE SMOOTH",
"66 49 OFFCURVE",
"146 -8 OFFCURVE",
"264 -8 CURVE SMOOTH"
);
}
);
width = 520;
},
{
anchors = (
{
name = top;
position = "{260, 528}";
}
);
associatedMasterId = "FFFA8D72-12AC-4CE0-B2CA-57A29829F4DA";
layerId = "FB4BB15E-EC4F-4C4F-8BD5-8A571EB496CE";
name = "Feb 24 17, 16:07";
paths = (
{
closed = 1;
nodes = (
"382 -8 OFFCURVE",
"466 49 OFFCURVE",
"501 172 CURVE",
"317 192 LINE",
"306 167 OFFCURVE",
"291 153 OFFCURVE",
"261 153 CURVE SMOOTH",
"235 153 OFFCURVE",
"217 165 OFFCURVE",
"209 185 CURVE SMOOTH",
"201 205 OFFCURVE",
"198 232 OFFCURVE",
"198 262 CURVE SMOOTH",
"198 305 OFFCURVE",
"200 318 OFFCURVE",
"209 336 CURVE SMOOTH",
"219 355 OFFCURVE",
"235 367 OFFCURVE",
"260 367 CURVE SMOOTH",
"285 367 OFFCURVE",
"301 355 OFFCURVE",
"311 336 CURVE SMOOTH",
"317 324 OFFCURVE",
"320 312 OFFCURVE",
"321 305 CURVE",
"194 305 LINE",
"194 221 LINE",
"510 221 LINE",
"510 279 OFFCURVE",
"510 327 OFFCURVE",
"490 381 CURVE SMOOTH",
"454 476 OFFCURVE",
"372 528 OFFCURVE",
"260 528 CURVE SMOOTH",
"148 528 OFFCURVE",
"66 476 OFFCURVE",
"30 381 CURVE SMOOTH",
"17 346 OFFCURVE",
"10 307 OFFCURVE",
"10 263 CURVE SMOOTH",
"10 219 OFFCURVE",
"17 179 OFFCURVE",
"30 144 CURVE SMOOTH",
"66 49 OFFCURVE",
"146 -8 OFFCURVE",
"264 -8 CURVE SMOOTH"
);
}
);
width = 520;
},
{
anchors = (
{
name = top;
position = "{260, 528}";
}
);
associatedMasterId = "FFFA8D72-12AC-4CE0-B2CA-57A29829F4DA";
layerId = "508D10E2-9AA1-4CA2-8633-0B44D5E80ED3";
name = "Feb 24 17, 16:07";
paths = (
{
closed = 1;
nodes = (
"382 -8 OFFCURVE",
"466 49 OFFCURVE",
"501 172 CURVE",
"317 192 LINE",
"306 167 OFFCURVE",
"291 153 OFFCURVE",
"261 153 CURVE SMOOTH",
"235 153 OFFCURVE",
"217 165 OFFCURVE",
"209 185 CURVE SMOOTH",
"201 205 OFFCURVE",
"198 232 OFFCURVE",
"198 262 CURVE SMOOTH",
"198 305 OFFCURVE",
"200 318 OFFCURVE",
"209 336 CURVE SMOOTH",
"219 355 OFFCURVE",
"235 367 OFFCURVE",
"260 367 CURVE SMOOTH",
"285 367 OFFCURVE",
"301 355 OFFCURVE",
"311 336 CURVE SMOOTH",
"317 324 OFFCURVE",
"320 312 OFFCURVE",
"321 305 CURVE",
"194 305 LINE",
"194 221 LINE",
"510 221 LINE",
"510 279 OFFCURVE",
"510 327 OFFCURVE",
"490 381 CURVE SMOOTH",
"454 476 OFFCURVE",
"372 528 OFFCURVE",
"260 528 CURVE SMOOTH",
"148 528 OFFCURVE",
"66 476 OFFCURVE",
"30 381 CURVE SMOOTH",
"17 346 OFFCURVE",
"10 307 OFFCURVE",
"10 263 CURVE SMOOTH",
"10 219 OFFCURVE",
"17 179 OFFCURVE",
"30 144 CURVE SMOOTH",
"66 49 OFFCURVE",
"146 -8 OFFCURVE",
"264 -8 CURVE SMOOTH"
);
}
);
width = 520;
},
{
anchors = (
{
name = top;
position = "{260, 528}";
}
);
associatedMasterId = "FFFA8D72-12AC-4CE0-B2CA-57A29829F4DA";
layerId = "597A1CD8-EC27-4335-B9E3-3E535B12BDCF";
name = "Feb 24 17, 16:07";
paths = (
{
closed = 1;
nodes = (
"382 -8 OFFCURVE",
"466 49 OFFCURVE",
"501 172 CURVE",
"317 192 LINE",
"306 167 OFFCURVE",
"291 153 OFFCURVE",
"261 153 CURVE SMOOTH",
"235 153 OFFCURVE",
"217 165 OFFCURVE",
"209 185 CURVE SMOOTH",
"201 205 OFFCURVE",
"198 232 OFFCURVE",
"198 262 CURVE SMOOTH",
"198 305 OFFCURVE",
"200 318 OFFCURVE",
"209 336 CURVE SMOOTH",
"219 355 OFFCURVE",
"235 367 OFFCURVE",
"260 367 CURVE SMOOTH",
"285 367 OFFCURVE",
"301 355 OFFCURVE",
"311 336 CURVE SMOOTH",
"317 324 OFFCURVE",
"320 312 OFFCURVE",
"321 305 CURVE",
"194 305 LINE",
"194 221 LINE",
"510 221 LINE",
"510 279 OFFCURVE",
"510 327 OFFCURVE",
"490 381 CURVE SMOOTH",
"454 476 OFFCURVE",
"372 528 OFFCURVE",
"260 528 CURVE SMOOTH",
"148 528 OFFCURVE",
"66 476 OFFCURVE",
"30 381 CURVE SMOOTH",
"17 346 OFFCURVE",
"10 307 OFFCURVE",
"10 263 CURVE SMOOTH",
"10 219 OFFCURVE",
"17 179 OFFCURVE",
"30 144 CURVE SMOOTH",
"66 49 OFFCURVE",
"146 -8 OFFCURVE",
"264 -8 CURVE SMOOTH"
);
}
);
width = 520;
},
{
anchors = (
{
name = top;
position = "{223, 532}";
}
);
associatedMasterId = "4E2227F3-52E4-4048-A8EE-327B486EF0A4";
layerId = "A2BBABA4-A182-4348-8C30-8AD760BED60C";
name = "Mar 6 17, 05:03";
paths = (
{
closed = 1;
nodes = (
"357 -8 OFFCURVE",
"435 54 OFFCURVE",
"435 175 CURVE",
"247 192 LINE",
"246 172 OFFCURVE",
"244 153 OFFCURVE",
"223 153 CURVE SMOOTH",
"215 153 OFFCURVE",
"207 157 OFFCURVE",
"204 163 CURVE",
"198 174 OFFCURVE",
"198 325 OFFCURVE",
"198 260 CURVE SMOOTH",
"198 236 OFFCURVE",
"197 348 OFFCURVE",
"204 360 CURVE",
"208 366 OFFCURVE",
"214 371 OFFCURVE",
"223 371 CURVE SMOOTH",
"231 371 OFFCURVE",
"239 366 OFFCURVE",
"242 360 CURVE",
"249 348 OFFCURVE",
"247 332 OFFCURVE",
"247 260 CURVE",
"323 303 LINE",
"162 303 LINE",
"162 215 LINE",
"435 215 LINE",
"435 270 OFFCURVE",
"435 294 OFFCURVE",
"435 350 CURVE SMOOTH",
"435 456 OFFCURVE",
"359 532 OFFCURVE",
"223 532 CURVE SMOOTH",
"87 532 OFFCURVE",
"10 456 OFFCURVE",
"10 350 CURVE SMOOTH",
"10 327 OFFCURVE",
"10 283 OFFCURVE",
"10 260 CURVE SMOOTH",
"10 230 OFFCURVE",
"10 200 OFFCURVE",
"10 170 CURVE SMOOTH",
"10 57 OFFCURVE",
"87 -8 OFFCURVE",
"223 -8 CURVE SMOOTH"
);
}
);
width = 445;
visible = 1;
},
{
anchors = (
{
name = top;
position = "{259, 517}";
}
);
associatedMasterId = "4E2227F3-52E4-4048-A8EE-327B486EF0A4";
hints = (
{
origin = "{0, 40}";
target = "{0, 9}";
},
{
origin = "{0, 24}";
target = "{0, 28}";
},
{
horizontal = 1;
origin = "{0, 28}";
target = "{0, 24}";
},
{
horizontal = 1;
origin = "{0, 34}";
target = "{0, 18}";
},
{
horizontal = 1;
origin = "{0, 46}";
target = "{0, 6}";
},
{
origin = "{0, 25}";
target = "{0, 28}";
}
);
layerId = "2A2B9E74-0281-441B-9A83-648CC11D66AE";
name = "{100,5}";
paths = (
{
closed = 1;
nodes = (
"356 -8 OFFCURVE",
"430 33 OFFCURVE",
"463 103 CURVE",
"390 151 LINE",
"371 105 OFFCURVE",
"328 78 OFFCURVE",
"274 78 CURVE SMOOTH",
"212 78 OFFCURVE",
"168 109 OFFCURVE",
"155 163 CURVE SMOOTH",
"148 189 OFFCURVE",
"144 223 OFFCURVE",
"144 255 CURVE SMOOTH",
"144 285 OFFCURVE",
"148 319 OFFCURVE",
"155 347 CURVE SMOOTH",
"167 400 OFFCURVE",
"206 431 OFFCURVE",
"260 431 CURVE SMOOTH",
"314 431 OFFCURVE",
"353 400 OFFCURVE",
"366 347 CURVE SMOOTH",
"370 333 OFFCURVE",
"372 300 OFFCURVE",
"372 260 CURVE",
"411 297 LINE",
"118 297 LINE",
"118 218 LINE",
"473 218 LINE",
"473 284 OFFCURVE",
"469 349 OFFCURVE",
"461 375 CURVE SMOOTH",
"434 464 OFFCURVE",
"359 517 OFFCURVE",
"259 517 CURVE SMOOTH",
"161 517 OFFCURVE",
"88 465 OFFCURVE",
"61 376 CURVE SMOOTH",
"50 343 OFFCURVE",
"44 298 OFFCURVE",
"44 256 CURVE SMOOTH",
"44 215 OFFCURVE",
"50 170 OFFCURVE",
"61 135 CURVE SMOOTH",
"89 45 OFFCURVE",
"164 -8 OFFCURVE",
"265 -8 CURVE SMOOTH"
);
}
);
width = 512;
},
{
anchors = (
{
name = top;
position = "{200, 517}";
}
);
associatedMasterId = "4E2227F3-52E4-4048-A8EE-327B486EF0A4";
layerId = "08201EB5-B49F-440A-802B-CA47CCD12539";
name = "{100,3}";
paths = (
{
closed = 1;
nodes = (
"304 -8 OFFCURVE",
"362 49 OFFCURVE",
"368 142 CURVE",
"271 147 LINE",
"266 109 OFFCURVE",
"240 78 OFFCURVE",
"200 78 CURVE SMOOTH",
"159 78 OFFCURVE",
"130 111 OFFCURVE",
"130 158 CURVE SMOOTH",
"130 190 OFFCURVE",
"130 223 OFFCURVE",
"130 255 CURVE SMOOTH",
"130 286 OFFCURVE",
"130 319 OFFCURVE",
"130 351 CURVE SMOOTH",
"130 398 OFFCURVE",
"159 431 OFFCURVE",
"200 431 CURVE SMOOTH",
"242 431 OFFCURVE",
"271 398 OFFCURVE",
"271 351 CURVE SMOOTH",
"271 322 OFFCURVE",
"271 293 OFFCURVE",
"271 270 CURVE",
"305 296 LINE",
"102 296 LINE",
"102 213 LINE",
"370 213 LINE",
"370 238 OFFCURVE",
"370 310 OFFCURVE",
"370 358 CURVE SMOOTH",
"370 452 OFFCURVE",
"306 517 OFFCURVE",
"200 517 CURVE SMOOTH",
"95 517 OFFCURVE",
"30 452 OFFCURVE",
"30 358 CURVE SMOOTH",
"30 327 OFFCURVE",
"30 286 OFFCURVE",
"30 255 CURVE SMOOTH",
"30 221 OFFCURVE",
"30 185 OFFCURVE",
"30 151 CURVE SMOOTH",
"30 54 OFFCURVE",
"95 -8 OFFCURVE",
"200 -8 CURVE SMOOTH"
);
}
);
width = 395;
},
{
anchors = (
{
name = top;
position = "{246, 525}";
}
);
associatedMasterId = "DCBE1F7B-116A-43E0-B7B4-8657BA77D8B5";
hints = (
{
origin = "{0, 40}";
target = "{0, 12}";
},
{
origin = "{0, 24}";
target = "{0, 28}";
},
{
horizontal = 1;
origin = "{0, 28}";
target = "{0, 24}";
},
{
horizontal = 1;
origin = "{0, 34}";
target = "{0, 18}";
},
{
horizontal = 1;
origin = "{0, 46}";
target = "{0, 6}";
},
{
origin = "{0, 25}";
target = "{0, 2}";
}
);
layerId = "DFA1BEED-08E5-4328-AC15-805F6F7DFFB0";
name = "{166,4}";
paths = (
{
closed = 1;
nodes = (
"356 -8 OFFCURVE",
"451 52 OFFCURVE",
"460 155 CURVE",
"313 179 LINE",
"310 161 OFFCURVE",
"289 134 OFFCURVE",
"258 134 CURVE SMOOTH",
"221 134 OFFCURVE",
"203 156 OFFCURVE",
"196 182 CURVE SMOOTH",
"190 203 OFFCURVE",
"191 234 OFFCURVE",
"191 266 CURVE SMOOTH",
"191 298 OFFCURVE",
"192 316 OFFCURVE",
"196 335 CURVE SMOOTH",
"203 366 OFFCURVE",
"217 383 OFFCURVE",
"246 383 CURVE SMOOTH",
"273 383 OFFCURVE",
"291 368 OFFCURVE",
"298 336 CURVE SMOOTH",
"302 316 OFFCURVE",
"303 293 OFFCURVE",
"303 269 CURVE",
"362 305 LINE",
"145 305 LINE",
"145 211 LINE",
"469 211 LINE",
"469 268 OFFCURVE",
"469 314 OFFCURVE",
"458 363 CURVE SMOOTH",
"434 470 OFFCURVE",
"369 525 OFFCURVE",
"248 525 CURVE SMOOTH",
"118 525 OFFCURVE",
"57 461 OFFCURVE",
"34 364 CURVE SMOOTH",
"27 334 OFFCURVE",
"24 304 OFFCURVE",
"24 263 CURVE SMOOTH",
"24 221 OFFCURVE",
"27 187 OFFCURVE",
"34 156 CURVE SMOOTH",
"56 58 OFFCURVE",
"113 -8 OFFCURVE",
"250 -8 CURVE SMOOTH"
);
}
);
width = 490;
}
);
leftKerningGroup = o;
rightKerningGroup = e;
unicode = 0065;
},
{
color = 3;
glyphname = f;
lastChange = "2017-03-24 06:13:37 +0000";
layers = (
{
hints = (
{
horizontal = 1;
origin = "{1, 1}";
target = "{1, 0}";
},
{
horizontal = 1;
origin = "{0, 5}";
target = "{0, 6}";
},
{
origin = "{0, 10}";
target = "{0, 1}";
}
);
layerId = "262880E7-CFE1-4BDA-902E-E24798F3240A";
paths = (
{
closed = 1;
nodes = (
"154 0 LINE",
"154 540 LINE SMOOTH",
"154 627 OFFCURVE",
"173 679 OFFCURVE",
"268 679 CURVE SMOOTH",
"299 679 LINE",
"299 700 LINE",
"268 700 LINE SMOOTH",
"160 700 OFFCURVE",
"133 640 OFFCURVE",
"133 540 CURVE SMOOTH",
"133 0 LINE"
);
},
{
closed = 1;
nodes = (
"294 479 LINE",
"294 500 LINE",
"54 500 LINE",
"54 479 LINE"
);
}
);
width = 339;
},
{
layerId = "4E2227F3-52E4-4048-A8EE-327B486EF0A4";
paths = (
{
closed = 1;
nodes = (
"241 0 LINE",
"241 539 LINE SMOOTH",
"241 557 OFFCURVE",
"254 572 OFFCURVE",
"278 575 CURVE",
"285 575 LINE",
"285 700 LINE",
"278 700 LINE",
"136 707 OFFCURVE",
"53 683 OFFCURVE",
"53 556 CURVE SMOOTH",
"53 0 LINE"
);
},
{
closed = 1;
nodes = (
"299 390 LINE",
"299 520 LINE",
"12 520 LINE",
"12 390 LINE"
);
}
);
width = 309;
},
{
layerId = "FFFA8D72-12AC-4CE0-B2CA-57A29829F4DA";
paths = (
{
closed = 1;
nodes = (
"277 0 LINE",
"277 539 LINE SMOOTH",
"277 562 OFFCURVE",
"287 572 OFFCURVE",
"314 575 CURVE",
"371 575 LINE",
"371 700 LINE",
"314 700 LINE",
"152 708 OFFCURVE",
"89 668 OFFCURVE",
"89 556 CURVE SMOOTH",
"89 0 LINE"
);
},
{
closed = 1;
nodes = (
"385 370 LINE",
"385 520 LINE",
"18 520 LINE",
"18 370 LINE"
);
}
);
width = 400;
},
{
layerId = "DCBE1F7B-116A-43E0-B7B4-8657BA77D8B5";
paths = (
{
closed = 1;
nodes = (
"118 0 LINE",
"118 550 LINE SMOOTH",
"118 637 OFFCURVE",
"131 689 OFFCURVE",
"201 689 CURVE SMOOTH",
"226 689 LINE",
"226 710 LINE",
"200 710 LINE SMOOTH",
"118 710 OFFCURVE",
"96 650 OFFCURVE",
"96 550 CURVE SMOOTH",
"96 0 LINE"
);
},
{
closed = 1;
nodes = (
"222 479 LINE",
"222 500 LINE",
"36 500 LINE",
"36 479 LINE"
);
}
);
width = 252;
},
{
associatedMasterId = "FFFA8D72-12AC-4CE0-B2CA-57A29829F4DA";
layerId = "2C93A357-82AB-483E-BCC8-F28359C8C182";
name = "{100,5}";
paths = (
{
closed = 1;
nodes = (
"218 0 LINE",
"218 524 LINE",
"218 593 OFFCURVE",
"237 613 OFFCURVE",
"302 613 CURVE SMOOTH",
"336 613 LINE",
"336 700 LINE",
"292 700 LINE SMOOTH",
"158 700 OFFCURVE",
"118 661 OFFCURVE",
"118 530 CURVE",
"118 0 LINE"
);
},
{
closed = 1;
nodes = (
"336 418 LINE",
"336 510 LINE",
"37 510 LINE",
"37 418 LINE"
);
}
);
width = 367;
}
);
leftKerningGroup = t;
unicode = 0066;
},
{
glyphname = g;
lastChange = "2017-03-24 06:12:27 +0000";
layers = (
{
components = (
{
name = b.bowl;
transform = "{-1, 0, 0, 1, 430, 0}";
}
);
hints = (
{
origin = "{0, 4}";
target = "{0, 3}";
},
{
horizontal = 1;
origin = "{0, 9}";
target = "{0, 8}";
}
);
layerId = "262880E7-CFE1-4BDA-902E-E24798F3240A";
paths = (
{
closed = 1;
nodes = (
"358 -206 OFFCURVE",
"432 -132 OFFCURVE",
"432 0 CURVE SMOOTH",
"432 500 LINE",
"410 500 LINE",
"410 0 LINE SMOOTH",
"410 -118 OFFCURVE",
"344 -184 OFFCURVE",
"231 -179 CURVE",
"231 -200 LINE"
);
}
);
width = 540;
},
{
components = (
{
name = b.bowl;
transform = "{-1, 0, 0, 1, 285, 0}";
}
);
layerId = "4E2227F3-52E4-4048-A8EE-327B486EF0A4";
paths = (
{
closed = 1;
nodes = (
"385 -233 OFFCURVE",
"438 -115 OFFCURVE",
"438 34 CURVE SMOOTH",
"438 520 LINE",
"250 520 LINE",
"250 54 LINE SMOOTH",
"250 -14 OFFCURVE",
"243 -56 OFFCURVE",
"98 -45 CURVE",
"98 -207 LINE"
);
}
);
width = 462;
},
{
components = (
{
name = b.bowl;
transform = "{-1, 0, 0, 1, 387, 0}";
}
);
layerId = "FFFA8D72-12AC-4CE0-B2CA-57A29829F4DA";
paths = (
{
closed = 1;
nodes = (
"380 -231 OFFCURVE",
"516 -152 OFFCURVE",
"516 34 CURVE SMOOTH",
"516 520 LINE",
"328 520 LINE",
"328 21 LINE SMOOTH",
"328 -41 OFFCURVE",
"256 -62 OFFCURVE",
"116 -44 CURVE",
"116 -200 LINE"
);
}
);
width = 552;
},
{
components = (
{
name = b.bowl;
transform = "{-1, 0, 0, 1, 314, 0}";
}
);
layerId = "DCBE1F7B-116A-43E0-B7B4-8657BA77D8B5";
paths = (
{
closed = 1;
nodes = (
"266 -204 OFFCURVE",
"321 -130 OFFCURVE",
"321 0 CURVE SMOOTH",
"321 500 LINE",
"298 500 LINE",
"298 0 LINE SMOOTH",
"298 -117 OFFCURVE",
"252 -183 OFFCURVE",
"173 -179 CURVE",
"173 -200 LINE"
);
}
);
width = 393;
}
);
leftKerningGroup = d;
rightKerningGroup = g;
unicode = 0067;
},
{
glyphname = h;
lastChange = "2017-03-24 06:12:27 +0000";
layers = (
{
components = (
{
name = n.curve;
transform = "{1, 0, 0, 1, 112, 0}";
}
);
hints = (
{
origin = "{0, 2}";
target = "{0, 1}";
}
);
layerId = "262880E7-CFE1-4BDA-902E-E24798F3240A";
paths = (
{
closed = 1;
nodes = (
"130 0 LINE",
"130 700 LINE",
"108 700 LINE",
"108 0 LINE"
);
}
);
width = 543;
},
{
components = (
{
name = n.curve;
transform = "{1, 0, 0, 1, 176, 0}";
}
);
layerId = "4E2227F3-52E4-4048-A8EE-327B486EF0A4";
paths = (
{
closed = 1;
nodes = (
"212 0 LINE",
"212 700 LINE",
"24 700 LINE",
"24 0 LINE"
);
}
);
width = 464;
},
{
components = (
{
name = n.curve;
transform = "{1, 0, 0, 1, 185, 0}";
}
);
layerId = "FFFA8D72-12AC-4CE0-B2CA-57A29829F4DA";
paths = (
{
closed = 1;
nodes = (
"224 0 LINE",
"224 700 LINE",
"36 700 LINE",
"36 0 LINE"
);
}
);
width = 555;
},
{
components = (
{
name = n.curve;
transform = "{1, 0, 0, 1, 79, 0}";
}
);
layerId = "DCBE1F7B-116A-43E0-B7B4-8657BA77D8B5";
paths = (
{
closed = 1;
nodes = (
"94 0 LINE",
"94 700 LINE",
"72 700 LINE",
"72 0 LINE"
);
}
);
width = 393;
}
);
leftKerningGroup = b;
rightKerningGroup = n;
unicode = 0068;
},
{
glyphname = i;
lastChange = "2017-03-24 06:11:59 +0000";
layers = (
{
hints = (
{
origin = "{0, 2}";
target = "{0, 1}";
}
);
layerId = "262880E7-CFE1-4BDA-902E-E24798F3240A";
paths = (
{
closed = 1;
nodes = (
"142 0 LINE",
"142 500 LINE",
"120 500 LINE",
"120 0 LINE"
);
},
{
closed = 1;
nodes = (
"149 620 OFFCURVE",
"162 633 OFFCURVE",
"162 650 CURVE SMOOTH",
"162 666 OFFCURVE",
"149 679 OFFCURVE",
"131 679 CURVE SMOOTH",
"113 679 OFFCURVE",
"99 666 OFFCURVE",
"99 650 CURVE SMOOTH",
"99 633 OFFCURVE",
"113 620 OFFCURVE",
"131 620 CURVE SMOOTH"
);
}
);
width = 270;
},
{
layerId = "4E2227F3-52E4-4048-A8EE-327B486EF0A4";
paths = (
{
closed = 1;
nodes = (
"220 0 LINE",
"220 520 LINE",
"32 520 LINE",
"32 0 LINE"
);
},
{
closed = 1;
nodes = (
"189 542 OFFCURVE",
"230 584 OFFCURVE",
"230 647 CURVE SMOOTH",
"230 710 OFFCURVE",
"189 752 OFFCURVE",
"126 752 CURVE SMOOTH",
"64 752 OFFCURVE",
"22 710 OFFCURVE",
"22 647 CURVE SMOOTH",
"22 584 OFFCURVE",
"64 542 OFFCURVE",
"126 542 CURVE SMOOTH"
);
}
);
width = 254;
},
{
layerId = "FFFA8D72-12AC-4CE0-B2CA-57A29829F4DA";
paths = (
{
closed = 1;
nodes = (
"235 0 LINE",
"235 520 LINE",
"47 520 LINE",
"47 0 LINE"
);
},
{
closed = 1;
nodes = (
"206 536 OFFCURVE",
"249 578 OFFCURVE",
"249 641 CURVE SMOOTH",
"249 704 OFFCURVE",
"206 746 OFFCURVE",
"141 746 CURVE SMOOTH",
"77 746 OFFCURVE",
"33 704 OFFCURVE",
"33 641 CURVE SMOOTH",
"33 578 OFFCURVE",
"77 536 OFFCURVE",
"141 536 CURVE SMOOTH"
);
}
);
width = 285;
},
{
layerId = "DCBE1F7B-116A-43E0-B7B4-8657BA77D8B5";
paths = (
{
closed = 1;
nodes = (
"104 0 LINE",
"104 500 LINE",
"82 500 LINE",
"82 0 LINE"
);
},
{
closed = 1;
nodes = (
"107 620 OFFCURVE",
"118 633 OFFCURVE",
"118 650 CURVE SMOOTH",
"118 666 OFFCURVE",
"107 679 OFFCURVE",
"93 679 CURVE SMOOTH",
"78 679 OFFCURVE",
"66 666 OFFCURVE",
"66 650 CURVE SMOOTH",
"66 633 OFFCURVE",
"78 620 OFFCURVE",
"93 620 CURVE SMOOTH"
);
}
);
width = 190;
}
);
leftKerningGroup = i;
unicode = 0069;
},
{
glyphname = idotless;
lastChange = "2017-03-24 06:13:27 +0000";
layers = (
{
anchors = (
{
name = top;
position = "{115, 509}";
}
);
hints = (
{
origin = "{0, 2}";
target = "{0, 1}";
}
);
layerId = "262880E7-CFE1-4BDA-902E-E24798F3240A";
paths = (
{
closed = 1;
nodes = (
"126 0 LINE",
"126 500 LINE",
"104 500 LINE",
"104 0 LINE"
);
}
);
width = 242;
},
{
anchors = (
{
name = top;
position = "{128, 532}";
}
);
layerId = "FFFA8D72-12AC-4CE0-B2CA-57A29829F4DA";
paths = (
{
closed = 1;
nodes = (
"226 0 LINE",
"226 520 LINE",
"38 520 LINE",
"38 0 LINE"
);
}
);
width = 270;
},
{
anchors = (
{
name = top;
position = "{82, 509}";
}
);
layerId = "DCBE1F7B-116A-43E0-B7B4-8657BA77D8B5";
paths = (
{
closed = 1;
nodes = (
"93 0 LINE",
"93 500 LINE",
"71 500 LINE",
"71 0 LINE"
);
}
);
width = 173;
},
{
anchors = (
{
name = top;
position = "{121, 533}";
}
);
layerId = "4E2227F3-52E4-4048-A8EE-327B486EF0A4";
paths = (
{
closed = 1;
nodes = (
"215 0 LINE",
"215 520 LINE",
"27 520 LINE",
"27 0 LINE"
);
}
);
width = 247;
}
);
leftMetricsKey = "=i+5";
rightMetricsKey = "=i+8";
unicode = 0131;
},
{
glyphname = j;
lastChange = "2017-03-24 06:11:59 +0000";
layers = (
{
hints = (
{
origin = "{0, 4}";
target = "{0, 3}";
},
{
horizontal = 1;
origin = "{0, 9}";
target = "{0, 8}";
}
);
layerId = "262880E7-CFE1-4BDA-902E-E24798F3240A";
paths = (
{
closed = 1;
nodes = (
"77 -211 OFFCURVE",
"130 -159 OFFCURVE",
"130 -74 CURVE SMOOTH",
"130 500 LINE",
"108 500 LINE",
"108 -74 LINE SMOOTH",
"108 -146 OFFCURVE",
"64 -190 OFFCURVE",
"-9 -190 CURVE",
"-9 -211 LINE"
);
},
{
closed = 1;
nodes = (
"140 620 OFFCURVE",
"152 631 OFFCURVE",
"152 650 CURVE SMOOTH",
"152 669 OFFCURVE",
"140 679 OFFCURVE",
"119 679 CURVE SMOOTH",
"101 679 OFFCURVE",
"88 669 OFFCURVE",
"88 650 CURVE SMOOTH",
"88 631 OFFCURVE",
"101 620 OFFCURVE",
"119 620 CURVE SMOOTH"
);
}
);
width = 220;
},
{
layerId = "4E2227F3-52E4-4048-A8EE-327B486EF0A4";
paths = (
{
closed = 1;
nodes = (
"207 -210 OFFCURVE",
"212 -120 OFFCURVE",
"212 29 CURVE SMOOTH",
"212 520 LINE",
"24 520 LINE",
"24 29 LINE SMOOTH",
"24 -19 OFFCURVE",
"9 -49 OFFCURVE",
"-72 -41 CURVE",
"-72 -201 LINE"
);
},
{
closed = 1;
nodes = (
"179 542 OFFCURVE",
"222 589 OFFCURVE",
"222 647 CURVE SMOOTH",
"222 705 OFFCURVE",
"170 752 OFFCURVE",
"118 752 CURVE SMOOTH",
"65 752 OFFCURVE",
"14 705 OFFCURVE",
"14 647 CURVE SMOOTH",
"14 589 OFFCURVE",
"56 542 OFFCURVE",
"118 542 CURVE SMOOTH"
);
}
);
width = 232;
},
{
layerId = "FFFA8D72-12AC-4CE0-B2CA-57A29829F4DA";
paths = (
{
closed = 1;
nodes = (
"163 -209 OFFCURVE",
"224 -163 OFFCURVE",
"224 29 CURVE SMOOTH",
"224 520 LINE",
"36 520 LINE",
"36 26 LINE SMOOTH",
"36 -38 OFFCURVE",
"12 -52 OFFCURVE",
"-83 -44 CURVE",
"-83 -201 LINE"
);
},
{
closed = 1;
nodes = (
"193 536 OFFCURVE",
"238 583 OFFCURVE",
"238 641 CURVE SMOOTH",
"238 699 OFFCURVE",
"185 746 OFFCURVE",
"130 746 CURVE SMOOTH",
"74 746 OFFCURVE",
"22 699 OFFCURVE",
"22 641 CURVE SMOOTH",
"22 583 OFFCURVE",
"65 536 OFFCURVE",
"130 536 CURVE SMOOTH"
);
}
);
width = 254;
},
{
layerId = "DCBE1F7B-116A-43E0-B7B4-8657BA77D8B5";
paths = (
{
closed = 1;
nodes = (
"55 -211 OFFCURVE",
"94 -159 OFFCURVE",
"94 -74 CURVE SMOOTH",
"94 500 LINE",
"72 500 LINE",
"72 -74 LINE SMOOTH",
"72 -146 OFFCURVE",
"40 -190 OFFCURVE",
"-16 -190 CURVE",
"-16 -211 LINE"
);
},
{
closed = 1;
nodes = (
"99 620 OFFCURVE",
"110 631 OFFCURVE",
"110 650 CURVE SMOOTH",
"110 669 OFFCURVE",
"99 679 OFFCURVE",
"83 679 CURVE SMOOTH",
"68 679 OFFCURVE",
"57 669 OFFCURVE",
"57 650 CURVE SMOOTH",
"57 631 OFFCURVE",
"68 620 OFFCURVE",
"83 620 CURVE SMOOTH"
);
}
);
width = 154;
}
);
leftKerningGroup = j;
unicode = 006A;
},
{
glyphname = k;
lastChange = "2017-03-24 06:11:59 +0000";
layers = (
{
guideLines = (
{
angle = 180;
position = "{290, 0}";
showMeasurement = 1;
}
);
hints = (
{
origin = "{0, 11}";
target = "{0, 0}";
},
{
origin = "{0, 3}";
target = "{0, 4}";
},
{
origin = "{0, 7}";
target = "{0, 6}";
}
);
layerId = "262880E7-CFE1-4BDA-902E-E24798F3240A";
paths = (
{
closed = 1;
nodes = (
"130 0 LINE",
"130 198 LINE",
"278 345 LINE",
"430 0 LINE",
"454 0 LINE",
"294 361 LINE",
"434 500 LINE",
"404 500 LINE",
"130 226 LINE",
"130 700 LINE",
"108 700 LINE",
"108 0 LINE"
);
}
);
width = 499;
},
{
layerId = "4E2227F3-52E4-4048-A8EE-327B486EF0A4";
paths = (
{
closed = 1;
nodes = (
"212 0 LINE",
"212 136 LINE",
"224 165 LINE",
"277 0 LINE",
"471 0 LINE",
"340 315 LINE",
"465 520 LINE",
"270 520 LINE",
"212 390 LINE",
"212 700 LINE",
"24 700 LINE",
"24 0 LINE"
);
}
);
width = 481;
},
{
layerId = "FFFA8D72-12AC-4CE0-B2CA-57A29829F4DA";
paths = (
{
closed = 1;
nodes = (
"224 0 LINE",
"224 149 LINE",
"264 205 LINE",
"352 0 LINE",
"546 0 LINE",
"392 325 LINE",
"536 520 LINE",
"322 520 LINE",
"224 378 LINE",
"224 700 LINE",
"36 700 LINE",
"36 0 LINE"
);
}
);
width = 561;
},
{
guideLines = (
{
angle = 180;
position = "{278, 0}";
showMeasurement = 1;
}
);
layerId = "DCBE1F7B-116A-43E0-B7B4-8657BA77D8B5";
paths = (
{
closed = 1;
nodes = (
"94 0 LINE",
"94 200 LINE",
"202 345 LINE",
"313 0 LINE",
"337 0 LINE",
"217 363 LINE",
"321 500 LINE",
"295 500 LINE",
"94 232 LINE",
"94 700 LINE",
"72 700 LINE",
"72 0 LINE"
);
}
);
width = 367;
}
);
leftKerningGroup = b;
rightKerningGroup = k;
unicode = 006B;
},
{
glyphname = l;
lastChange = "2017-03-24 06:11:59 +0000";
layers = (
{
hints = (
{
origin = "{0, 3}";
target = "{0, 0}";
}
);
layerId = "262880E7-CFE1-4BDA-902E-E24798F3240A";
paths = (
{
closed = 1;
nodes = (
"130 0 LINE",
"130 700 LINE",
"108 700 LINE",
"108 0 LINE"
);
}
);
width = 238;
},
{
layerId = "4E2227F3-52E4-4048-A8EE-327B486EF0A4";
paths = (
{
closed = 1;
nodes = (
"212 0 LINE",
"212 700 LINE",
"24 700 LINE",
"24 0 LINE"
);
}
);
width = 236;
},
{
layerId = "FFFA8D72-12AC-4CE0-B2CA-57A29829F4DA";
paths = (
{
closed = 1;
nodes = (
"224 0 LINE",
"224 700 LINE",
"36 700 LINE",
"36 0 LINE"
);
}
);
width = 260;
},
{
layerId = "DCBE1F7B-116A-43E0-B7B4-8657BA77D8B5";
paths = (
{
closed = 1;
nodes = (
"94 0 LINE",
"94 700 LINE",
"72 700 LINE",
"72 0 LINE"
);
}
);
width = 166;
}
);
leftKerningGroup = l;
rightKerningGroup = l;
unicode = 006C;
},
{
glyphname = m;
lastChange = "2017-03-24 06:13:37 +0000";
layers = (
{
hints = (
{
origin = "{0, 3}";
target = "{0, 0}";
},
{
origin = "{1, 15}";
target = "{1, 0}";
},
{
origin = "{2, 15}";
target = "{2, 0}";
},
{
horizontal = 1;
origin = "{1, 4}";
target = "{1, 11}";
}
);
layerId = "262880E7-CFE1-4BDA-902E-E24798F3240A";
paths = (
{
closed = 1;
nodes = (
"130 0 LINE",
"130 500 LINE",
"108 500 LINE",
"108 0 LINE"
);
},
{
closed = 1;
nodes = (
"438 0 LINE",
"438 347 LINE SMOOTH",
"438 446 OFFCURVE",
"373 507 OFFCURVE",
"279 507 CURVE SMOOTH",
"178 507 OFFCURVE",
"113 448 OFFCURVE",
"113 346 CURVE",
"130 346 LINE",
"130 433 OFFCURVE",
"187 486 OFFCURVE",
"277 486 CURVE SMOOTH",
"359 486 OFFCURVE",
"416 432 OFFCURVE",
"416 344 CURVE SMOOTH",
"416 0 LINE"
);
},
{
closed = 1;
nodes = (
"747 0 LINE",
"747 347 LINE SMOOTH",
"747 446 OFFCURVE",
"681 507 OFFCURVE",
"587 507 CURVE SMOOTH",
"487 507 OFFCURVE",
"421 448 OFFCURVE",
"421 346 CURVE",
"438 346 LINE",
"438 433 OFFCURVE",
"496 486 OFFCURVE",
"585 486 CURVE SMOOTH",
"667 486 OFFCURVE",
"725 432 OFFCURVE",
"725 344 CURVE SMOOTH",
"725 0 LINE"
);
}
);
width = 837;
},
{
layerId = "4E2227F3-52E4-4048-A8EE-327B486EF0A4";
paths = (
{
closed = 1;
nodes = (
"212 0 LINE",
"212 520 LINE",
"24 520 LINE",
"24 0 LINE"
);
},
{
closed = 1;
nodes = (
"444 0 LINE",
"444 348 LINE SMOOTH",
"444 459 OFFCURVE",
"403 528 OFFCURVE",
"302 528 CURVE SMOOTH",
"265 528 OFFCURVE",
"165 515 OFFCURVE",
"166 335 CURVE",
"212 335 LINE",
"212 356 OFFCURVE",
"220 367 OFFCURVE",
"235 367 CURVE SMOOTH",
"249 367 OFFCURVE",
"256 356 OFFCURVE",
"256 335 CURVE SMOOTH",
"256 0 LINE"
);
},
{
closed = 1;
nodes = (
"676 0 LINE",
"676 348 LINE SMOOTH",
"676 459 OFFCURVE",
"635 528 OFFCURVE",
"534 528 CURVE SMOOTH",
"493 528 OFFCURVE",
"393 515 OFFCURVE",
"394 335 CURVE",
"444 335 LINE",
"444 356 OFFCURVE",
"452 367 OFFCURVE",
"467 367 CURVE SMOOTH",
"481 367 OFFCURVE",
"488 356 OFFCURVE",
"488 335 CURVE SMOOTH",
"488 0 LINE"
);
}
);
width = 696;
},
{
layerId = "FFFA8D72-12AC-4CE0-B2CA-57A29829F4DA";
paths = (
{
closed = 1;
nodes = (
"224 0 LINE",
"224 520 LINE",
"36 520 LINE",
"36 0 LINE"
);
},
{
closed = 1;
nodes = (
"517 0 LINE",
"517 341 LINE SMOOTH",
"517 460 OFFCURVE",
"456 528 OFFCURVE",
"350 528 CURVE SMOOTH",
"255 528 OFFCURVE",
"187 460 OFFCURVE",
"187 300 CURVE",
"224 300 LINE",
"224 340 OFFCURVE",
"245 367 OFFCURVE",
"277 367 CURVE SMOOTH",
"308 367 OFFCURVE",
"329 340 OFFCURVE",
"329 300 CURVE SMOOTH",
"329 0 LINE"
);
},
{
closed = 1;
nodes = (
"811 0 LINE",
"811 341 LINE SMOOTH",
"811 460 OFFCURVE",
"749 528 OFFCURVE",
"644 528 CURVE SMOOTH",
"549 528 OFFCURVE",
"461 460 OFFCURVE",
"461 300 CURVE",
"517 300 LINE",
"517 340 OFFCURVE",
"539 367 OFFCURVE",
"571 367 CURVE SMOOTH",
"602 367 OFFCURVE",
"623 340 OFFCURVE",
"623 300 CURVE SMOOTH",
"623 0 LINE"
);
}
);
width = 841;
},
{
layerId = "DCBE1F7B-116A-43E0-B7B4-8657BA77D8B5";
paths = (
{
closed = 1;
nodes = (
"94 0 LINE",
"94 500 LINE",
"72 500 LINE",
"72 0 LINE"
);
},
{
closed = 1;
nodes = (
"324 0 LINE",
"324 347 LINE SMOOTH",
"324 446 OFFCURVE",
"276 507 OFFCURVE",
"205 507 CURVE SMOOTH",
"131 507 OFFCURVE",
"78 448 OFFCURVE",
"78 346 CURVE",
"94 346 LINE",
"94 433 OFFCURVE",
"136 486 OFFCURVE",
"201 486 CURVE SMOOTH",
"260 486 OFFCURVE",
"302 432 OFFCURVE",
"302 344 CURVE SMOOTH",
"302 0 LINE"
);
},
{
closed = 1;
nodes = (
"554 0 LINE",
"554 347 LINE SMOOTH",
"554 446 OFFCURVE",
"505 507 OFFCURVE",
"435 507 CURVE SMOOTH",
"361 507 OFFCURVE",
"307 451 OFFCURVE",
"307 346 CURVE",
"324 346 LINE",
"324 433 OFFCURVE",
"366 486 OFFCURVE",
"430 486 CURVE SMOOTH",
"490 486 OFFCURVE",
"532 432 OFFCURVE",
"532 344 CURVE SMOOTH",
"532 0 LINE"
);
}
);
width = 614;
},
{
associatedMasterId = "262880E7-CFE1-4BDA-902E-E24798F3240A";
hints = (
{
origin = "{0, 3}";
target = "{0, 0}";
},
{
origin = "{1, 15}";
target = "{1, 0}";
},
{
origin = "{2, 15}";
target = "{2, 0}";
},
{
horizontal = 1;
origin = "{1, 4}";
target = "{1, 11}";
}
);
layerId = "3D363A3E-CBEB-46DD-BDC0-952664622760";
name = "{100,5}";
paths = (
{
closed = 1;
nodes = (
"174 0 LINE",
"174 509 LINE",
"74 509 LINE",
"74 0 LINE"
);
},
{
closed = 1;
nodes = (
"471 0 LINE",
"471 344 LINE SMOOTH",
"471 453 OFFCURVE",
"410 517 OFFCURVE",
"307 517 CURVE SMOOTH",
"214 517 OFFCURVE",
"137 464 OFFCURVE",
"137 325 CURVE",
"174 325 LINE",
"174 390 OFFCURVE",
"214 430 OFFCURVE",
"273 430 CURVE SMOOTH",
"333 430 OFFCURVE",
"372 389 OFFCURVE",
"372 323 CURVE SMOOTH",
"372 0 LINE"
);
},
{
closed = 1;
nodes = (
"770 0 LINE",
"770 344 LINE SMOOTH",
"770 453 OFFCURVE",
"708 517 OFFCURVE",
"606 517 CURVE SMOOTH",
"513 517 OFFCURVE",
"426 464 OFFCURVE",
"426 325 CURVE",
"471 325 LINE",
"471 390 OFFCURVE",
"513 430 OFFCURVE",
"572 430 CURVE SMOOTH",
"632 430 OFFCURVE",
"671 389 OFFCURVE",
"671 323 CURVE SMOOTH",
"671 0 LINE"
);
}
);
width = 832;
},
{
associatedMasterId = "262880E7-CFE1-4BDA-902E-E24798F3240A";
layerId = "FD7B5D9B-CA7D-42C3-93E7-F3C4034798D2";
name = "{100,3}";
paths = (
{
closed = 1;
nodes = (
"149 0 LINE",
"149 509 LINE",
"50 509 LINE",
"50 0 LINE"
);
},
{
closed = 1;
nodes = (
"380 0 LINE",
"380 347 LINE SMOOTH",
"380 452 OFFCURVE",
"336 517 OFFCURVE",
"251 517 CURVE SMOOTH",
"194 517 OFFCURVE",
"111 479 OFFCURVE",
"111 341 CURVE",
"149 341 LINE",
"149 397 OFFCURVE",
"175 430 OFFCURVE",
"217 430 CURVE SMOOTH",
"255 430 OFFCURVE",
"281 397 OFFCURVE",
"281 340 CURVE SMOOTH",
"281 0 LINE"
);
},
{
closed = 1;
nodes = (
"611 0 LINE",
"611 347 LINE SMOOTH",
"611 452 OFFCURVE",
"566 517 OFFCURVE",
"481 517 CURVE SMOOTH",
"423 517 OFFCURVE",
"339 481 OFFCURVE",
"340 341 CURVE",
"380 341 LINE",
"380 397 OFFCURVE",
"406 430 OFFCURVE",
"448 430 CURVE SMOOTH",
"486 430 OFFCURVE",
"512 397 OFFCURVE",
"512 340 CURVE SMOOTH",
"512 0 LINE"
);
}
);
width = 652;
}
);
leftKerningGroup = n;
rightKerningGroup = h;
unicode = 006D;
},
{
glyphname = n;
lastChange = "2017-03-24 06:13:37 +0000";
layers = (
{
anchors = (
{
name = top;
position = "{275, 500}";
}
);
components = (
{
name = n.curve;
transform = "{1, 0, 0, 1, 112, 0}";
}
);
hints = (
{
origin = "{0, 2}";
target = "{0, 2}";
}
);
layerId = "262880E7-CFE1-4BDA-902E-E24798F3240A";
paths = (
{
closed = 1;
nodes = (
"130 0 LINE",
"130 500 LINE",
"108 500 LINE",
"108 0 LINE"
);
}
);
width = 543;
},
{
anchors = (
{
name = top;
position = "{240, 520}";
}
);
components = (
{
name = n.curve;
transform = "{1, 0, 0, 1, 176, 0}";
}
);
layerId = "4E2227F3-52E4-4048-A8EE-327B486EF0A4";
paths = (
{
closed = 1;
nodes = (
"212 0 LINE",
"212 520 LINE",
"24 520 LINE",
"24 0 LINE"
);
}
);
width = 464;
},
{
anchors = (
{
name = top;
position = "{292, 520}";
}
);
components = (
{
name = n.curve;
transform = "{1, 0, 0, 1, 185, 0}";
}
);
layerId = "FFFA8D72-12AC-4CE0-B2CA-57A29829F4DA";
paths = (
{
closed = 1;
nodes = (
"224 0 LINE",
"224 520 LINE",
"36 520 LINE",
"36 0 LINE"
);
}
);
width = 555;
},
{
anchors = (
{
name = top;
position = "{204, 507}";
}
);
components = (
{
name = n.curve;
transform = "{1, 0, 0, 1, 79, 0}";
}
);
layerId = "DCBE1F7B-116A-43E0-B7B4-8657BA77D8B5";
paths = (
{
closed = 1;
nodes = (
"94 0 LINE",
"94 500 LINE",
"72 500 LINE",
"72 0 LINE"
);
}
);
width = 393;
},
{
anchors = (
{
name = top;
position = "{281, 509}";
}
);
associatedMasterId = "262880E7-CFE1-4BDA-902E-E24798F3240A";
components = (
{
name = n.curve;
transform = "{1, 0, 0, 1, 146, 0}";
}
);
hints = (
{
origin = "{0, 2}";
target = "{0, 2}";
}
);
layerId = "53896A5E-1183-4A5E-9C25-62CDD8D27FBC";
name = "{100,5}";
paths = (
{
closed = 1;
nodes = (
"174 0 LINE",
"174 509 LINE",
"74 509 LINE",
"74 0 LINE"
);
}
);
width = 553;
},
{
anchors = (
{
name = top;
position = "{265, 509}";
}
);
associatedMasterId = "262880E7-CFE1-4BDA-902E-E24798F3240A";
components = (
{
name = n.curve;
transform = "{1, 0, 0, 1, 130, 0}";
}
);
hints = (
{
origin = "{0, 2}";
target = "{0, 2}";
}
);
layerId = "DB1E2350-82FA-4E68-AA8B-3FC38CA7193F";
name = tmp;
paths = (
{
closed = 1;
nodes = (
"158 0 LINE",
"158 509 LINE",
"58 509 LINE",
"58 0 LINE"
);
}
);
width = 517;
},
{
anchors = (
{
name = top;
position = "{265, 509}";
}
);
associatedMasterId = "262880E7-CFE1-4BDA-902E-E24798F3240A";
components = (
{
name = n.curve;
transform = "{1, 0, 0, 1, 130, 0}";
}
);
hints = (
{
origin = "{0, 2}";
target = "{0, 2}";
}
);
layerId = "A2211366-AC30-4398-B631-E5C740BC23F0";
name = tmp;
paths = (
{
closed = 1;
nodes = (
"158 0 LINE",
"158 509 LINE",
"58 509 LINE",
"58 0 LINE"
);
}
);
width = 517;
},
{
anchors = (
{
name = top;
position = "{265, 509}";
}
);
associatedMasterId = "262880E7-CFE1-4BDA-902E-E24798F3240A";
components = (
{
name = n.curve;
transform = "{1, 0, 0, 1, 130, 0}";
}
);
hints = (
{
origin = "{0, 2}";
target = "{0, 2}";
}
);
layerId = "7051A72D-773B-4E2B-BCF8-D4BFC7897C14";
name = del;
paths = (
{
closed = 1;
nodes = (
"158 0 LINE",
"158 509 LINE",
"58 509 LINE",
"58 0 LINE"
);
}
);
width = 517;
},
{
anchors = (
{
name = top;
position = "{265, 509}";
}
);
associatedMasterId = "262880E7-CFE1-4BDA-902E-E24798F3240A";
components = (
{
name = n.curve;
transform = "{1, 0, 0, 1, 130, 0}";
}
);
hints = (
{
origin = "{0, 2}";
target = "{0, 2}";
}
);
layerId = "DF8A90FD-EC3D-4DCF-A66D-641E9E3B8804";
name = del;
paths = (
{
closed = 1;
nodes = (
"158 0 LINE",
"158 509 LINE",
"58 509 LINE",
"58 0 LINE"
);
}
);
width = 517;
},
{
anchors = (
{
name = top;
position = "{265, 509}";
}
);
associatedMasterId = "262880E7-CFE1-4BDA-902E-E24798F3240A";
components = (
{
name = n.curve;
transform = "{1, 0, 0, 1, 130, 0}";
}
);
hints = (
{
origin = "{0, 2}";
target = "{0, 2}";
}
);
layerId = "FD9525A8-B3D9-4144-90FE-79A23BDB04CE";
name = del;
paths = (
{
closed = 1;
nodes = (
"158 0 LINE",
"158 509 LINE",
"58 509 LINE",
"58 0 LINE"
);
}
);
width = 517;
},
{
anchors = (
{
name = top;
position = "{265, 509}";
}
);
associatedMasterId = "262880E7-CFE1-4BDA-902E-E24798F3240A";
components = (
{
name = n.curve;
transform = "{1, 0, 0, 1, 130, 0}";
}
);
hints = (
{
origin = "{0, 2}";
target = "{0, 2}";
}
);
layerId = "C636F3C5-CD90-40DB-8E17-B0107627DEDA";
name = del;
paths = (
{
closed = 1;
nodes = (
"158 0 LINE",
"158 509 LINE",
"58 509 LINE",
"58 0 LINE"
);
}
);
width = 517;
},
{
anchors = (
{
name = top;
position = "{265, 509}";
}
);
associatedMasterId = "262880E7-CFE1-4BDA-902E-E24798F3240A";
components = (
{
name = n.curve;
transform = "{1, 0, 0, 1, 130, 0}";
}
);
hints = (
{
origin = "{0, 2}";
target = "{0, 2}";
}
);
layerId = "537E3717-9F56-4B9E-AF14-32D0E7614EF9";
name = del;
paths = (
{
closed = 1;
nodes = (
"158 0 LINE",
"158 509 LINE",
"58 509 LINE",
"58 0 LINE"
);
}
);
width = 517;
},
{
anchors = (
{
name = top;
position = "{265, 509}";
}
);
associatedMasterId = "262880E7-CFE1-4BDA-902E-E24798F3240A";
components = (
{
name = n.curve;
transform = "{1, 0, 0, 1, 130, 0}";
}
);
hints = (
{
origin = "{0, 2}";
target = "{0, 2}";
}
);
layerId = "947D7861-7802-4393-82C7-749F6F207373";
name = del;
paths = (
{
closed = 1;
nodes = (
"158 0 LINE",
"158 509 LINE",
"58 509 LINE",
"58 0 LINE"
);
}
);
width = 517;
},
{
anchors = (
{
name = top;
position = "{265, 509}";
}
);
associatedMasterId = "262880E7-CFE1-4BDA-902E-E24798F3240A";
components = (
{
name = n.curve;
transform = "{1, 0, 0, 1, 130, 0}";
}
);
hints = (
{
origin = "{0, 2}";
target = "{0, 2}";
}
);
layerId = "B9FDEBC0-73F0-4A3E-92C8-BB8F868D5CEC";
name = del;
paths = (
{
closed = 1;
nodes = (
"158 0 LINE",
"158 509 LINE",
"58 509 LINE",
"58 0 LINE"
);
}
);
width = 517;
},
{
associatedMasterId = "262880E7-CFE1-4BDA-902E-E24798F3240A";
hints = (
{
place = "{88, 0}";
}
);
layerId = "B591FDB5-480A-46A6-933C-C7806B34A837";
name = del;
width = 517;
},
{
associatedMasterId = "262880E7-CFE1-4BDA-902E-E24798F3240A";
hints = (
{
place = "{88, 0}";
}
);
layerId = "D43AAB6E-8B85-474F-9930-242A2F494DC4";
name = del;
width = 517;
}
);
leftKerningGroup = n;
rightKerningGroup = n;
unicode = 006E;
},
{
color = 3;
glyphname = o;
lastChange = "2017-03-24 06:13:37 +0000";
layers = (
{
anchors = (
{
name = top;
position = "{240, 508}";
}
);
guideLines = (
{
position = "{238, 135}";
}
);
hints = (
{
horizontal = 1;
origin = "{0, 11}";
target = "{1, 11}";
},
{
origin = "{0, 17}";
target = "{1, 5}";
},
{
origin = "{1, 17}";
target = "{0, 5}";
},
{
horizontal = 1;
origin = "{0, 23}";
target = "{1, 23}";
}
);
layerId = "262880E7-CFE1-4BDA-902E-E24798F3240A";
paths = (
{
closed = 1;
nodes = (
"330 -8 OFFCURVE",
"396 46 OFFCURVE",
"413 123 CURVE SMOOTH",
"420 155 OFFCURVE",
"418 191 OFFCURVE",
"418 250 CURVE SMOOTH",
"418 305 OFFCURVE",
"420 344 OFFCURVE",
"413 377 CURVE SMOOTH",
"396 454 OFFCURVE",
"330 508 OFFCURVE",
"240 508 CURVE SMOOTH",
"151 508 OFFCURVE",
"87 454 OFFCURVE",
"70 377 CURVE SMOOTH",
"62 345 OFFCURVE",
"63 310 OFFCURVE",
"63 251 CURVE SMOOTH",
"63 195 OFFCURVE",
"62 156 OFFCURVE",
"70 123 CURVE SMOOTH",
"88 46 OFFCURVE",
"150 -8 OFFCURVE",
"240 -8 CURVE SMOOTH"
);
},
{
closed = 1;
nodes = (
"158 13 OFFCURVE",
"102 63 OFFCURVE",
"89 135 CURVE SMOOTH",
"85 156 OFFCURVE",
"85 193 OFFCURVE",
"85 250 CURVE SMOOTH",
"85 302 OFFCURVE",
"85 343 OFFCURVE",
"89 365 CURVE SMOOTH",
"102 436 OFFCURVE",
"158 487 OFFCURVE",
"240 487 CURVE SMOOTH",
"322 487 OFFCURVE",
"380 436 OFFCURVE",
"393 365 CURVE SMOOTH",
"397 344 OFFCURVE",
"396 307 OFFCURVE",
"396 250 CURVE SMOOTH",
"396 198 OFFCURVE",
"397 157 OFFCURVE",
"393 135 CURVE SMOOTH",
"380 64 OFFCURVE",
"322 13 OFFCURVE",
"240 13 CURVE SMOOTH"
);
}
);
width = 481;
},
{
anchors = (
{
name = top;
position = "{227, 528}";
}
);
guideLines = (
{
angle = 39.959;
position = "{293, 232}";
showMeasurement = 1;
},
{
angle = -39.959;
position = "{160, 232}";
showMeasurement = 1;
},
{
angle = 39.959;
position = "{293, 404}";
showMeasurement = 1;
},
{
angle = -180;
position = "{228, 260}";
showMeasurement = 1;
},
{
angle = -39.959;
position = "{159, 404}";
showMeasurement = 1;
},
{
position = "{265, 170}";
},
{
position = "{264, 350}";
},
{
position = "{266, 260}";
}
);
layerId = "4E2227F3-52E4-4048-A8EE-327B486EF0A4";
paths = (
{
closed = 1;
nodes = (
"363 -8 OFFCURVE",
"439 57 OFFCURVE",
"439 170 CURVE SMOOTH",
"439 193 OFFCURVE",
"439 237 OFFCURVE",
"439 260 CURVE SMOOTH",
"439 283 OFFCURVE",
"439 327 OFFCURVE",
"439 350 CURVE SMOOTH",
"439 456 OFFCURVE",
"363 528 OFFCURVE",
"227 528 CURVE SMOOTH",
"91 528 OFFCURVE",
"14 456 OFFCURVE",
"14 350 CURVE SMOOTH",
"14 327 OFFCURVE",
"14 283 OFFCURVE",
"14 260 CURVE SMOOTH",
"14 237 OFFCURVE",
"14 193 OFFCURVE",
"14 170 CURVE SMOOTH",
"14 57 OFFCURVE",
"91 -8 OFFCURVE",
"227 -8 CURVE SMOOTH"
);
},
{
closed = 1;
nodes = (
"212 153 OFFCURVE",
"202 166 OFFCURVE",
"202 185 CURVE SMOOTH",
"202 210 OFFCURVE",
"202 235 OFFCURVE",
"202 260 CURVE",
"202 285 OFFCURVE",
"202 310 OFFCURVE",
"202 335 CURVE SMOOTH",
"202 354 OFFCURVE",
"212 367 OFFCURVE",
"227 367 CURVE SMOOTH",
"241 367 OFFCURVE",
"251 354 OFFCURVE",
"251 335 CURVE SMOOTH",
"251 310 OFFCURVE",
"251 285 OFFCURVE",
"251 260 CURVE SMOOTH",
"251 235 OFFCURVE",
"251 210 OFFCURVE",
"251 185 CURVE SMOOTH",
"251 166 OFFCURVE",
"241 153 OFFCURVE",
"227 153 CURVE SMOOTH"
);
}
);
width = 453;
},
{
anchors = (
{
name = top;
position = "{275, 528}";
}
);
guideLines = (
{
position = "{277, 149}";
},
{
position = "{275, 327}";
},
{
position = "{277, 263}";
},
{
position = "{268, 376}";
},
{
position = "{275, 193}";
}
);
layerId = "FFFA8D72-12AC-4CE0-B2CA-57A29829F4DA";
paths = (
{
closed = 1;
nodes = (
"385 -8 OFFCURVE",
"473 55 OFFCURVE",
"509 149 CURVE SMOOTH",
"521 180 OFFCURVE",
"529 218 OFFCURVE",
"529 263 CURVE SMOOTH",
"529 304 OFFCURVE",
"522 343 OFFCURVE",
"509 376 CURVE SMOOTH",
"469 477 OFFCURVE",
"378 528 OFFCURVE",
"276 528 CURVE SMOOTH",
"167 528 OFFCURVE",
"78 470 OFFCURVE",
"41 376 CURVE SMOOTH",
"28 343 OFFCURVE",
"21 304 OFFCURVE",
"21 262 CURVE SMOOTH",
"21 223 OFFCURVE",
"27 185 OFFCURVE",
"41 149 CURVE SMOOTH",
"79 52 OFFCURVE",
"167 -8 OFFCURVE",
"275 -8 CURVE SMOOTH"
);
},
{
closed = 1;
nodes = (
"253 153 OFFCURVE",
"230 169 OFFCURVE",
"221 193 CURVE SMOOTH",
"214 211 OFFCURVE",
"211 234 OFFCURVE",
"211 262 CURVE SMOOTH",
"211 288 OFFCURVE",
"214 310 OFFCURVE",
"221 327 CURVE SMOOTH",
"231 351 OFFCURVE",
"254 367 OFFCURVE",
"275 367 CURVE SMOOTH",
"296 367 OFFCURVE",
"319 351 OFFCURVE",
"329 327 CURVE SMOOTH",
"336 310 OFFCURVE",
"339 288 OFFCURVE",
"339 262 CURVE SMOOTH",
"339 234 OFFCURVE",
"335 210 OFFCURVE",
"329 193 CURVE SMOOTH",
"321 169 OFFCURVE",
"298 153 OFFCURVE",
"275 153 CURVE SMOOTH"
);
}
);
width = 550;
},
{
anchors = (
{
name = top;
position = "{176, 508}";
}
);
guideLines = (
{
angle = 66;
position = "{177, 250}";
showMeasurement = 1;
},
{
angle = 112;
position = "{176, 250}";
showMeasurement = 1;
},
{
angle = -180;
position = "{176, 250}";
showMeasurement = 1;
}
);
layerId = "DCBE1F7B-116A-43E0-B7B4-8657BA77D8B5";
paths = (
{
closed = 1;
nodes = (
"256 -8 OFFCURVE",
"311 52 OFFCURVE",
"311 135 CURVE SMOOTH",
"311 173 OFFCURVE",
"311 212 OFFCURVE",
"311 250 CURVE SMOOTH",
"311 288 OFFCURVE",
"311 327 OFFCURVE",
"311 365 CURVE SMOOTH",
"311 448 OFFCURVE",
"256 508 OFFCURVE",
"176 508 CURVE SMOOTH",
"97 508 OFFCURVE",
"42 448 OFFCURVE",
"42 365 CURVE SMOOTH",
"42 327 OFFCURVE",
"42 288 OFFCURVE",
"42 250 CURVE SMOOTH",
"42 212 OFFCURVE",
"42 173 OFFCURVE",
"42 135 CURVE SMOOTH",
"42 52 OFFCURVE",
"97 -8 OFFCURVE",
"176 -8 CURVE SMOOTH"
);
},
{
closed = 1;
nodes = (
"110 13 OFFCURVE",
"64 63 OFFCURVE",
"64 135 CURVE SMOOTH",
"64 173 OFFCURVE",
"64 212 OFFCURVE",
"64 250 CURVE SMOOTH",
"64 288 OFFCURVE",
"64 327 OFFCURVE",
"64 365 CURVE SMOOTH",
"64 437 OFFCURVE",
"110 487 OFFCURVE",
"176 487 CURVE SMOOTH",
"243 487 OFFCURVE",
"289 437 OFFCURVE",
"289 365 CURVE SMOOTH",
"289 327 OFFCURVE",
"289 288 OFFCURVE",
"289 250 CURVE SMOOTH",
"289 212 OFFCURVE",
"289 173 OFFCURVE",
"289 135 CURVE SMOOTH",
"289 63 OFFCURVE",
"243 13 OFFCURVE",
"176 13 CURVE SMOOTH"
);
}
);
width = 353;
},
{
anchors = (
{
name = top;
position = "{252, 532}";
}
);
associatedMasterId = "FFFA8D72-12AC-4CE0-B2CA-57A29829F4DA";
layerId = "E170A48F-3AE5-4D63-9FF6-9C732EC5D514";
name = "Feb 19 17, 03:14";
paths = (
{
closed = 1;
nodes = (
"416 -8 OFFCURVE",
"514 98 OFFCURVE",
"514 263 CURVE SMOOTH",
"514 424 OFFCURVE",
"421 528 OFFCURVE",
"262 528 CURVE SMOOTH",
"106 528 OFFCURVE",
"10 427 OFFCURVE",
"10 263 CURVE SMOOTH",
"10 101 OFFCURVE",
"105 -8 OFFCURVE",
"262 -8 CURVE SMOOTH"
);
}
);
width = 510;
},
{
anchors = (
{
name = top;
position = "{252, 532}";
}
);
associatedMasterId = "FFFA8D72-12AC-4CE0-B2CA-57A29829F4DA";
layerId = "729CD020-0260-4A10-AF2C-A7559C6B0093";
name = "Feb 19 17, 03:05";
paths = (
{
closed = 1;
nodes = (
"403 -7 OFFCURVE",
"500 93 OFFCURVE",
"500 243 CURVE SMOOTH",
"500 262 LINE",
"500 281 LINE SMOOTH",
"500 432 OFFCURVE",
"401 532 OFFCURVE",
"252 532 CURVE SMOOTH",
"107 532 OFFCURVE",
"10 432 OFFCURVE",
"10 281 CURVE SMOOTH",
"10 275 OFFCURVE",
"10 268 OFFCURVE",
"10 262 CURVE SMOOTH",
"10 255 OFFCURVE",
"10 250 OFFCURVE",
"10 243 CURVE",
"10 92 OFFCURVE",
"109 -7 OFFCURVE",
"258 -7 CURVE SMOOTH"
);
},
{
closed = 1;
nodes = (
"221 154 OFFCURVE",
"198 186 OFFCURVE",
"198 235 CURVE SMOOTH",
"198 290 LINE SMOOTH",
"198 339 OFFCURVE",
"221 371 OFFCURVE",
"255 371 CURVE SMOOTH",
"289 371 OFFCURVE",
"312 339 OFFCURVE",
"312 290 CURVE SMOOTH",
"312 235 LINE SMOOTH",
"312 186 OFFCURVE",
"289 154 OFFCURVE",
"255 154 CURVE SMOOTH"
);
}
);
width = 510;
},
{
anchors = (
{
name = top;
position = "{224, 508}";
}
);
associatedMasterId = "262880E7-CFE1-4BDA-902E-E24798F3240A";
guideLines = (
{
angle = 60;
position = "{224, 250}";
showMeasurement = 1;
},
{
angle = -180;
position = "{224, 250}";
showMeasurement = 1;
},
{
angle = -60;
position = "{224, 250}";
showMeasurement = 1;
}
);
layerId = "B0138EC5-030B-498C-B0B8-CB1265BD0ED1";
name = "old light";
paths = (
{
closed = 1;
nodes = (
"327 -8 OFFCURVE",
"397 67 OFFCURVE",
"397 168 CURVE SMOOTH",
"397 332 LINE SMOOTH",
"397 433 OFFCURVE",
"327 508 OFFCURVE",
"223 508 CURVE SMOOTH",
"119 508 OFFCURVE",
"50 433 OFFCURVE",
"50 332 CURVE SMOOTH",
"50 168 LINE SMOOTH",
"50 67 OFFCURVE",
"119 -8 OFFCURVE",
"223 -8 CURVE SMOOTH"
);
},
{
closed = 1;
nodes = (
"132 13 OFFCURVE",
"72 79 OFFCURVE",
"72 167 CURVE SMOOTH",
"72 333 LINE SMOOTH",
"72 421 OFFCURVE",
"132 487 OFFCURVE",
"223 487 CURVE SMOOTH",
"314 487 OFFCURVE",
"375 421 OFFCURVE",
"375 333 CURVE SMOOTH",
"375 167 LINE SMOOTH",
"375 79 OFFCURVE",
"314 13 OFFCURVE",
"223 13 CURVE SMOOTH"
);
}
);
width = 449;
},
{
anchors = (
{
name = top;
position = "{224, 508}";
}
);
associatedMasterId = "262880E7-CFE1-4BDA-902E-E24798F3240A";
guideLines = (
{
angle = 60;
position = "{224, 250}";
showMeasurement = 1;
},
{
angle = -180;
position = "{224, 250}";
showMeasurement = 1;
},
{
angle = -60;
position = "{224, 250}";
showMeasurement = 1;
}
);
layerId = "1ABF4078-FE11-4FD4-BA40-BAADFE713524";
name = "cond light";
paths = (
{
closed = 1;
nodes = (
"254 -8 OFFCURVE",
"309 51 OFFCURVE",
"309 136 CURVE SMOOTH",
"309 364 LINE SMOOTH",
"309 449 OFFCURVE",
"254 508 OFFCURVE",
"174 508 CURVE SMOOTH",
"95 508 OFFCURVE",
"40 449 OFFCURVE",
"40 364 CURVE SMOOTH",
"40 136 LINE SMOOTH",
"40 51 OFFCURVE",
"95 -8 OFFCURVE",
"174 -8 CURVE SMOOTH"
);
},
{
closed = 1;
nodes = (
"108 13 OFFCURVE",
"62 63 OFFCURVE",
"62 135 CURVE SMOOTH",
"62 365 LINE SMOOTH",
"62 437 OFFCURVE",
"108 487 OFFCURVE",
"174 487 CURVE SMOOTH",
"241 487 OFFCURVE",
"287 437 OFFCURVE",
"287 365 CURVE SMOOTH",
"287 135 LINE SMOOTH",
"287 63 OFFCURVE",
"241 13 OFFCURVE",
"174 13 CURVE SMOOTH"
);
}
);
width = 349;
},
{
anchors = (
{
name = top;
position = "{223, 532}";
}
);
associatedMasterId = "4E2227F3-52E4-4048-A8EE-327B486EF0A4";
guideLines = (
{
angle = 39.959;
position = "{289, 232}";
showMeasurement = 1;
},
{
angle = -39.959;
position = "{156, 232}";
showMeasurement = 1;
},
{
angle = 39.959;
position = "{289, 404}";
showMeasurement = 1;
},
{
angle = -180;
position = "{224, 260}";
showMeasurement = 1;
},
{
angle = -39.959;
position = "{155, 404}";
showMeasurement = 1;
}
);
layerId = "A2592930-FB52-446A-8915-5702D869B7BD";
name = oldbc;
paths = (
{
closed = 1;
nodes = (
"359 -7 OFFCURVE",
"435 67 OFFCURVE",
"435 190 CURVE SMOOTH",
"435 330 LINE SMOOTH",
"435 456 OFFCURVE",
"359 532 OFFCURVE",
"223 532 CURVE SMOOTH",
"87 532 OFFCURVE",
"10 456 OFFCURVE",
"10 330 CURVE SMOOTH",
"10 190 LINE SMOOTH",
"10 67 OFFCURVE",
"87 -7 OFFCURVE",
"223 -7 CURVE SMOOTH"
);
},
{
closed = 1;
nodes = (
"206 154 OFFCURVE",
"198 165 OFFCURVE",
"198 186 CURVE SMOOTH",
"198 339 LINE SMOOTH",
"198 360 OFFCURVE",
"206 371 OFFCURVE",
"223 371 CURVE SMOOTH",
"239 371 OFFCURVE",
"247 360 OFFCURVE",
"247 339 CURVE SMOOTH",
"247 186 LINE SMOOTH",
"247 165 OFFCURVE",
"239 154 OFFCURVE",
"223 154 CURVE SMOOTH"
);
}
);
width = 445;
},
{
anchors = (
{
name = top;
position = "{251, 528}";
}
);
associatedMasterId = "FFFA8D72-12AC-4CE0-B2CA-57A29829F4DA";
guideLines = (
{
angle = -180;
position = "{174, 260}";
showMeasurement = 1;
},
{
angle = -59.0044;
position = "{218, 260}";
showMeasurement = 1;
},
{
angle = 59.004;
position = "{290, 260}";
showMeasurement = 1;
},
{
angle = 59.004;
position = "{290, 260}";
showMeasurement = 1;
},
{
angle = 59.004;
position = "{290, 380}";
showMeasurement = 1;
},
{
angle = -59.004;
position = "{220, 380}";
showMeasurement = 1;
}
);
layerId = "3864C296-439A-4200-9E6D-A7A6FACAB388";
name = oldbold;
paths = (
{
closed = 1;
nodes = (
"402 -7 OFFCURVE",
"500 93 OFFCURVE",
"500 244 CURVE SMOOTH",
"500 281 LINE SMOOTH",
"500 432 OFFCURVE",
"402 532 OFFCURVE",
"255 532 CURVE SMOOTH",
"108 532 OFFCURVE",
"10 432 OFFCURVE",
"10 281 CURVE SMOOTH",
"10 244 LINE SMOOTH",
"10 93 OFFCURVE",
"108 -7 OFFCURVE",
"255 -7 CURVE SMOOTH"
);
},
{
closed = 1;
nodes = (
"221 154 OFFCURVE",
"198 186 OFFCURVE",
"198 235 CURVE SMOOTH",
"198 290 LINE SMOOTH",
"198 339 OFFCURVE",
"221 371 OFFCURVE",
"255 371 CURVE SMOOTH",
"289 371 OFFCURVE",
"312 339 OFFCURVE",
"312 290 CURVE SMOOTH",
"312 235 LINE SMOOTH",
"312 186 OFFCURVE",
"289 154 OFFCURVE",
"255 154 CURVE SMOOTH"
);
}
);
width = 510;
},
{
anchors = (
{
name = top;
position = "{251, 528}";
}
);
associatedMasterId = "FFFA8D72-12AC-4CE0-B2CA-57A29829F4DA";
guideLines = (
{
angle = -29.004;
position = "{218, 260}";
showMeasurement = 1;
},
{
angle = 59.004;
position = "{290, 260}";
showMeasurement = 1;
},
{
angle = 59.004;
position = "{290, 260}";
showMeasurement = 1;
},
{
angle = 59.004;
position = "{290, 380}";
showMeasurement = 1;
},
{
angle = -59.004;
position = "{220, 380}";
showMeasurement = 1;
}
);
layerId = "DE3342F3-73B1-435C-BEC9-D64414508369";
name = "Feb 19 17, 05:54";
paths = (
{
closed = 1;
nodes = (
"402 -7 OFFCURVE",
"500 93 OFFCURVE",
"500 244 CURVE SMOOTH",
"500 281 LINE SMOOTH",
"500 432 OFFCURVE",
"402 532 OFFCURVE",
"255 532 CURVE SMOOTH",
"108 532 OFFCURVE",
"10 432 OFFCURVE",
"10 281 CURVE SMOOTH",
"10 244 LINE SMOOTH",
"10 93 OFFCURVE",
"108 -7 OFFCURVE",
"255 -7 CURVE SMOOTH"
);
},
{
closed = 1;
nodes = (
"221 154 OFFCURVE",
"198 186 OFFCURVE",
"198 235 CURVE SMOOTH",
"198 290 LINE SMOOTH",
"198 339 OFFCURVE",
"221 371 OFFCURVE",
"255 371 CURVE SMOOTH",
"289 371 OFFCURVE",
"312 339 OFFCURVE",
"312 290 CURVE SMOOTH",
"312 235 LINE SMOOTH",
"312 186 OFFCURVE",
"289 154 OFFCURVE",
"255 154 CURVE SMOOTH"
);
}
);
width = 510;
},
{
anchors = (
{
name = top;
position = "{251, 528}";
}
);
associatedMasterId = "FFFA8D72-12AC-4CE0-B2CA-57A29829F4DA";
guideLines = (
{
angle = -29.004;
position = "{218, 260}";
showMeasurement = 1;
},
{
angle = 59.004;
position = "{290, 260}";
showMeasurement = 1;
},
{
angle = 59.004;
position = "{290, 260}";
showMeasurement = 1;
},
{
angle = 59.004;
position = "{290, 380}";
showMeasurement = 1;
},
{
angle = -59.004;
position = "{220, 380}";
showMeasurement = 1;
}
);
layerId = "D68179E8-F548-401F-8247-1E270525670B";
name = "Feb 19 17, 05:55";
paths = (
{
closed = 1;
nodes = (
"292 -8 OFFCURVE",
"332 -1 OFFCURVE",
"366 14 CURVE SMOOTH",
"545 94 OFFCURVE",
"550 420 OFFCURVE",
"366 505 CURVE SMOOTH",
"333 520 OFFCURVE",
"294 528 OFFCURVE",
"251 528 CURVE SMOOTH",
"213 528 OFFCURVE",
"176 522 OFFCURVE",
"144 508 CURVE SMOOTH",
"-40 428 OFFCURVE",
"-38 91 OFFCURVE",
"142 12 CURVE SMOOTH",
"174 -2 OFFCURVE",
"211 -8 OFFCURVE",
"250 -8 CURVE SMOOTH"
);
},
{
closed = 1;
nodes = (
"236 153 OFFCURVE",
"220 158 OFFCURVE",
"209 182 CURVE SMOOTH",
"192 220 OFFCURVE",
"191 300 OFFCURVE",
"210 339 CURVE SMOOTH",
"218 355 OFFCURVE",
"231 367 OFFCURVE",
"253 367 CURVE SMOOTH",
"268 367 OFFCURVE",
"281 361 OFFCURVE",
"292 339 CURVE SMOOTH",
"314 296 OFFCURVE",
"317 223 OFFCURVE",
"297 182 CURVE SMOOTH",
"288 163 OFFCURVE",
"274 153 OFFCURVE",
"252 153 CURVE SMOOTH"
);
}
);
width = 510;
},
{
anchors = (
{
name = top;
position = "{223, 532}";
}
);
associatedMasterId = "4E2227F3-52E4-4048-A8EE-327B486EF0A4";
guideLines = (
{
angle = 39.959;
position = "{289, 232}";
showMeasurement = 1;
},
{
angle = -39.959;
position = "{156, 232}";
showMeasurement = 1;
},
{
angle = 39.959;
position = "{289, 404}";
showMeasurement = 1;
},
{
angle = -180;
position = "{224, 260}";
showMeasurement = 1;
},
{
angle = -39.959;
position = "{155, 404}";
showMeasurement = 1;
}
);
layerId = "F7F399D2-DBAD-450E-B011-6AA073A84551";
name = "Feb 24 17, 00:19";
paths = (
{
closed = 1;
nodes = (
"359 -7 OFFCURVE",
"435 57 OFFCURVE",
"435 170 CURVE SMOOTH",
"435 193 OFFCURVE",
"435 237 OFFCURVE",
"435 260 CURVE SMOOTH",
"435 283 OFFCURVE",
"435 327 OFFCURVE",
"435 350 CURVE SMOOTH",
"435 456 OFFCURVE",
"359 532 OFFCURVE",
"223 532 CURVE SMOOTH",
"87 532 OFFCURVE",
"10 456 OFFCURVE",
"10 350 CURVE SMOOTH",
"10 327 OFFCURVE",
"10 283 OFFCURVE",
"10 260 CURVE SMOOTH",
"10 237 OFFCURVE",
"10 193 OFFCURVE",
"10 170 CURVE SMOOTH",
"10 57 OFFCURVE",
"87 -7 OFFCURVE",
"223 -7 CURVE SMOOTH"
);
},
{
closed = 1;
nodes = (
"215 154 OFFCURVE",
"207 158 OFFCURVE",
"204 164 CURVE SMOOTH",
"198 175 OFFCURVE",
"198 195 OFFCURVE",
"198 260 CURVE SMOOTH",
"198 332 OFFCURVE",
"197 348 OFFCURVE",
"204 360 CURVE SMOOTH",
"208 366 OFFCURVE",
"214 371 OFFCURVE",
"223 371 CURVE SMOOTH",
"231 371 OFFCURVE",
"238 366 OFFCURVE",
"241 360 CURVE SMOOTH",
"247 348 OFFCURVE",
"247 332 OFFCURVE",
"247 260 CURVE SMOOTH",
"247 196 OFFCURVE",
"247 176 OFFCURVE",
"241 164 CURVE SMOOTH",
"238 158 OFFCURVE",
"231 154 OFFCURVE",
"223 154 CURVE SMOOTH"
);
}
);
width = 445;
},
{
anchors = (
{
name = top;
position = "{262, 528}";
}
);
associatedMasterId = "FFFA8D72-12AC-4CE0-B2CA-57A29829F4DA";
guideLines = (
{
position = "{263, 144}";
},
{
position = "{262, 381}";
},
{
position = "{264, 263}";
},
{
position = "{262, 340}";
},
{
position = "{262, 186}";
}
);
layerId = "080DEFAF-74FD-4956-92F6-84BCF3C584DE";
name = "Feb 24 17, 15:49";
paths = (
{
closed = 1;
nodes = (
"372 -8 OFFCURVE",
"459 49 OFFCURVE",
"494 144 CURVE SMOOTH",
"507 179 OFFCURVE",
"514 219 OFFCURVE",
"514 263 CURVE SMOOTH",
"514 307 OFFCURVE",
"507 346 OFFCURVE",
"494 381 CURVE SMOOTH",
"459 476 OFFCURVE",
"372 528 OFFCURVE",
"262 528 CURVE SMOOTH",
"152 528 OFFCURVE",
"65 476 OFFCURVE",
"30 381 CURVE SMOOTH",
"17 346 OFFCURVE",
"10 307 OFFCURVE",
"10 263 CURVE SMOOTH",
"10 219 OFFCURVE",
"17 179 OFFCURVE",
"30 144 CURVE SMOOTH",
"65 49 OFFCURVE",
"152 -8 OFFCURVE",
"262 -8 CURVE SMOOTH"
);
},
{
closed = 1;
nodes = (
"237 153 OFFCURVE",
"221 165 OFFCURVE",
"212 185 CURVE SMOOTH",
"203 205 OFFCURVE",
"200 232 OFFCURVE",
"200 262 CURVE SMOOTH",
"200 298 OFFCURVE",
"202 316 OFFCURVE",
"212 336 CURVE SMOOTH",
"222 355 OFFCURVE",
"237 367 OFFCURVE",
"262 367 CURVE SMOOTH",
"287 367 OFFCURVE",
"302 355 OFFCURVE",
"312 336 CURVE SMOOTH",
"322 317 OFFCURVE",
"324 290 OFFCURVE",
"324 262 CURVE SMOOTH",
"324 232 OFFCURVE",
"321 205 OFFCURVE",
"312 185 CURVE SMOOTH",
"303 165 OFFCURVE",
"287 153 OFFCURVE",
"262 153 CURVE SMOOTH"
);
}
);
width = 524;
},
{
anchors = (
{
name = top;
position = "{260, 517}";
}
);
associatedMasterId = "DCBE1F7B-116A-43E0-B7B4-8657BA77D8B5";
guideLines = (
{
angle = 66;
position = "{191, 250}";
showMeasurement = 1;
},
{
angle = 112;
position = "{190, 250}";
showMeasurement = 1;
},
{
angle = -180;
position = "{190, 250}";
showMeasurement = 1;
}
);
hints = (
{
horizontal = 1;
origin = "{0, 11}";
target = "{1, 11}";
},
{
origin = "{0, 17}";
target = "{1, 5}";
},
{
origin = "{1, 17}";
target = "{0, 5}";
},
{
horizontal = 1;
origin = "{0, 23}";
target = "{1, 23}";
}
);
layerId = "6D643361-19D7-4F3D-9238-F56945FA1F6A";
name = "{100,5}";
paths = (
{
closed = 1;
nodes = (
"355 -8 OFFCURVE",
"428 45 OFFCURVE",
"459 135 CURVE SMOOTH",
"471 170 OFFCURVE",
"478 215 OFFCURVE",
"478 257 CURVE SMOOTH",
"478 299 OFFCURVE",
"471 343 OFFCURVE",
"459 377 CURVE SMOOTH",
"428 465 OFFCURVE",
"356 517 OFFCURVE",
"263 517 CURVE SMOOTH",
"164 517 OFFCURVE",
"89 465 OFFCURVE",
"60 376 CURVE SMOOTH",
"49 344 OFFCURVE",
"43 299 OFFCURVE",
"43 256 CURVE SMOOTH",
"43 213 OFFCURVE",
"50 168 OFFCURVE",
"61 135 CURVE SMOOTH",
"92 45 OFFCURVE",
"166 -8 OFFCURVE",
"262 -8 CURVE SMOOTH"
);
},
{
closed = 1;
nodes = (
"210 78 OFFCURVE",
"170 109 OFFCURVE",
"155 162 CURVE SMOOTH",
"148 185 OFFCURVE",
"144 220 OFFCURVE",
"144 255 CURVE SMOOTH",
"144 291 OFFCURVE",
"148 325 OFFCURVE",
"155 347 CURVE SMOOTH",
"171 400 OFFCURVE",
"210 431 OFFCURVE",
"260 431 CURVE SMOOTH",
"311 431 OFFCURVE",
"350 400 OFFCURVE",
"366 347 CURVE SMOOTH",
"373 325 OFFCURVE",
"377 291 OFFCURVE",
"377 255 CURVE SMOOTH",
"377 222 OFFCURVE",
"373 187 OFFCURVE",
"365 162 CURVE SMOOTH",
"348 109 OFFCURVE",
"310 78 OFFCURVE",
"262 78 CURVE SMOOTH"
);
}
);
width = 521;
}
);
leftKerningGroup = o;
rightKerningGroup = o;
unicode = 006F;
},
{
color = 3;
glyphname = oslash;
lastChange = "2017-03-24 06:13:37 +0000";
layers = (
{
components = (
{
name = o;
transform = "{1, 0, 0, 1, -7, 0}";
}
);
layerId = "262880E7-CFE1-4BDA-902E-E24798F3240A";
paths = (
{
closed = 1;
nodes = (
"53 -10 LINE",
"71 -22 LINE",
"412 510 LINE",
"393 522 LINE"
);
}
);
width = 468;
},
{
components = (
{
name = o;
transform = "{1, 0, 0, 1, -6, 0}";
}
);
layerId = "FFFA8D72-12AC-4CE0-B2CA-57A29829F4DA";
paths = (
{
closed = 1;
nodes = (
"46 -1 LINE",
"102 -43 LINE",
"499 520 LINE",
"443 562 LINE"
);
}
);
width = 544;
},
{
components = (
{
name = o;
transform = "{1, 0, 0, 1, 3, 0}";
}
);
layerId = "DCBE1F7B-116A-43E0-B7B4-8657BA77D8B5";
paths = (
{
closed = 1;
nodes = (
"58 -11 LINE",
"78 -20 LINE",
"307 517 LINE",
"287 526 LINE"
);
}
);
width = 359;
},
{
components = (
{
name = o;
transform = "{1, 0, 0, 1, -4, 0}";
}
);
layerId = "4E2227F3-52E4-4048-A8EE-327B486EF0A4";
paths = (
{
closed = 1;
nodes = (
"41 2 LINE",
"90 -33 LINE",
"405 518 LINE",
"356 553 LINE"
);
}
);
width = 445;
},
{
associatedMasterId = "4E2227F3-52E4-4048-A8EE-327B486EF0A4";
components = (
{
name = o;
}
);
layerId = "7612D324-623E-43BE-8E83-BA2F140089CB";
name = "Mar 11 17, 03:09";
paths = (
{
closed = 0;
nodes = (
"29 -30 LINE",
"417 550 LINE"
);
}
);
width = 445;
},
{
associatedMasterId = "4E2227F3-52E4-4048-A8EE-327B486EF0A4";
components = (
{
name = o;
transform = "{1, 0, 0, 1, 22, 0}";
}
);
layerId = "92E5A5E4-16C2-4CBD-A4EF-FCC9D4499A9B";
name = "{100,5}";
paths = (
{
closed = 1;
nodes = (
"47 2 LINE",
"112 -45 LINE",
"487 511 LINE",
"422 558 LINE"
);
}
);
width = 519;
},
{
associatedMasterId = "4E2227F3-52E4-4048-A8EE-327B486EF0A4";
components = (
{
name = o;
transform = "{1, 0, 0, 1, 15, 0}";
}
);
layerId = "09747819-426A-476F-92E4-309237D14A88";
name = "{100,3}";
paths = (
{
closed = 1;
nodes = (
"32 0 LINE",
"100 -40 LINE",
"399 509 LINE",
"331 548 LINE"
);
}
);
width = 482;
}
);
leftKerningGroup = o;
rightKerningGroup = o;
unicode = 00F8;
},
{
glyphname = thorn;
lastChange = "2017-03-24 06:13:27 +0000";
layers = (
{
components = (
{
name = b.bowl;
transform = "{1, 0, 0, 1, 111, 0}";
}
);
layerId = "262880E7-CFE1-4BDA-902E-E24798F3240A";
paths = (
{
closed = 1;
nodes = (
"108 -167 LINE",
"130 -167 LINE",
"130 725 LINE",
"108 725 LINE"
);
}
);
width = 541;
},
{
components = (
{
name = b.bowl;
transform = "{1, 0, 0, 1, 165, 0}";
}
);
layerId = "FFFA8D72-12AC-4CE0-B2CA-57A29829F4DA";
paths = (
{
closed = 1;
nodes = (
"36 -183 LINE",
"224 -183 LINE",
"224 733 LINE",
"36 733 LINE"
);
}
);
width = 552;
},
{
components = (
{
name = b.bowl;
transform = "{1, 0, 0, 1, 79, 0}";
}
);
layerId = "DCBE1F7B-116A-43E0-B7B4-8657BA77D8B5";
paths = (
{
closed = 1;
nodes = (
"72 -167 LINE",
"94 -167 LINE",
"94 725 LINE",
"72 725 LINE"
);
}
);
width = 393;
},
{
components = (
{
name = b.bowl;
transform = "{1, 0, 0, 1, 178, 0}";
}
);
layerId = "4E2227F3-52E4-4048-A8EE-327B486EF0A4";
paths = (
{
closed = 1;
nodes = (
"24 -183 LINE",
"212 -183 LINE",
"212 733 LINE",
"24 733 LINE"
);
}
);
width = 463;
}
);
leftMetricsKey = "=l";
rightMetricsKey = "=b";
unicode = 00FE;
},
{
color = 3;
glyphname = r;
lastChange = "2017-03-24 06:13:37 +0000";
layers = (
{
hints = (
{
horizontal = 1;
origin = "{0, 10}";
target = "{0, 3}";
},
{
origin = "{1, 3}";
target = "{1, 0}";
}
);
layerId = "262880E7-CFE1-4BDA-902E-E24798F3240A";
paths = (
{
closed = 1;
nodes = (
"130 331 LINE",
"130 419 OFFCURVE",
"189 479 OFFCURVE",
"274 479 CURVE SMOOTH",
"301 479 OFFCURVE",
"316 474 OFFCURVE",
"331 466 CURVE",
"342 489 LINE",
"325 498 OFFCURVE",
"307 504 OFFCURVE",
"275 504 CURVE SMOOTH",
"178 504 OFFCURVE",
"115 438 OFFCURVE",
"115 331 CURVE"
);
},
{
closed = 1;
nodes = (
"130 0 LINE",
"130 500 LINE",
"108 500 LINE",
"108 0 LINE"
);
}
);
width = 360;
},
{
layerId = "4E2227F3-52E4-4048-A8EE-327B486EF0A4";
paths = (
{
closed = 1;
nodes = (
"212 273 LINE",
"212 294 OFFCURVE",
"224 318 OFFCURVE",
"243 327 CURVE SMOOTH",
"267 338 OFFCURVE",
"306 333 OFFCURVE",
"316 325 CURVE",
"345 510 LINE",
"336 519 OFFCURVE",
"320 527 OFFCURVE",
"295 527 CURVE SMOOTH",
"178 527 OFFCURVE",
"184 352 OFFCURVE",
"184 273 CURVE"
);
},
{
closed = 1;
nodes = (
"212 1 LINE",
"212 520 LINE",
"24 520 LINE",
"24 1 LINE"
);
}
);
width = 349;
},
{
layerId = "FFFA8D72-12AC-4CE0-B2CA-57A29829F4DA";
paths = (
{
closed = 1;
nodes = (
"224 273 LINE",
"224 307 OFFCURVE",
"258 326 OFFCURVE",
"287 332 CURVE SMOOTH",
"320 339 OFFCURVE",
"354 332 OFFCURVE",
"362 325 CURVE",
"391 507 LINE",
"382 516 OFFCURVE",
"362 527 OFFCURVE",
"328 527 CURVE SMOOTH",
"210 527 OFFCURVE",
"176 394 OFFCURVE",
"176 273 CURVE"
);
},
{
closed = 1;
nodes = (
"224 1 LINE",
"224 520 LINE",
"36 520 LINE",
"36 1 LINE"
);
}
);
width = 397;
},
{
layerId = "DCBE1F7B-116A-43E0-B7B4-8657BA77D8B5";
paths = (
{
closed = 1;
nodes = (
"94 331 LINE",
"94 419 OFFCURVE",
"137 479 OFFCURVE",
"198 479 CURVE SMOOTH",
"219 479 OFFCURVE",
"230 474 OFFCURVE",
"241 466 CURVE",
"251 489 LINE",
"238 498 OFFCURVE",
"225 504 OFFCURVE",
"201 504 CURVE SMOOTH",
"128 504 OFFCURVE",
"81 438 OFFCURVE",
"81 331 CURVE"
);
},
{
closed = 1;
nodes = (
"94 0 LINE",
"94 500 LINE",
"72 500 LINE",
"72 0 LINE"
);
}
);
width = 263;
},
{
associatedMasterId = "4E2227F3-52E4-4048-A8EE-327B486EF0A4";
layerId = "0231DC7A-BAB0-489B-A1F9-3A50B9D86C74";
name = "{100,5}";
paths = (
{
closed = 1;
nodes = (
"173 304 LINE",
"173 360 OFFCURVE",
"208 402 OFFCURVE",
"256 408 CURVE SMOOTH",
"279 411 OFFCURVE",
"302 405 OFFCURVE",
"311 400 CURVE",
"344 499 LINE",
"331 508 OFFCURVE",
"315 515 OFFCURVE",
"282 515 CURVE SMOOTH",
"185 515 OFFCURVE",
"133 412 OFFCURVE",
"133 304 CURVE"
);
},
{
closed = 1;
nodes = (
"173 0 LINE",
"173 510 LINE",
"74 510 LINE",
"74 0 LINE"
);
}
);
width = 356;
}
);
leftKerningGroup = n;
rightKerningGroup = r;
unicode = 0072;
},
{
color = 3;
glyphname = s;
lastChange = "2017-03-24 06:13:37 +0000";
layers = (
{
anchors = (
{
name = top;
position = "{231, 504}";
}
);
hints = (
{
horizontal = 1;
origin = "{0, 20}";
target = "{0, 11}";
},
{
origin = "{0, 23}";
target = "{0, 8}";
},
{
origin = "{0, 14}";
target = "{0, 17}";
},
{
horizontal = 1;
origin = "{0, 41}";
target = "{0, 32}";
},
{
origin = "{0, 29}";
target = "{0, 2}";
},
{
origin = "{0, 38}";
target = "{0, 35}";
}
);
layerId = "262880E7-CFE1-4BDA-902E-E24798F3240A";
paths = (
{
closed = 1;
nodes = (
"334 -4 OFFCURVE",
"399 53 OFFCURVE",
"399 130 CURVE SMOOTH",
"399 218 OFFCURVE",
"313 241 OFFCURVE",
"230 267 CURVE SMOOTH",
"153 291 OFFCURVE",
"87 313 OFFCURVE",
"87 379 CURVE SMOOTH",
"87 440 OFFCURVE",
"143 483 OFFCURVE",
"229 483 CURVE SMOOTH",
"318 483 OFFCURVE",
"375 437 OFFCURVE",
"375 379 CURVE SMOOTH",
"375 366 LINE",
"397 366 LINE",
"397 379 LINE SMOOTH",
"397 450 OFFCURVE",
"331 504 OFFCURVE",
"230 504 CURVE SMOOTH",
"132 504 OFFCURVE",
"65 454 OFFCURVE",
"65 378 CURVE SMOOTH",
"65 297 OFFCURVE",
"142 271 OFFCURVE",
"225 245 CURVE SMOOTH",
"301 221 OFFCURVE",
"377 202 OFFCURVE",
"377 129 CURVE SMOOTH",
"377 65 OFFCURVE",
"319 17 OFFCURVE",
"232 17 CURVE SMOOTH",
"143 17 OFFCURVE",
"85 67 OFFCURVE",
"85 122 CURVE SMOOTH",
"85 147 LINE",
"63 147 LINE",
"63 122 LINE SMOOTH",
"63 54 OFFCURVE",
"131 -4 OFFCURVE",
"233 -4 CURVE SMOOTH"
);
}
);
width = 462;
},
{
anchors = (
{
name = top;
position = "{217, 528}";
}
);
layerId = "4E2227F3-52E4-4048-A8EE-327B486EF0A4";
paths = (
{
closed = 1;
nodes = (
"348 -8 OFFCURVE",
"431 52 OFFCURVE",
"431 151 CURVE SMOOTH",
"431 253 OFFCURVE",
"342 285 OFFCURVE",
"271 306 CURVE SMOOTH",
"244 314 OFFCURVE",
"201 327 OFFCURVE",
"201 357 CURVE SMOOTH",
"201 368 OFFCURVE",
"207 383 OFFCURVE",
"222 383 CURVE SMOOTH",
"234 383 OFFCURVE",
"244 374 OFFCURVE",
"244 357 CURVE SMOOTH",
"244 336 LINE",
"419 336 LINE",
"419 346 LINE SMOOTH",
"419 455 OFFCURVE",
"340 528 OFFCURVE",
"217 528 CURVE SMOOTH",
"100 528 OFFCURVE",
"21 463 OFFCURVE",
"21 358 CURVE SMOOTH",
"21 258 OFFCURVE",
"93 215 OFFCURVE",
"149 197 CURVE SMOOTH",
"192 183 OFFCURVE",
"242 177 OFFCURVE",
"242 149 CURVE SMOOTH",
"242 138 OFFCURVE",
"235 130 OFFCURVE",
"223 130 CURVE SMOOTH",
"211 130 OFFCURVE",
"194 139 OFFCURVE",
"194 161 CURVE SMOOTH",
"194 174 LINE",
"14 174 LINE",
"14 156 LINE",
"14 58 OFFCURVE",
"97 -8 OFFCURVE",
"225 -8 CURVE SMOOTH"
);
}
);
width = 445;
},
{
anchors = (
{
name = top;
position = "{256, 528}";
}
);
layerId = "FFFA8D72-12AC-4CE0-B2CA-57A29829F4DA";
paths = (
{
closed = 1;
nodes = (
"405 -8 OFFCURVE",
"502 49 OFFCURVE",
"502 155 CURVE SMOOTH",
"502 230 OFFCURVE",
"467 272 OFFCURVE",
"391 299 CURVE SMOOTH",
"306 329 OFFCURVE",
"208 317 OFFCURVE",
"208 355 CURVE SMOOTH",
"208 373 OFFCURVE",
"231 383 OFFCURVE",
"260 383 CURVE SMOOTH",
"294 383 OFFCURVE",
"315 369 OFFCURVE",
"315 347 CURVE SMOOTH",
"315 336 LINE",
"490 336 LINE",
"490 347 LINE SMOOTH",
"490 456 OFFCURVE",
"398 528 OFFCURVE",
"256 528 CURVE SMOOTH",
"121 528 OFFCURVE",
"28 459 OFFCURVE",
"28 356 CURVE SMOOTH",
"28 287 OFFCURVE",
"63 250 OFFCURVE",
"114 223 CURVE SMOOTH",
"196 180 OFFCURVE",
"313 193 OFFCURVE",
"313 159 CURVE SMOOTH",
"313 142 OFFCURVE",
"294 130 OFFCURVE",
"262 130 CURVE SMOOTH",
"228 130 OFFCURVE",
"201 144 OFFCURVE",
"201 166 CURVE SMOOTH",
"201 177 LINE",
"21 177 LINE",
"21 153 LINE",
"21 56 OFFCURVE",
"115 -8 OFFCURVE",
"264 -8 CURVE SMOOTH"
);
}
);
width = 523;
},
{
anchors = (
{
name = top;
position = "{169, 504}";
}
);
layerId = "DCBE1F7B-116A-43E0-B7B4-8657BA77D8B5";
paths = (
{
closed = 1;
nodes = (
"248 -4 OFFCURVE",
"298 47 OFFCURVE",
"298 123 CURVE SMOOTH",
"298 212 OFFCURVE",
"232 238 OFFCURVE",
"170 264 CURVE SMOOTH",
"116 287 OFFCURVE",
"66 310 OFFCURVE",
"66 378 CURVE SMOOTH",
"66 441 OFFCURVE",
"107 483 OFFCURVE",
"169 483 CURVE SMOOTH",
"233 483 OFFCURVE",
"275 437 OFFCURVE",
"275 379 CURVE SMOOTH",
"275 366 LINE",
"296 366 LINE",
"296 379 LINE SMOOTH",
"296 450 OFFCURVE",
"247 504 OFFCURVE",
"170 504 CURVE SMOOTH",
"95 504 OFFCURVE",
"44 454 OFFCURVE",
"44 378 CURVE SMOOTH",
"44 294 OFFCURVE",
"103 268 OFFCURVE",
"164 243 CURVE SMOOTH",
"222 219 OFFCURVE",
"276 196 OFFCURVE",
"276 123 CURVE SMOOTH",
"276 59 OFFCURVE",
"235 17 OFFCURVE",
"172 17 CURVE SMOOTH",
"105 17 OFFCURVE",
"64 61 OFFCURVE",
"64 116 CURVE SMOOTH",
"64 130 LINE",
"42 130 LINE",
"42 116 LINE SMOOTH",
"42 48 OFFCURVE",
"94 -4 OFFCURVE",
"172 -4 CURVE SMOOTH"
);
}
);
width = 340;
},
{
anchors = (
{
name = top;
position = "{240, 515}";
}
);
associatedMasterId = "4E2227F3-52E4-4048-A8EE-327B486EF0A4";
layerId = "85F9CC44-E494-4B9A-8AA4-6569A0BE88A1";
name = "{100,5}";
paths = (
{
closed = 1;
nodes = (
"364 -6 OFFCURVE",
"443 51 OFFCURVE",
"443 143 CURVE SMOOTH",
"443 249 OFFCURVE",
"339 278 OFFCURVE",
"253 301 CURVE SMOOTH",
"190 318 OFFCURVE",
"143 333 OFFCURVE",
"143 375 CURVE SMOOTH",
"143 414 OFFCURVE",
"183 436 OFFCURVE",
"239 436 CURVE SMOOTH",
"305 436 OFFCURVE",
"343 405 OFFCURVE",
"343 369 CURVE SMOOTH",
"343 357 LINE",
"437 357 LINE",
"437 369 LINE SMOOTH",
"437 453 OFFCURVE",
"359 515 OFFCURVE",
"240 515 CURVE SMOOTH",
"126 515 OFFCURVE",
"47 459 OFFCURVE",
"47 367 CURVE SMOOTH",
"47 263 OFFCURVE",
"147 232 OFFCURVE",
"235 208 CURVE SMOOTH",
"295 191 OFFCURVE",
"343 178 OFFCURVE",
"343 136 CURVE SMOOTH",
"343 99 OFFCURVE",
"304 70 OFFCURVE",
"244 70 CURVE SMOOTH",
"182 70 OFFCURVE",
"139 103 OFFCURVE",
"139 138 CURVE SMOOTH",
"139 152 LINE",
"43 152 LINE",
"43 132 LINE SMOOTH",
"43 55 OFFCURVE",
"122 -6 OFFCURVE",
"245 -6 CURVE SMOOTH"
);
}
);
width = 486;
},
{
anchors = (
{
name = top;
position = "{192, 515}";
}
);
associatedMasterId = "4E2227F3-52E4-4048-A8EE-327B486EF0A4";
layerId = "785EF2C0-A975-4A92-811F-C78DC21C62C7";
name = "{100,3}";
paths = (
{
closed = 1;
nodes = (
"296 -6 OFFCURVE",
"360 49 OFFCURVE",
"360 136 CURVE SMOOTH",
"360 233 OFFCURVE",
"279 268 OFFCURVE",
"223 292 CURVE SMOOTH",
"173 314 OFFCURVE",
"129 330 OFFCURVE",
"129 373 CURVE SMOOTH",
"129 405 OFFCURVE",
"152 436 OFFCURVE",
"194 436 CURVE SMOOTH",
"233 436 OFFCURVE",
"260 408 OFFCURVE",
"260 373 CURVE SMOOTH",
"260 355 LINE",
"353 355 LINE",
"353 368 LINE SMOOTH",
"353 458 OFFCURVE",
"292 515 OFFCURVE",
"192 515 CURVE SMOOTH",
"96 515 OFFCURVE",
"33 462 OFFCURVE",
"33 370 CURVE SMOOTH",
"33 269 OFFCURVE",
"111 236 OFFCURVE",
"164 214 CURVE SMOOTH",
"212 194 OFFCURVE",
"260 177 OFFCURVE",
"260 131 CURVE SMOOTH",
"260 97 OFFCURVE",
"235 70 OFFCURVE",
"195 70 CURVE SMOOTH",
"154 70 OFFCURVE",
"124 97 OFFCURVE",
"124 132 CURVE SMOOTH",
"124 149 LINE",
"29 149 LINE",
"29 130 LINE",
"29 47 OFFCURVE",
"92 -6 OFFCURVE",
"193 -6 CURVE SMOOTH"
);
}
);
width = 389;
}
);
leftKerningGroup = s;
rightKerningGroup = s;
unicode = 0073;
},
{
glyphname = t;
lastChange = "2017-03-24 06:11:59 +0000";
layers = (
{
hints = (
{
horizontal = 1;
origin = "{1, 1}";
target = "{1, 0}";
},
{
origin = "{0, 7}";
target = "{0, 6}";
},
{
horizontal = 1;
origin = "{0, 0}";
target = "{0, 1}";
}
);
layerId = "262880E7-CFE1-4BDA-902E-E24798F3240A";
paths = (
{
closed = 1;
nodes = (
"291 0 LINE",
"291 21 LINE",
"262 21 LINE SMOOTH",
"189 21 OFFCURVE",
"151 43 OFFCURVE",
"151 123 CURVE SMOOTH",
"151 626 LINE",
"129 626 LINE",
"129 124 LINE SMOOTH",
"129 23 OFFCURVE",
"185 0 OFFCURVE",
"262 0 CURVE SMOOTH"
);
},
{
closed = 1;
nodes = (
"289 479 LINE",
"289 500 LINE",
"54 500 LINE",
"54 479 LINE"
);
}
);
width = 354;
},
{
layerId = "4E2227F3-52E4-4048-A8EE-327B486EF0A4";
paths = (
{
closed = 1;
nodes = (
"288 7 LINE",
"288 169 LINE",
"271 169 LINE",
"253 168 OFFCURVE",
"240 173 OFFCURVE",
"240 199 CURVE",
"240 650 LINE",
"60 650 LINE",
"60 116 LINE",
"60 17 OFFCURVE",
"127 -11 OFFCURVE",
"225 0 CURVE SMOOTH"
);
},
{
closed = 1;
nodes = (
"303 390 LINE",
"303 520 LINE",
"12 520 LINE",
"12 390 LINE"
);
}
);
width = 317;
},
{
layerId = "FFFA8D72-12AC-4CE0-B2CA-57A29829F4DA";
paths = (
{
closed = 1;
nodes = (
"360 5 LINE",
"360 162 LINE",
"308 164 LINE",
"281 165 OFFCURVE",
"272 185 OFFCURVE",
"272 214 CURVE",
"272 660 LINE",
"92 660 LINE",
"92 136 LINE",
"93 37 OFFCURVE",
"160 -2 OFFCURVE",
"257 0 CURVE"
);
},
{
closed = 1;
nodes = (
"375 370 LINE",
"375 520 LINE",
"18 520 LINE",
"18 370 LINE"
);
}
);
width = 396;
},
{
layerId = "DCBE1F7B-116A-43E0-B7B4-8657BA77D8B5";
paths = (
{
closed = 1;
nodes = (
"216 0 LINE",
"216 21 LINE",
"195 21 LINE SMOOTH",
"142 21 OFFCURVE",
"115 43 OFFCURVE",
"115 123 CURVE SMOOTH",
"115 626 LINE",
"92 626 LINE",
"92 124 LINE SMOOTH",
"92 23 OFFCURVE",
"133 0 OFFCURVE",
"193 0 CURVE SMOOTH"
);
},
{
closed = 1;
nodes = (
"216 479 LINE",
"216 500 LINE",
"36 500 LINE",
"36 479 LINE"
);
}
);
width = 258;
}
);
leftKerningGroup = t;
rightKerningGroup = t;
unicode = 0074;
},
{
glyphname = u;
lastChange = "2017-03-24 06:13:37 +0000";
layers = (
{
anchors = (
{
name = top;
position = "{262, 500}";
}
);
hints = (
{
origin = "{0, 11}";
target = "{0, 10}";
},
{
origin = "{1, 2}";
target = "{1, 1}";
},
{
horizontal = 1;
origin = "{0, 15}";
target = "{0, 6}";
}
);
layerId = "262880E7-CFE1-4BDA-902E-E24798F3240A";
paths = (
{
closed = 1;
nodes = (
"361 -7 OFFCURVE",
"431 57 OFFCURVE",
"431 161 CURVE",
"412 161 LINE",
"412 74 OFFCURVE",
"352 14 OFFCURVE",
"259 14 CURVE SMOOTH",
"172 14 OFFCURVE",
"112 71 OFFCURVE",
"112 161 CURVE SMOOTH",
"112 500 LINE",
"90 500 LINE",
"90 158 LINE SMOOTH",
"90 57 OFFCURVE",
"158 -7 OFFCURVE",
"256 -7 CURVE SMOOTH"
);
},
{
closed = 1;
nodes = (
"434 0 LINE",
"434 500 LINE",
"412 500 LINE",
"412 0 LINE"
);
}
);
width = 533;
},
{
anchors = (
{
name = top;
position = "{229, 520}";
}
);
layerId = "4E2227F3-52E4-4048-A8EE-327B486EF0A4";
paths = (
{
closed = 1;
nodes = (
"225 -8 OFFCURVE",
"282 8 OFFCURVE",
"281 185 CURVE",
"252 185 LINE",
"252 164 OFFCURVE",
"244 153 OFFCURVE",
"229 153 CURVE SMOOTH",
"215 153 OFFCURVE",
"208 164 OFFCURVE",
"208 185 CURVE SMOOTH",
"208 520 LINE",
"20 520 LINE",
"20 144 LINE SMOOTH",
"20 31 OFFCURVE",
"92 -8 OFFCURVE",
"162 -8 CURVE SMOOTH"
);
},
{
closed = 1;
nodes = (
"440 0 LINE",
"440 520 LINE",
"252 520 LINE",
"252 0 LINE"
);
}
);
width = 462;
},
{
anchors = (
{
name = top;
position = "{274, 520}";
}
);
layerId = "FFFA8D72-12AC-4CE0-B2CA-57A29829F4DA";
paths = (
{
closed = 1;
nodes = (
"334 -8 OFFCURVE",
"385 63 OFFCURVE",
"385 220 CURVE",
"331 220 LINE",
"331 180 OFFCURVE",
"310 153 OFFCURVE",
"274 153 CURVE SMOOTH",
"228 153 OFFCURVE",
"218 181 OFFCURVE",
"218 221 CURVE SMOOTH",
"218 520 LINE",
"30 520 LINE",
"30 158 LINE SMOOTH",
"30 31 OFFCURVE",
"134 -8 OFFCURVE",
"206 -8 CURVE SMOOTH"
);
},
{
closed = 1;
nodes = (
"519 0 LINE",
"519 520 LINE",
"331 520 LINE",
"331 0 LINE"
);
}
);
width = 552;
},
{
anchors = (
{
name = top;
position = "{200, 500}";
}
);
layerId = "DCBE1F7B-116A-43E0-B7B4-8657BA77D8B5";
paths = (
{
closed = 1;
nodes = (
"276 -7 OFFCURVE",
"326 49 OFFCURVE",
"326 154 CURVE",
"309 154 LINE",
"309 67 OFFCURVE",
"266 14 OFFCURVE",
"198 14 CURVE SMOOTH",
"131 14 OFFCURVE",
"92 57 OFFCURVE",
"92 143 CURVE SMOOTH",
"92 500 LINE",
"70 500 LINE",
"70 138 LINE SMOOTH",
"70 41 OFFCURVE",
"119 -7 OFFCURVE",
"198 -7 CURVE SMOOTH"
);
},
{
closed = 1;
nodes = (
"331 0 LINE",
"331 500 LINE",
"309 500 LINE",
"309 0 LINE"
);
}
);
width = 408;
},
{
anchors = (
{
name = top;
position = "{266, 509}";
}
);
associatedMasterId = "262880E7-CFE1-4BDA-902E-E24798F3240A";
hints = (
{
origin = "{0, 11}";
target = "{0, 10}";
},
{
origin = "{1, 2}";
target = "{1, 1}";
},
{
horizontal = 1;
origin = "{0, 15}";
target = "{0, 6}";
}
);
layerId = "9C4B8252-3DCE-4743-8175-D3E0ED97011B";
name = "{100,5}";
paths = (
{
closed = 1;
nodes = (
"354 -7 OFFCURVE",
"423 50 OFFCURVE",
"423 189 CURVE",
"371 189 LINE",
"371 123 OFFCURVE",
"329 79 OFFCURVE",
"263 79 CURVE SMOOTH",
"197 79 OFFCURVE",
"161 123 OFFCURVE",
"161 189 CURVE SMOOTH",
"161 509 LINE",
"62 509 LINE",
"62 158 LINE SMOOTH",
"62 47 OFFCURVE",
"147 -7 OFFCURVE",
"249 -7 CURVE SMOOTH"
);
},
{
closed = 1;
nodes = (
"470 0 LINE",
"470 509 LINE",
"371 509 LINE",
"371 0 LINE"
);
}
);
width = 538;
},
{
anchors = (
{
name = top;
position = "{248, 509}";
}
);
associatedMasterId = "262880E7-CFE1-4BDA-902E-E24798F3240A";
hints = (
{
origin = "{0, 11}";
target = "{0, 10}";
},
{
origin = "{1, 2}";
target = "{1, 1}";
},
{
horizontal = 1;
origin = "{0, 15}";
target = "{0, 6}";
}
);
layerId = "0F71E79D-333A-423C-B23C-C79EE27105F1";
name = tmp;
paths = (
{
closed = 1;
nodes = (
"327 -7 OFFCURVE",
"387 60 OFFCURVE",
"387 189 CURVE",
"353 189 LINE",
"353 123 OFFCURVE",
"311 79 OFFCURVE",
"246 79 CURVE SMOOTH",
"179 79 OFFCURVE",
"143 122 OFFCURVE",
"143 189 CURVE SMOOTH",
"143 509 LINE",
"44 509 LINE",
"44 158 LINE SMOOTH",
"44 45 OFFCURVE",
"128 -7 OFFCURVE",
"213 -7 CURVE SMOOTH"
);
},
{
closed = 1;
nodes = (
"452 0 LINE",
"452 509 LINE",
"353 509 LINE",
"353 0 LINE"
);
}
);
width = 510;
},
{
anchors = (
{
name = top;
position = "{248, 509}";
}
);
associatedMasterId = "262880E7-CFE1-4BDA-902E-E24798F3240A";
hints = (
{
origin = "{0, 11}";
target = "{0, 10}";
},
{
origin = "{1, 2}";
target = "{1, 1}";
},
{
horizontal = 1;
origin = "{0, 15}";
target = "{0, 6}";
}
);
layerId = "DC25E39C-8CB0-4912-9D4B-0D14D859F8E8";
name = tmp;
paths = (
{
closed = 1;
nodes = (
"327 -7 OFFCURVE",
"387 60 OFFCURVE",
"387 189 CURVE",
"353 189 LINE",
"353 123 OFFCURVE",
"311 79 OFFCURVE",
"246 79 CURVE SMOOTH",
"179 79 OFFCURVE",
"143 122 OFFCURVE",
"143 189 CURVE SMOOTH",
"143 509 LINE",
"44 509 LINE",
"44 158 LINE SMOOTH",
"44 45 OFFCURVE",
"128 -7 OFFCURVE",
"213 -7 CURVE SMOOTH"
);
},
{
closed = 1;
nodes = (
"452 0 LINE",
"452 509 LINE",
"353 509 LINE",
"353 0 LINE"
);
}
);
width = 510;
},
{
anchors = (
{
name = top;
position = "{248, 509}";
}
);
associatedMasterId = "262880E7-CFE1-4BDA-902E-E24798F3240A";
hints = (
{
origin = "{0, 11}";
target = "{0, 10}";
},
{
origin = "{1, 2}";
target = "{1, 1}";
},
{
horizontal = 1;
origin = "{0, 15}";
target = "{0, 6}";
}
);
layerId = "3EF7A56C-E807-45E3-A48E-5C4055B9F171";
name = del;
paths = (
{
closed = 1;
nodes = (
"327 -7 OFFCURVE",
"387 60 OFFCURVE",
"387 189 CURVE",
"353 189 LINE",
"353 123 OFFCURVE",
"311 79 OFFCURVE",
"246 79 CURVE SMOOTH",
"179 79 OFFCURVE",
"143 122 OFFCURVE",
"143 189 CURVE SMOOTH",
"143 509 LINE",
"44 509 LINE",
"44 158 LINE SMOOTH",
"44 45 OFFCURVE",
"128 -7 OFFCURVE",
"213 -7 CURVE SMOOTH"
);
},
{
closed = 1;
nodes = (
"452 0 LINE",
"452 509 LINE",
"353 509 LINE",
"353 0 LINE"
);
}
);
width = 510;
},
{
anchors = (
{
name = top;
position = "{248, 509}";
}
);
associatedMasterId = "262880E7-CFE1-4BDA-902E-E24798F3240A";
hints = (
{
origin = "{0, 11}";
target = "{0, 10}";
},
{
origin = "{1, 2}";
target = "{1, 1}";
},
{
horizontal = 1;
origin = "{0, 15}";
target = "{0, 6}";
}
);
layerId = "21E4EFE5-D84F-471E-A886-B61893977029";
name = del;
paths = (
{
closed = 1;
nodes = (
"327 -7 OFFCURVE",
"387 60 OFFCURVE",
"387 189 CURVE",
"353 189 LINE",
"353 123 OFFCURVE",
"311 79 OFFCURVE",
"246 79 CURVE SMOOTH",
"179 79 OFFCURVE",
"143 122 OFFCURVE",
"143 189 CURVE SMOOTH",
"143 509 LINE",
"44 509 LINE",
"44 158 LINE SMOOTH",
"44 45 OFFCURVE",
"128 -7 OFFCURVE",
"213 -7 CURVE SMOOTH"
);
},
{
closed = 1;
nodes = (
"452 0 LINE",
"452 509 LINE",
"353 509 LINE",
"353 0 LINE"
);
}
);
width = 510;
},
{
anchors = (
{
name = top;
position = "{248, 509}";
}
);
associatedMasterId = "262880E7-CFE1-4BDA-902E-E24798F3240A";
hints = (
{
origin = "{0, 11}";
target = "{0, 10}";
},
{
origin = "{1, 2}";
target = "{1, 1}";
},
{
horizontal = 1;
origin = "{0, 15}";
target = "{0, 6}";
}
);
layerId = "D02CABC3-F35D-477B-9869-C8857D47E4E9";
name = del;
paths = (
{
closed = 1;
nodes = (
"327 -7 OFFCURVE",
"387 60 OFFCURVE",
"387 189 CURVE",
"353 189 LINE",
"353 123 OFFCURVE",
"311 79 OFFCURVE",
"246 79 CURVE SMOOTH",
"179 79 OFFCURVE",
"143 122 OFFCURVE",
"143 189 CURVE SMOOTH",
"143 509 LINE",
"44 509 LINE",
"44 158 LINE SMOOTH",
"44 45 OFFCURVE",
"128 -7 OFFCURVE",
"213 -7 CURVE SMOOTH"
);
},
{
closed = 1;
nodes = (
"452 0 LINE",
"452 509 LINE",
"353 509 LINE",
"353 0 LINE"
);
}
);
width = 510;
},
{
anchors = (
{
name = top;
position = "{248, 509}";
}
);
associatedMasterId = "262880E7-CFE1-4BDA-902E-E24798F3240A";
hints = (
{
origin = "{0, 11}";
target = "{0, 10}";
},
{
origin = "{1, 2}";
target = "{1, 1}";
},
{
horizontal = 1;
origin = "{0, 15}";
target = "{0, 6}";
}
);
layerId = "3858974B-EB1C-4669-ADA7-F87E0B421CE6";
name = del;
paths = (
{
closed = 1;
nodes = (
"327 -7 OFFCURVE",
"387 60 OFFCURVE",
"387 189 CURVE",
"353 189 LINE",
"353 123 OFFCURVE",
"311 79 OFFCURVE",
"246 79 CURVE SMOOTH",
"179 79 OFFCURVE",
"143 122 OFFCURVE",
"143 189 CURVE SMOOTH",
"143 509 LINE",
"44 509 LINE",
"44 158 LINE SMOOTH",
"44 45 OFFCURVE",
"128 -7 OFFCURVE",
"213 -7 CURVE SMOOTH"
);
},
{
closed = 1;
nodes = (
"452 0 LINE",
"452 509 LINE",
"353 509 LINE",
"353 0 LINE"
);
}
);
width = 510;
},
{
anchors = (
{
name = top;
position = "{248, 509}";
}
);
associatedMasterId = "262880E7-CFE1-4BDA-902E-E24798F3240A";
hints = (
{
origin = "{0, 11}";
target = "{0, 10}";
},
{
origin = "{1, 2}";
target = "{1, 1}";
},
{
horizontal = 1;
origin = "{0, 15}";
target = "{0, 6}";
}
);
layerId = "6AF54002-E551-41A8-9666-1E56C58E7EE2";
name = del;
paths = (
{
closed = 1;
nodes = (
"327 -7 OFFCURVE",
"387 60 OFFCURVE",
"387 189 CURVE",
"353 189 LINE",
"353 123 OFFCURVE",
"311 79 OFFCURVE",
"246 79 CURVE SMOOTH",
"179 79 OFFCURVE",
"143 122 OFFCURVE",
"143 189 CURVE SMOOTH",
"143 509 LINE",
"44 509 LINE",
"44 158 LINE SMOOTH",
"44 45 OFFCURVE",
"128 -7 OFFCURVE",
"213 -7 CURVE SMOOTH"
);
},
{
closed = 1;
nodes = (
"452 0 LINE",
"452 509 LINE",
"353 509 LINE",
"353 0 LINE"
);
}
);
width = 510;
},
{
anchors = (
{
name = top;
position = "{248, 509}";
}
);
associatedMasterId = "262880E7-CFE1-4BDA-902E-E24798F3240A";
hints = (
{
origin = "{0, 11}";
target = "{0, 10}";
},
{
origin = "{1, 2}";
target = "{1, 1}";
},
{
horizontal = 1;
origin = "{0, 15}";
target = "{0, 6}";
}
);
layerId = "B249327B-787C-40FB-AC76-417F704F3F82";
name = del;
paths = (
{
closed = 1;
nodes = (
"327 -7 OFFCURVE",
"387 60 OFFCURVE",
"387 189 CURVE",
"353 189 LINE",
"353 123 OFFCURVE",
"311 79 OFFCURVE",
"246 79 CURVE SMOOTH",
"179 79 OFFCURVE",
"143 122 OFFCURVE",
"143 189 CURVE SMOOTH",
"143 509 LINE",
"44 509 LINE",
"44 158 LINE SMOOTH",
"44 45 OFFCURVE",
"128 -7 OFFCURVE",
"213 -7 CURVE SMOOTH"
);
},
{
closed = 1;
nodes = (
"452 0 LINE",
"452 509 LINE",
"353 509 LINE",
"353 0 LINE"
);
}
);
width = 510;
},
{
anchors = (
{
name = top;
position = "{248, 509}";
}
);
associatedMasterId = "262880E7-CFE1-4BDA-902E-E24798F3240A";
hints = (
{
origin = "{0, 11}";
target = "{0, 10}";
},
{
origin = "{1, 2}";
target = "{1, 1}";
},
{
horizontal = 1;
origin = "{0, 15}";
target = "{0, 6}";
}
);
layerId = "1915D9D0-D974-490F-9E5A-BA28644D503B";
name = del;
paths = (
{
closed = 1;
nodes = (
"327 -7 OFFCURVE",
"387 60 OFFCURVE",
"387 189 CURVE",
"353 189 LINE",
"353 123 OFFCURVE",
"311 79 OFFCURVE",
"246 79 CURVE SMOOTH",
"179 79 OFFCURVE",
"143 122 OFFCURVE",
"143 189 CURVE SMOOTH",
"143 509 LINE",
"44 509 LINE",
"44 158 LINE SMOOTH",
"44 45 OFFCURVE",
"128 -7 OFFCURVE",
"213 -7 CURVE SMOOTH"
);
},
{
closed = 1;
nodes = (
"452 0 LINE",
"452 509 LINE",
"353 509 LINE",
"353 0 LINE"
);
}
);
width = 510;
},
{
associatedMasterId = "262880E7-CFE1-4BDA-902E-E24798F3240A";
hints = (
{
place = "{66, 22}";
},
{
place = "{382, 22}";
},
{
horizontal = 1;
place = "{-7, 21}";
}
);
layerId = "F2564442-2341-4F93-A4CC-C894375C6887";
name = del;
width = 510;
},
{
associatedMasterId = "262880E7-CFE1-4BDA-902E-E24798F3240A";
hints = (
{
place = "{66, 22}";
},
{
place = "{382, 22}";
},
{
horizontal = 1;
place = "{-7, 21}";
}
);
layerId = "FB3E4697-8DBD-466A-8744-EBD61A169E63";
name = del;
width = 510;
}
);
leftKerningGroup = u;
unicode = 0075;
},
{
glyphname = v;
lastChange = "2017-03-24 06:11:59 +0000";
layers = (
{
hints = (
{
origin = "{0, 5}";
target = "{0, 4}";
},
{
origin = "{0, 6}";
target = "{0, 0}";
},
{
origin = "{0, 2}";
target = "{0, 1}";
}
);
layerId = "262880E7-CFE1-4BDA-902E-E24798F3240A";
paths = (
{
closed = 1;
nodes = (
"224 0 LINE",
"399 500 LINE",
"374 500 LINE",
"213 33 LINE",
"52 500 LINE",
"27 500 LINE",
"202 0 LINE"
);
}
);
width = 426;
},
{
layerId = "4E2227F3-52E4-4048-A8EE-327B486EF0A4";
paths = (
{
closed = 1;
nodes = (
"339 0 LINE",
"464 518 LINE",
"260 520 LINE",
"235 256 LINE",
"210 520 LINE",
"6 520 LINE",
"131 0 LINE"
);
}
);
width = 470;
},
{
layerId = "FFFA8D72-12AC-4CE0-B2CA-57A29829F4DA";
paths = (
{
closed = 1;
nodes = (
"374 0 LINE",
"535 518 LINE",
"331 520 LINE",
"272 245 LINE",
"213 520 LINE",
"9 520 LINE",
"171 0 LINE"
);
}
);
width = 544;
},
{
layerId = "DCBE1F7B-116A-43E0-B7B4-8657BA77D8B5";
paths = (
{
closed = 1;
nodes = (
"172 0 LINE",
"301 500 LINE",
"276 500 LINE",
"160 33 LINE",
"43 500 LINE",
"18 500 LINE",
"149 0 LINE"
);
}
);
width = 319;
}
);
leftKerningGroup = v;
rightKerningGroup = v;
unicode = 0076;
},
